<svg id="svg" xmlns="http://www.w3.org/2000/svg" xmlns:xlink="http://www.w3.org/1999/xlink" width="400" height="362.5468164794008" viewBox="0, 0, 400,362.5468164794008" version="1.1"><g id="svgg"><path id="path0" d="M199.321 21.850 C 199.009 22.515,197.650 24.656,196.102 26.918 C 195.354 28.011,194.742 29.067,194.742 29.265 C 194.742 29.463,194.415 29.920,194.016 30.281 C 193.617 30.642,193.291 31.109,193.291 31.319 C 193.291 31.528,192.312 33.127,191.115 34.872 C 189.918 36.616,188.939 38.139,188.939 38.257 C 188.939 38.374,188.631 38.912,188.255 39.453 C 187.879 39.993,186.451 42.179,185.082 44.311 C 183.713 46.443,181.405 50.033,179.953 52.289 C 178.501 54.546,176.753 57.289,176.070 58.386 C 175.386 59.483,174.690 60.544,174.523 60.743 C 172.084 63.651,170.402 73.379,171.687 77.150 C 172.001 78.070,172.257 79.130,172.257 79.504 C 172.257 79.879,172.572 80.875,172.956 81.719 C 173.341 82.562,173.766 83.696,173.902 84.237 C 174.038 84.779,174.291 85.222,174.463 85.222 C 174.636 85.222,175.029 85.708,175.336 86.303 C 176.783 89.100,183.144 94.596,186.262 95.742 C 186.837 95.953,187.960 96.431,188.758 96.804 C 193.775 99.150,202.023 99.612,208.522 97.912 C 210.218 97.469,211.805 96.945,212.050 96.747 C 212.295 96.550,213.513 95.892,214.757 95.285 C 218.443 93.487,222.394 89.925,225.385 85.703 C 227.188 83.160,229.203 76.423,229.177 73.024 C 229.147 68.931,227.029 61.926,225.416 60.588 C 225.100 60.325,224.838 59.927,224.835 59.702 C 224.831 59.477,224.339 58.558,223.742 57.661 C 223.144 56.763,222.501 55.784,222.312 55.485 C 222.123 55.186,221.228 53.818,220.322 52.445 C 219.417 51.072,218.676 49.883,218.676 49.801 C 218.676 49.720,218.373 49.211,218.003 48.671 C 215.433 44.923,212.511 40.314,212.511 40.007 C 212.511 39.806,212.185 39.346,211.786 38.985 C 211.387 38.624,211.061 38.195,211.061 38.033 C 211.061 37.777,209.647 35.537,207.377 32.200 C 207.010 31.659,206.709 31.067,206.709 30.884 C 206.709 30.701,206.471 30.354,206.181 30.113 C 205.891 29.872,205.041 28.628,204.293 27.349 C 203.544 26.069,202.803 25.023,202.645 25.023 C 202.486 25.023,202.357 24.827,202.357 24.589 C 202.357 23.114,199.807 20.813,199.321 21.850 M186.051 112.759 C 185.814 113.202,185.675 117.857,185.675 125.380 C 185.675 134.166,185.561 137.413,185.240 137.733 C 184.907 138.066,175.981 138.169,147.275 138.169 C 107.334 138.169,105.910 138.226,100.635 140.033 C 100.036 140.238,98.753 140.627,97.784 140.897 C 96.814 141.167,95.427 141.660,94.701 141.993 C 91.015 143.684,89.566 144.450,89.182 144.913 C 88.950 145.193,88.599 145.422,88.403 145.422 C 88.207 145.422,87.595 145.789,87.043 146.238 C 86.490 146.686,85.569 147.374,84.996 147.765 C 82.162 149.699,76.159 156.526,74.934 159.208 C 74.617 159.903,74.201 160.716,74.010 161.015 C 70.804 166.043,70.011 171.360,70.007 187.851 C 70.005 199.304,70.314 203.684,71.222 205.070 C 71.490 205.479,71.825 206.339,71.966 206.982 C 72.107 207.625,72.376 208.246,72.563 208.362 C 72.750 208.477,73.128 209.111,73.404 209.771 C 74.536 212.479,82.706 219.664,85.433 220.348 C 85.916 220.469,86.917 220.877,87.657 221.254 C 88.397 221.632,89.355 221.940,89.786 221.940 C 90.218 221.940,91.264 222.185,92.112 222.484 C 95.652 223.733,107.454 222.727,109.519 221.001 C 109.819 220.751,110.553 220.427,111.151 220.281 C 111.750 220.136,112.629 219.715,113.104 219.346 C 113.580 218.978,114.184 218.676,114.446 218.676 C 114.708 218.676,115.054 218.468,115.213 218.214 C 115.373 217.960,115.916 217.490,116.420 217.170 C 116.925 216.850,118.475 215.528,119.866 214.231 C 121.256 212.934,123.128 211.265,124.025 210.521 C 124.923 209.777,126.873 208.003,128.358 206.579 C 129.844 205.154,131.490 203.663,132.017 203.264 C 132.544 202.865,134.429 201.212,136.206 199.592 C 137.984 197.971,140.335 195.846,141.432 194.870 C 142.529 193.894,144.019 192.528,144.743 191.833 C 148.972 187.778,149.387 187.767,153.360 191.613 C 154.878 193.082,157.134 195.162,158.374 196.235 C 163.856 200.981,166.096 202.986,168.813 205.575 C 173.153 209.711,180.075 215.820,181.606 216.864 C 182.348 217.371,183.659 218.301,184.518 218.932 C 185.377 219.562,186.601 220.190,187.238 220.326 C 187.874 220.462,188.608 220.745,188.868 220.955 C 190.725 222.452,200.435 223.410,204.799 222.526 C 206.388 222.204,207.987 221.940,208.353 221.940 C 209.008 221.940,210.387 221.374,214.325 219.486 C 216.660 218.367,218.024 217.471,219.768 215.913 C 220.464 215.291,223.467 212.598,226.441 209.929 C 229.414 207.261,232.505 204.506,233.309 203.808 C 234.113 203.110,236.014 201.396,237.534 200.000 C 239.055 198.604,241.349 196.534,242.634 195.399 C 243.918 194.265,245.732 192.633,246.666 191.773 C 251.020 187.762,251.220 187.759,255.227 191.625 C 256.765 193.109,258.673 194.837,259.467 195.466 C 260.261 196.094,262.246 197.861,263.878 199.392 C 267.886 203.152,272.093 206.988,276.881 211.247 C 279.075 213.199,281.197 215.090,281.596 215.450 C 284.517 218.087,290.282 221.394,292.642 221.787 C 293.348 221.904,294.689 222.241,295.622 222.535 C 297.871 223.243,305.606 223.041,309.338 222.176 C 317.330 220.325,325.886 213.367,328.110 206.912 C 328.388 206.105,328.759 205.272,328.935 205.060 C 329.825 203.988,330.077 198.847,329.927 184.803 L 329.772 170.263 328.658 166.999 C 327.603 163.906,326.751 161.871,326.002 160.653 C 325.819 160.354,325.431 159.582,325.141 158.938 C 324.851 158.295,324.444 157.560,324.238 157.306 C 324.032 157.053,323.060 155.854,322.080 154.642 C 320.013 152.088,316.802 148.959,314.224 146.987 C 312.267 145.490,311.466 145.019,307.888 143.261 C 306.591 142.625,305.109 141.878,304.594 141.602 C 304.079 141.327,303.018 140.937,302.237 140.736 C 291.620 138.010,294.657 138.169,253.036 138.169 C 232.575 138.169,215.576 138.070,215.261 137.949 C 214.753 137.754,214.687 136.316,214.687 125.493 C 214.687 114.101,214.642 113.217,214.024 112.658 C 212.918 111.658,186.589 111.753,186.051 112.759 M147.282 217.498 C 142.836 221.330,138.137 225.490,136.378 227.150 C 131.961 231.318,124.261 236.809,122.831 236.809 C 122.544 236.809,121.921 237.099,121.445 237.455 C 120.487 238.170,117.192 239.539,115.503 239.924 C 114.905 240.060,114.007 240.381,113.509 240.638 C 109.963 242.463,94.877 243.404,89.574 242.130 C 88.277 241.818,86.482 241.454,85.585 241.319 C 84.687 241.185,83.539 240.863,83.034 240.605 C 82.528 240.346,81.467 240.014,80.676 239.867 C 79.886 239.720,78.586 239.279,77.788 238.888 C 76.990 238.497,75.603 237.829,74.705 237.402 C 73.808 236.976,72.689 236.345,72.219 236.001 C 69.841 234.257,69.953 232.623,70.068 267.382 L 70.172 298.640 71.228 300.453 C 73.611 304.547,76.816 306.778,81.625 307.690 C 86.108 308.541,313.733 308.542,318.609 307.692 C 324.568 306.653,328.755 302.918,329.833 297.682 C 330.731 293.313,330.467 235.965,329.547 235.788 C 328.921 235.668,326.023 236.867,324.932 237.698 C 324.187 238.265,320.679 239.601,319.130 239.906 C 318.432 240.044,317.452 240.378,316.954 240.649 C 313.485 242.535,297.992 243.443,292.838 242.062 C 291.840 241.794,290.209 241.465,289.211 241.329 C 288.214 241.193,287.055 240.867,286.635 240.604 C 286.215 240.341,285.236 240.008,284.459 239.864 C 283.682 239.721,282.477 239.301,281.782 238.931 C 281.087 238.562,280.240 238.259,279.900 238.259 C 279.560 238.259,279.172 238.083,279.039 237.867 C 278.905 237.651,278.097 237.175,277.244 236.809 C 276.390 236.443,275.583 235.967,275.449 235.751 C 275.316 235.535,274.979 235.358,274.700 235.358 C 273.562 235.358,266.161 229.555,262.127 225.499 C 261.097 224.464,259.263 222.804,258.051 221.810 C 256.839 220.817,254.921 219.134,253.789 218.071 C 251.111 215.555,251.215 215.531,246.600 219.768 C 245.902 220.409,243.781 222.286,241.886 223.939 C 239.991 225.592,237.604 227.736,236.581 228.703 C 234.463 230.708,233.826 231.191,229.348 234.188 C 227.567 235.380,225.512 236.547,224.780 236.782 C 224.048 237.017,223.253 237.445,223.013 237.734 C 222.773 238.023,222.229 238.265,221.805 238.272 C 221.381 238.278,220.381 238.599,219.583 238.985 C 218.785 239.370,217.867 239.691,217.543 239.698 C 217.219 239.704,216.240 239.971,215.367 240.289 C 213.516 240.965,209.203 241.702,203.741 242.276 C 199.859 242.683,199.610 242.669,190.209 241.504 C 187.666 241.189,183.636 240.106,181.402 239.138 C 180.747 238.854,179.983 238.622,179.704 238.622 C 179.083 238.622,172.986 235.502,170.988 234.163 C 168.138 232.251,167.699 231.929,165.730 230.300 C 163.149 228.165,161.629 226.814,159.787 225.018 C 158.967 224.218,156.949 222.450,155.304 221.089 C 153.658 219.727,152.312 218.487,152.312 218.332 C 152.312 217.989,149.692 216.138,149.206 216.138 C 149.015 216.138,148.149 216.750,147.282 217.498 " stroke="none" fill="#fafafa" fill-rule="evenodd"></path></g></svg>