<?xml version="1.0" standalone="no"?>
<!DOCTYPE svg PUBLIC "-//W3C//DTD SVG 20010904//EN"
 "http://www.w3.org/TR/2001/REC-SVG-20010904/DTD/svg10.dtd">
<svg version="1.0" xmlns="http://www.w3.org/2000/svg"
 width="1063.000000pt" height="531.000000pt" viewBox="0 0 1063.000000 531.000000"
 preserveAspectRatio="xMidYMid meet">
<metadata>
Created by potrace 1.16, written by Peter Selinger 2001-2019
</metadata>
<g transform="translate(0.000000,531.000000) scale(0.100000,-0.100000)"
fill="#000000" stroke="none">
<path d="M4150 4620 l0 -210 210 0 210 0 0 210 0 210 -210 0 -210 0 0 -210z"/>
<path d="M3370 4235 l0 -155 155 0 155 0 0 155 0 155 -155 0 -155 0 0 -155z"/>
<path d="M2640 4130 l0 -210 205 0 205 0 0 210 0 210 -205 0 -205 0 0 -210z"/>
<path d="M4460 3935 l0 -155 155 0 155 0 0 155 0 155 -155 0 -155 0 0 -155z"/>
<path d="M3980 3485 l0 -155 155 0 155 0 0 155 0 155 -155 0 -155 0 0 -155z"/>
<path d="M680 2010 l0 -1500 1505 0 1505 0 -2 1128 -3 1127 -187 3 -188 2 0
185 0 185 -187 2 -188 3 -3 183 -2 182 -1125 0 -1125 0 0 -1500z m2800 230 l0
-160 -330 0 -330 0 0 -175 0 -175 310 0 310 0 0 -155 0 -155 -287 0 c-159 0
-298 -3 -310 -6 -23 -6 -23 -8 -23 -200 l0 -194 350 0 350 0 0 -160 0 -160
-404 0 c-377 0 -408 1 -470 20 -88 28 -144 72 -181 145 l-30 59 -3 738 -2 738
525 0 525 0 0 -160z"/>
<path d="M3310 3330 l0 -180 190 0 190 0 -2 178 -3 177 -187 3 -188 2 0 -180z"/>
<path d="M3950 2745 l0 -155 155 0 155 0 0 155 0 155 -155 0 -155 0 0 -155z"/>
<path d="M4435 2370 c-315 -50 -511 -262 -492 -533 7 -111 53 -202 142 -285
79 -75 156 -118 330 -187 142 -57 173 -73 218 -114 85 -77 76 -202 -20 -267
-100 -67 -358 -52 -553 33 -33 14 -62 24 -64 22 -2 -2 -18 -65 -35 -139 -18
-74 -34 -142 -37 -151 -6 -21 64 -51 195 -87 85 -22 117 -25 271 -26 205 -1
276 12 410 77 177 86 280 245 280 434 0 138 -43 246 -133 335 -71 70 -147 114
-328 188 -230 95 -279 134 -287 222 -3 43 0 59 20 87 69 102 280 119 500 42
l77 -28 40 147 c23 80 41 149 41 152 0 9 -111 47 -185 63 -87 19 -310 27 -390
15z"/>
<path d="M9702 2359 c-111 -55 -125 -220 -25 -296 36 -27 110 -41 158 -29 43
11 101 71 115 121 16 56 7 102 -29 152 -51 70 -140 91 -219 52z m148 -21 c56
-29 84 -75 84 -140 0 -147 -199 -203 -281 -79 -48 72 -18 182 61 221 53 26 81
25 136 -2z"/>
<path d="M9712 2203 c2 -66 7 -98 16 -101 8 -2 12 10 12 43 l0 46 43 -3 c41
-3 42 -4 51 -45 5 -24 15 -43 21 -43 15 0 9 76 -7 97 -5 7 -5 14 2 18 14 9 13
58 -2 73 -7 7 -39 12 -75 12 l-64 0 3 -97z"/>
<path d="M8414 2350 c-39 -4 -94 -11 -122 -15 l-52 -7 0 -314 0 -314 85 0 85
0 0 -165 0 -165 -85 0 -85 0 0 -355 0 -355 190 0 190 0 0 330 0 330 94 0 c102
0 144 -10 194 -47 48 -36 75 -99 125 -293 25 -96 56 -206 69 -245 l23 -70 196
-3 197 -2 -28 92 c-16 51 -49 172 -75 268 -66 252 -117 351 -211 406 -24 14
-44 27 -44 29 0 1 25 15 56 31 230 117 314 425 175 642 -64 98 -164 165 -308
204 -68 18 -110 21 -338 24 -143 1 -292 -1 -331 -6z m493 -285 c102 -30 158
-94 170 -194 12 -105 -41 -198 -139 -242 -45 -20 -73 -24 -185 -27 l-133 -4 0
235 0 236 28 4 c69 10 212 6 259 -8z"/>
<path d="M5350 1505 l0 -845 185 0 185 0 0 273 0 272 70 88 c39 48 74 87 78
87 4 0 100 -162 212 -360 l205 -359 222 -1 222 0 -141 233 c-327 539 -438 725
-438 736 0 9 374 497 542 709 8 9 -38 12 -225 12 l-236 0 -235 -348 c-129
-192 -240 -360 -247 -375 -6 -14 -16 -24 -20 -21 -5 3 -9 171 -9 375 l0 369
-185 0 -185 0 0 -845z"/>
<path d="M6882 1593 c3 -663 5 -732 20 -771 35 -88 110 -150 213 -177 49 -12
130 -15 452 -15 l393 0 0 155 0 155 -350 0 -350 0 2 203 3 202 313 3 312 2 0
155 0 155 -315 0 -315 0 0 175 0 175 335 0 335 0 0 155 0 155 -525 0 -526 0 3
-727z"/>
</g>
</svg>
