<svg id="svg" xmlns="http://www.w3.org/2000/svg" xmlns:xlink="http://www.w3.org/1999/xlink" width="400" height="402.8673835125448" viewBox="0, 0, 400,402.8673835125448" version="1.1"><g id="svgg"><path id="path0" d="M196.559 91.643 C 191.027 92.335,187.473 94.587,179.171 102.663 C 177.504 104.284,175.254 106.373,174.171 107.305 C 173.087 108.237,170.760 110.376,169.000 112.059 C 167.240 113.741,165.091 115.721,164.225 116.459 C 163.360 117.196,161.459 118.970,160.002 120.400 C 158.546 121.830,156.014 124.161,154.377 125.580 C 152.740 126.998,149.771 129.698,147.781 131.580 C 145.790 133.461,142.116 136.890,139.616 139.200 C 137.117 141.510,133.435 144.947,131.436 146.837 C 129.436 148.727,126.990 150.972,126.000 151.826 C 124.506 153.114,119.793 157.554,116.263 161.000 C 115.812 161.440,115.041 162.075,114.549 162.410 C 114.057 162.746,111.868 164.726,109.684 166.810 C 105.277 171.016,98.179 177.602,94.800 180.622 C 93.590 181.703,91.870 183.310,90.977 184.194 C 90.084 185.077,88.374 186.688,87.177 187.772 C 84.068 190.590,76.507 197.591,72.030 201.800 C 69.923 203.780,67.107 206.390,65.772 207.600 C 60.759 212.141,60.685 214.918,65.408 221.285 C 66.504 222.762,68.207 225.102,69.194 226.485 C 70.181 227.868,71.125 229.180,71.293 229.400 C 71.461 229.620,72.617 231.150,73.861 232.800 C 76.431 236.207,76.490 236.259,78.413 236.792 C 80.868 237.473,82.572 236.676,86.393 233.061 C 90.104 229.550,98.808 221.501,101.375 219.208 C 102.242 218.433,104.822 216.000,107.109 213.800 C 109.396 211.600,111.530 209.652,111.850 209.471 C 112.170 209.290,114.360 207.283,116.716 205.011 C 119.072 202.739,121.810 200.191,122.800 199.348 C 123.790 198.505,125.507 196.912,126.616 195.808 C 127.725 194.704,129.435 193.096,130.416 192.236 C 132.711 190.224,140.791 182.733,145.185 178.544 C 147.063 176.754,149.410 174.622,150.400 173.806 C 151.390 172.991,153.914 170.676,156.009 168.662 C 158.104 166.648,160.577 164.340,161.504 163.534 C 163.181 162.076,169.037 156.672,176.388 149.800 C 178.507 147.820,183.007 143.680,186.390 140.600 C 189.773 137.520,193.499 134.063,194.669 132.918 C 198.346 129.323,201.169 129.431,205.177 133.318 C 206.620 134.717,208.430 136.364,209.200 136.977 C 209.970 137.591,212.411 139.827,214.624 141.946 C 216.838 144.066,219.088 146.139,219.624 146.554 C 220.161 146.969,222.318 148.949,224.417 150.954 C 229.728 156.028,237.386 163.142,239.949 165.384 C 241.131 166.418,242.841 168.039,243.749 168.987 C 244.657 169.934,246.300 171.466,247.400 172.391 C 248.500 173.315,250.872 175.505,252.671 177.256 C 254.470 179.008,256.630 180.986,257.471 181.652 C 258.312 182.318,261.001 184.784,263.447 187.132 C 265.893 189.479,270.562 193.830,273.823 196.800 C 277.083 199.770,281.476 203.820,283.583 205.800 C 285.691 207.780,289.556 211.380,292.172 213.800 C 294.788 216.220,298.949 220.090,301.419 222.400 C 317.900 237.814,316.762 236.922,319.684 236.714 C 322.100 236.542,322.692 236.133,324.904 233.108 C 325.430 232.388,326.927 230.391,328.230 228.669 C 329.534 226.947,330.960 224.952,331.400 224.236 C 332.100 223.097,333.182 221.670,334.906 219.610 C 335.867 218.462,337.200 215.451,337.198 214.432 C 337.191 211.222,336.671 210.524,328.989 203.400 C 326.379 200.980,322.511 197.380,320.393 195.400 C 318.275 193.420,313.599 189.100,310.002 185.800 C 306.404 182.500,301.647 178.052,299.430 175.915 L 295.400 172.030 295.200 133.715 L 295.000 95.400 294.143 94.200 C 292.024 91.232,293.061 91.415,277.497 91.268 C 255.066 91.057,256.821 88.965,256.809 115.913 C 256.799 136.856,256.870 136.339,254.306 134.183 C 252.948 133.041,247.355 127.871,240.043 121.000 C 237.702 118.800,233.728 115.110,231.212 112.800 C 228.696 110.490,224.919 106.978,222.819 104.996 C 209.486 92.414,205.718 90.498,196.559 91.643 M197.342 152.914 C 196.267 153.523,191.897 157.383,188.414 160.800 C 185.418 163.739,178.191 170.420,174.835 173.353 C 173.606 174.428,170.797 177.043,168.594 179.164 C 166.391 181.286,164.183 183.307,163.686 183.655 C 163.190 184.002,160.941 186.067,158.688 188.243 C 156.436 190.420,153.946 192.740,153.156 193.400 C 151.852 194.489,149.077 197.036,138.778 206.600 C 136.883 208.360,134.448 210.605,133.366 211.589 C 132.285 212.573,129.865 214.823,127.989 216.589 C 121.868 222.351,115.821 227.951,114.800 228.801 C 114.250 229.259,112.402 231.013,110.693 232.700 L 107.587 235.767 107.693 280.784 L 107.800 325.800 108.666 327.400 C 111.234 332.146,110.429 332.039,141.672 331.782 C 172.632 331.526,171.559 331.596,173.662 329.697 C 176.796 326.865,176.577 329.125,176.800 297.400 L 177.000 269.000 177.896 267.323 C 180.197 263.019,181.249 262.805,200.125 262.802 L 215.650 262.800 217.844 263.838 C 222.808 266.186,222.798 266.119,222.809 298.555 C 222.819 328.066,222.690 326.654,225.631 329.515 C 227.623 331.453,226.727 331.400,257.671 331.400 C 290.305 331.400,287.245 331.739,289.900 327.826 L 291.200 325.910 291.200 280.741 C 291.200 239.658,291.141 235.482,290.548 234.576 C 290.189 234.029,288.254 232.112,286.248 230.317 C 281.674 226.224,275.178 220.247,269.384 214.800 C 264.128 209.859,257.098 203.354,254.010 200.572 C 252.805 199.488,251.185 197.961,250.410 197.180 C 249.634 196.398,247.920 194.800,246.600 193.629 C 244.099 191.408,236.962 184.790,231.423 179.554 C 229.650 177.878,227.490 175.898,226.623 175.154 C 225.755 174.409,223.127 172.000,220.782 169.800 C 215.272 164.631,206.584 156.591,204.573 154.800 C 202.307 152.783,201.593 152.428,199.800 152.428 C 198.920 152.428,197.814 152.647,197.342 152.914 " stroke="none" fill="#fafafa" fill-rule="evenodd"></path><path id="path1" d="M0.000 201.400 L 0.000 402.800 200.000 402.800 L 400.000 402.800 400.000 201.400 L 400.000 0.000 200.000 0.000 L 0.000 0.000 0.000 201.400 M206.400 92.476 C 210.398 93.766,213.110 95.834,222.819 104.996 C 224.919 106.978,228.696 110.490,231.212 112.800 C 233.728 115.110,237.702 118.800,240.043 121.000 C 247.355 127.871,252.948 133.041,254.306 134.183 C 256.870 136.339,256.799 136.856,256.809 115.913 C 256.821 88.965,255.066 91.057,277.497 91.268 C 293.061 91.415,292.024 91.232,294.143 94.200 L 295.000 95.400 295.200 133.715 L 295.400 172.030 299.430 175.915 C 301.647 178.052,306.404 182.500,310.002 185.800 C 313.599 189.100,318.275 193.420,320.393 195.400 C 322.511 197.380,326.379 200.980,328.989 203.400 C 336.671 210.524,337.191 211.222,337.198 214.432 C 337.200 215.451,335.867 218.462,334.906 219.610 C 333.182 221.670,332.100 223.097,331.400 224.236 C 330.960 224.952,329.534 226.947,328.230 228.669 C 326.927 230.391,325.430 232.388,324.904 233.108 C 322.692 236.133,322.100 236.542,319.684 236.714 C 316.762 236.922,317.900 237.814,301.419 222.400 C 298.949 220.090,294.788 216.220,292.172 213.800 C 289.556 211.380,285.691 207.780,283.583 205.800 C 281.476 203.820,277.083 199.770,273.823 196.800 C 270.562 193.830,265.893 189.479,263.447 187.132 C 261.001 184.784,258.312 182.318,257.471 181.652 C 256.630 180.986,254.470 179.008,252.671 177.256 C 250.872 175.505,248.500 173.315,247.400 172.391 C 246.300 171.466,244.657 169.934,243.749 168.987 C 242.841 168.039,241.131 166.418,239.949 165.384 C 237.386 163.142,229.728 156.028,224.417 150.954 C 222.318 148.949,220.161 146.969,219.624 146.554 C 219.088 146.139,216.838 144.066,214.624 141.946 C 212.411 139.827,209.970 137.591,209.200 136.977 C 208.430 136.364,206.620 134.717,205.177 133.318 C 201.169 129.431,198.346 129.323,194.669 132.918 C 193.499 134.063,189.773 137.520,186.390 140.600 C 183.007 143.680,178.507 147.820,176.388 149.800 C 169.037 156.672,163.181 162.076,161.504 163.534 C 160.577 164.340,158.104 166.648,156.009 168.662 C 153.914 170.676,151.390 172.991,150.400 173.806 C 149.410 174.622,147.063 176.754,145.185 178.544 C 140.791 182.733,132.711 190.224,130.416 192.236 C 129.435 193.096,127.725 194.704,126.616 195.808 C 125.507 196.912,123.790 198.505,122.800 199.348 C 121.810 200.191,119.072 202.739,116.716 205.011 C 114.360 207.283,112.170 209.290,111.850 209.471 C 111.530 209.652,109.396 211.600,107.109 213.800 C 104.822 216.000,102.242 218.433,101.375 219.208 C 98.808 221.501,90.104 229.550,86.393 233.061 C 82.572 236.676,80.868 237.473,78.413 236.792 C 76.490 236.259,76.431 236.207,73.861 232.800 C 72.617 231.150,71.461 229.620,71.293 229.400 C 71.125 229.180,70.181 227.868,69.194 226.485 C 68.207 225.102,66.504 222.762,65.408 221.285 C 60.685 214.918,60.759 212.141,65.772 207.600 C 67.107 206.390,69.923 203.780,72.030 201.800 C 76.507 197.591,84.068 190.590,87.177 187.772 C 88.374 186.688,90.084 185.077,90.977 184.194 C 91.870 183.310,93.590 181.703,94.800 180.622 C 98.179 177.602,105.277 171.016,109.684 166.810 C 111.868 164.726,114.057 162.746,114.549 162.410 C 115.041 162.075,115.812 161.440,116.263 161.000 C 119.793 157.554,124.506 153.114,126.000 151.826 C 126.990 150.972,129.436 148.727,131.436 146.837 C 133.435 144.947,137.117 141.510,139.616 139.200 C 142.116 136.890,145.790 133.461,147.781 131.580 C 149.771 129.698,152.740 126.998,154.377 125.580 C 156.014 124.161,158.546 121.830,160.002 120.400 C 161.459 118.970,163.360 117.196,164.225 116.459 C 165.091 115.721,167.240 113.741,169.000 112.059 C 170.760 110.376,173.087 108.237,174.171 107.305 C 175.254 106.373,177.504 104.284,179.171 102.663 C 190.330 91.808,196.814 89.382,206.400 92.476 M202.200 152.914 C 203.362 153.620,208.911 158.663,220.782 169.800 C 223.127 172.000,225.755 174.409,226.623 175.154 C 227.490 175.898,229.650 177.878,231.423 179.554 C 236.962 184.790,244.099 191.408,246.600 193.629 C 247.920 194.800,249.634 196.398,250.410 197.180 C 251.185 197.961,252.805 199.488,254.010 200.572 C 257.098 203.354,264.128 209.859,269.384 214.800 C 275.178 220.247,281.674 226.224,286.248 230.317 C 288.254 232.112,290.189 234.029,290.548 234.576 C 291.141 235.482,291.200 239.658,291.200 280.741 L 291.200 325.910 289.900 327.826 C 287.245 331.739,290.305 331.400,257.671 331.400 C 226.727 331.400,227.623 331.453,225.631 329.515 C 222.690 326.654,222.819 328.066,222.809 298.555 C 222.798 266.119,222.808 266.186,217.844 263.838 L 215.650 262.800 200.125 262.802 C 181.249 262.805,180.197 263.019,177.896 267.323 L 177.000 269.000 176.800 297.400 C 176.577 329.125,176.796 326.865,173.662 329.697 C 171.559 331.596,172.632 331.526,141.672 331.782 C 110.429 332.039,111.234 332.146,108.666 327.400 L 107.800 325.800 107.693 280.784 L 107.587 235.767 110.693 232.700 C 112.402 231.013,114.250 229.259,114.800 228.801 C 115.821 227.951,121.868 222.351,127.989 216.589 C 129.865 214.823,132.285 212.573,133.366 211.589 C 134.448 210.605,136.883 208.360,138.778 206.600 C 149.077 197.036,151.852 194.489,153.156 193.400 C 153.946 192.740,156.436 190.420,158.688 188.243 C 160.941 186.067,163.190 184.002,163.686 183.655 C 164.183 183.307,166.391 181.286,168.594 179.164 C 170.797 177.043,173.606 174.428,174.835 173.353 C 178.191 170.420,185.418 163.739,188.414 160.800 C 195.405 153.941,197.462 152.428,199.800 152.428 C 200.680 152.428,201.760 152.647,202.200 152.914 " stroke="none" fill="#040404" fill-rule="evenodd"></path></g></svg>