<svg id="svg" version="1.1" xmlns="http://www.w3.org/2000/svg" xmlns:xlink="http://www.w3.org/1999/xlink" width="400" height="205.71428571428572" viewBox="0, 0, 400,205.71428571428572"><g id="svgg"><path id="path0" d="M205.350 76.955 L 205.350 85.391 196.399 85.391 C 189.798 85.391,187.449 85.453,187.449 85.627 C 187.449 85.796,186.952 85.829,185.705 85.741 C 184.566 85.660,183.915 85.693,183.827 85.836 C 183.748 85.964,183.289 86.017,182.732 85.963 C 182.074 85.900,181.687 85.962,181.502 86.160 C 181.312 86.364,180.997 86.409,180.431 86.313 C 179.868 86.218,179.630 86.252,179.630 86.426 C 179.630 86.562,179.465 86.630,179.263 86.578 C 179.062 86.525,178.777 86.611,178.630 86.768 C 178.479 86.929,178.190 87.000,177.967 86.929 C 177.736 86.856,177.572 86.900,177.572 87.037 C 177.572 87.177,177.407 87.218,177.160 87.140 C 176.912 87.061,176.749 87.103,176.749 87.245 C 176.749 87.399,176.540 87.435,176.150 87.350 C 175.661 87.242,175.525 87.296,175.415 87.642 C 175.341 87.875,175.199 88.066,175.098 88.066 C 174.998 88.066,174.448 88.341,173.877 88.678 C 173.307 89.014,172.840 89.241,172.840 89.182 C 172.840 89.122,172.613 89.318,172.336 89.617 C 172.059 89.916,171.734 90.100,171.614 90.026 C 171.494 89.952,171.337 90.047,171.264 90.237 C 171.191 90.427,170.604 91.117,169.959 91.770 C 169.314 92.422,168.729 93.106,168.659 93.289 C 168.589 93.472,168.383 93.621,168.202 93.621 C 167.967 93.621,167.911 93.739,168.004 94.033 C 168.079 94.269,168.041 94.444,167.915 94.444 C 167.794 94.444,167.708 94.514,167.722 94.599 C 167.785 94.962,167.169 96.091,166.908 96.091 C 166.732 96.091,166.671 96.216,166.748 96.418 C 166.817 96.598,166.807 96.852,166.726 96.983 C 166.645 97.114,166.576 97.407,166.571 97.633 C 166.567 97.860,166.446 98.021,166.302 97.992 C 166.120 97.956,166.080 98.096,166.170 98.455 C 166.254 98.789,166.213 98.971,166.055 98.971 C 165.891 98.971,165.855 99.173,165.947 99.588 C 166.039 100.009,166.003 100.206,165.833 100.206 C 165.655 100.206,165.622 100.490,165.719 101.215 C 165.820 101.981,165.777 102.301,165.540 102.538 C 165.215 102.863,165.116 103.730,165.375 103.989 C 165.573 104.188,165.447 105.608,165.209 105.854 C 164.920 106.154,164.964 116.872,165.255 116.872 C 165.420 116.872,165.448 117.270,165.350 118.227 C 165.264 119.070,165.286 119.535,165.408 119.459 C 165.692 119.284,165.892 120.417,165.730 121.281 C 165.642 121.748,165.682 122.131,165.837 122.317 C 165.973 122.481,166.023 122.804,165.950 123.035 C 165.866 123.298,165.908 123.457,166.060 123.457 C 166.208 123.457,166.258 123.631,166.186 123.904 C 166.111 124.191,166.193 124.442,166.415 124.604 C 166.641 124.770,166.760 125.148,166.760 125.700 C 166.760 126.280,166.849 126.543,167.044 126.543 C 167.212 126.543,167.280 126.669,167.210 126.852 C 167.144 127.022,167.170 127.160,167.265 127.160 C 167.434 127.160,167.971 128.257,167.918 128.493 C 167.889 128.626,168.000 128.767,169.128 130.041 C 169.579 130.550,169.950 131.126,169.953 131.321 C 169.957 131.534,170.070 131.631,170.240 131.567 C 170.395 131.507,170.758 131.741,171.049 132.087 C 171.340 132.433,171.659 132.716,171.759 132.716 C 171.858 132.716,172.118 132.878,172.338 133.076 C 172.557 133.274,173.223 133.660,173.817 133.934 C 174.411 134.208,174.897 134.506,174.897 134.597 C 174.897 134.687,175.036 134.707,175.206 134.642 C 175.376 134.577,175.514 134.623,175.514 134.745 C 175.514 134.867,175.653 134.913,175.823 134.848 C 176.007 134.777,176.132 134.846,176.132 135.020 C 176.132 135.212,176.383 135.317,176.879 135.331 C 177.290 135.342,177.684 135.433,177.754 135.533 C 177.823 135.632,178.112 135.728,178.395 135.746 C 179.345 135.806,180.247 136.053,180.247 136.254 C 180.247 136.367,180.511 136.394,180.864 136.317 C 181.350 136.210,181.481 136.252,181.481 136.511 C 181.481 136.798,181.698 136.823,183.148 136.702 C 184.081 136.624,184.873 136.645,184.948 136.749 C 185.027 136.857,192.822 136.910,203.755 136.875 L 222.428 136.817 222.428 102.668 L 222.428 68.519 213.889 68.519 L 205.350 68.519 205.350 76.955 M68.880 110.337 C 68.851 124.060,68.856 135.635,68.891 136.060 L 68.955 136.831 77.174 136.831 L 85.393 136.831 85.340 111.163 L 85.288 85.494 77.111 85.440 L 68.933 85.386 68.880 110.337 M98.354 111.111 L 98.354 136.831 106.999 136.831 L 115.644 136.831 115.590 118.004 L 115.535 99.177 122.982 99.177 C 128.234 99.177,130.470 99.245,130.570 99.406 C 130.664 99.559,131.116 99.590,131.920 99.499 C 132.749 99.405,133.128 99.434,133.128 99.590 C 133.128 99.716,133.217 99.763,133.326 99.696 C 133.720 99.452,135.917 101.089,135.689 101.457 C 135.625 101.561,135.670 101.646,135.790 101.646 C 135.910 101.646,136.008 101.785,136.008 101.955 C 136.008 102.124,136.111 102.263,136.236 102.263 C 136.361 102.263,136.410 102.402,136.345 102.572 C 136.280 102.742,136.321 102.881,136.436 102.881 C 136.563 102.881,136.591 103.162,136.509 103.601 C 136.425 104.051,136.455 104.321,136.589 104.321 C 136.732 104.321,136.764 104.940,136.686 106.158 C 136.586 107.695,136.622 108.050,136.905 108.333 C 137.212 108.640,137.243 109.964,137.243 122.751 L 137.243 136.831 145.460 136.831 L 153.676 136.831 153.742 119.496 C 153.784 108.233,153.735 102.110,153.603 102.015 C 153.491 101.935,153.393 101.426,153.386 100.883 C 153.378 100.341,153.298 99.735,153.207 99.537 C 153.116 99.338,153.099 98.950,153.168 98.675 C 153.238 98.395,153.193 98.111,153.066 98.033 C 152.939 97.954,152.890 97.640,152.954 97.319 C 153.033 96.922,152.975 96.709,152.764 96.628 C 152.553 96.547,152.499 96.351,152.589 95.992 C 152.663 95.698,152.631 95.473,152.515 95.473 C 152.402 95.473,152.046 94.854,151.725 94.097 C 151.403 93.340,150.768 92.307,150.313 91.802 C 149.103 90.457,147.738 89.120,147.730 89.272 C 147.726 89.344,147.546 89.191,147.329 88.931 C 147.113 88.672,146.861 88.451,146.770 88.440 C 146.414 88.400,145.679 87.991,145.679 87.834 C 145.679 87.742,145.540 87.721,145.370 87.786 C 145.201 87.851,145.062 87.802,145.062 87.676 C 145.062 87.551,144.877 87.449,144.650 87.449 C 144.424 87.449,144.239 87.379,144.239 87.294 C 144.238 87.209,143.989 87.125,143.684 87.108 C 143.379 87.090,143.021 86.926,142.887 86.744 C 142.747 86.552,142.504 86.467,142.310 86.541 C 142.113 86.617,141.975 86.566,141.975 86.416 C 141.975 86.245,141.777 86.202,141.365 86.285 C 140.914 86.375,140.702 86.314,140.554 86.053 C 140.409 85.795,140.293 85.761,140.126 85.926 C 139.883 86.166,138.954 86.074,138.780 85.793 C 138.724 85.702,138.182 85.678,137.577 85.741 C 136.867 85.814,136.425 85.772,136.333 85.623 C 136.228 85.454,131.071 85.391,117.272 85.391 L 98.354 85.391 98.354 111.111 M251.163 85.624 C 250.932 85.759,250.349 85.791,249.672 85.706 C 249.005 85.623,248.560 85.646,248.560 85.764 C 248.560 86.022,247.553 86.211,247.410 85.979 C 247.349 85.880,247.151 85.947,246.971 86.127 C 246.773 86.325,246.438 86.416,246.128 86.357 C 245.834 86.301,245.312 86.427,244.912 86.652 C 244.527 86.868,244.126 86.991,244.020 86.926 C 243.914 86.861,243.827 86.911,243.827 87.039 C 243.827 87.177,243.661 87.218,243.416 87.140 C 243.180 87.065,243.004 87.103,243.004 87.229 C 243.004 87.350,242.865 87.449,242.695 87.449 C 242.526 87.449,242.387 87.551,242.387 87.676 C 242.387 87.802,242.248 87.851,242.078 87.786 C 241.908 87.721,241.770 87.767,241.770 87.889 C 241.770 88.010,241.631 88.057,241.461 87.991 C 241.281 87.922,241.152 87.988,241.152 88.150 C 241.152 88.303,240.887 88.537,240.563 88.672 C 240.048 88.885,238.663 89.991,237.919 90.784 C 237.038 91.723,236.514 92.382,236.456 92.623 C 236.419 92.776,236.303 92.932,236.199 92.970 C 236.094 93.008,236.007 93.146,236.005 93.278 C 235.998 93.825,235.614 94.159,235.374 93.827 C 235.202 93.587,235.179 93.645,235.275 94.084 C 235.343 94.396,235.313 94.650,235.208 94.650 C 235.104 94.650,235.066 94.835,235.126 95.062 C 235.188 95.301,235.132 95.473,234.991 95.473 C 234.858 95.473,234.807 95.566,234.877 95.680 C 235.002 95.881,234.588 97.324,234.347 97.531 C 234.281 97.587,234.223 98.004,234.217 98.457 C 234.196 100.270,233.993 102.317,233.823 102.441 C 233.721 102.515,233.669 110.014,233.705 119.702 L 233.769 136.831 241.983 136.831 L 250.198 136.831 250.285 121.553 C 250.375 105.713,250.419 103.967,250.737 103.737 C 250.841 103.662,250.946 103.324,250.971 102.985 C 250.997 102.646,251.157 102.267,251.328 102.142 C 251.500 102.016,251.587 101.862,251.523 101.798 C 251.329 101.604,251.845 100.823,252.168 100.823 C 252.334 100.823,252.469 100.677,252.469 100.499 C 252.469 100.301,252.609 100.203,252.829 100.247 C 253.027 100.287,253.344 100.131,253.532 99.902 C 253.821 99.552,254.089 99.492,255.223 99.528 C 255.965 99.551,256.626 99.482,256.693 99.374 C 256.762 99.261,258.326 99.176,260.352 99.174 C 262.297 99.173,264.097 99.116,264.352 99.047 L 264.815 98.923 264.800 92.311 C 264.792 88.429,264.713 85.869,264.609 86.111 C 264.512 86.337,264.414 86.453,264.392 86.368 C 264.281 85.944,264.247 85.785,264.223 85.597 C 264.187 85.304,251.668 85.331,251.163 85.624 M296.624 85.631 C 296.368 85.780,295.599 85.815,294.412 85.730 C 293.411 85.659,292.593 85.682,292.593 85.781 C 292.593 86.053,291.702 86.229,291.475 86.001 C 291.175 85.701,290.619 85.762,290.314 86.129 C 290.134 86.347,289.854 86.417,289.474 86.341 C 289.161 86.279,288.844 86.326,288.770 86.446 C 288.696 86.566,288.414 86.622,288.145 86.571 C 287.875 86.519,287.654 86.557,287.654 86.654 C 287.654 86.752,287.423 86.831,287.140 86.831 C 286.857 86.831,286.626 86.935,286.626 87.061 C 286.626 87.194,286.413 87.250,286.121 87.194 C 285.805 87.134,285.576 87.207,285.506 87.389 C 285.444 87.549,285.307 87.627,285.201 87.561 C 285.095 87.496,284.949 87.537,284.877 87.654 C 284.804 87.771,284.659 87.814,284.554 87.748 C 284.448 87.683,284.362 87.738,284.362 87.870 C 284.362 88.002,284.223 88.057,284.053 87.991 C 283.884 87.926,283.745 87.973,283.745 88.094 C 283.745 88.216,283.606 88.262,283.436 88.197 C 283.239 88.122,283.128 88.201,283.128 88.415 C 283.128 88.600,283.073 88.698,283.007 88.631 C 282.941 88.565,282.733 88.638,282.544 88.792 C 281.745 89.449,279.539 91.065,279.188 91.252 C 278.978 91.364,278.807 91.573,278.807 91.715 C 278.807 91.858,278.668 91.975,278.498 91.975 C 278.328 91.975,278.189 92.114,278.189 92.284 C 278.189 92.454,278.006 92.775,277.783 92.999 C 277.560 93.222,277.316 93.646,277.242 93.941 C 277.168 94.236,276.989 94.523,276.844 94.579 C 276.699 94.634,276.519 94.928,276.443 95.231 C 276.368 95.534,276.179 96.060,276.025 96.399 C 275.621 97.288,275.213 98.808,275.263 99.235 C 275.287 99.437,275.166 99.656,274.994 99.722 C 274.764 99.810,274.715 100.019,274.808 100.515 C 274.886 100.931,274.843 101.244,274.695 101.335 C 274.542 101.430,274.503 101.760,274.587 102.256 C 274.676 102.784,274.629 103.121,274.438 103.316 C 274.208 103.549,274.177 104.800,274.270 110.257 C 274.332 113.917,274.313 116.955,274.228 117.007 C 273.916 117.200,274.058 119.086,274.396 119.215 C 274.652 119.313,274.689 119.527,274.578 120.266 C 274.477 120.937,274.509 121.193,274.691 121.193 C 274.859 121.193,274.911 121.417,274.847 121.855 C 274.788 122.256,274.860 122.626,275.029 122.795 C 275.192 122.958,275.259 123.275,275.189 123.552 C 275.123 123.814,275.173 124.093,275.300 124.172 C 275.427 124.250,275.475 124.492,275.406 124.709 C 275.336 124.929,275.378 125.103,275.501 125.103 C 275.621 125.103,275.720 125.228,275.720 125.380 C 275.720 125.532,275.873 125.963,276.060 126.338 C 276.247 126.713,276.409 127.275,276.420 127.587 C 276.431 127.899,276.487 128.139,276.543 128.120 C 276.600 128.102,276.646 128.139,276.646 128.204 C 276.646 128.269,276.815 128.490,277.020 128.696 C 277.606 129.282,278.030 130.005,277.905 130.207 C 277.843 130.308,278.043 130.516,278.351 130.669 C 279.211 131.099,279.835 131.719,279.835 132.144 C 279.835 132.355,279.951 132.513,280.093 132.495 C 280.636 132.424,280.820 132.525,280.933 132.956 C 281.031 133.332,281.099 133.360,281.368 133.136 C 281.631 132.918,281.687 132.923,281.687 133.164 C 281.687 133.325,281.993 133.567,282.367 133.702 C 282.741 133.838,283.228 134.111,283.448 134.310 C 283.668 134.508,283.963 134.680,284.105 134.691 C 284.246 134.703,284.547 134.726,284.774 134.743 C 285.053 134.764,285.186 134.922,285.188 135.237 C 285.191 135.613,285.230 135.642,285.394 135.391 C 285.555 135.146,285.632 135.137,285.767 135.346 C 285.861 135.492,286.084 135.555,286.261 135.487 C 286.439 135.419,286.645 135.462,286.720 135.583 C 286.794 135.704,287.128 135.802,287.461 135.802 C 287.794 135.802,288.066 135.897,288.066 136.012 C 288.066 136.133,288.284 136.167,288.580 136.093 C 288.910 136.010,289.095 136.050,289.095 136.205 C 289.095 136.353,289.352 136.421,289.763 136.381 C 290.215 136.338,290.415 136.401,290.381 136.574 C 290.321 136.872,291.474 136.937,291.655 136.645 C 291.772 136.455,293.352 136.579,293.724 136.808 C 293.837 136.877,302.287 136.908,312.500 136.875 L 331.070 136.817 331.070 111.104 L 331.070 85.391 314.043 85.397 C 301.969 85.402,296.902 85.470,296.624 85.631 M264.557 95.525 C 264.522 97.137,264.494 95.818,264.494 92.593 C 264.494 89.367,264.522 88.048,264.557 89.660 C 264.592 91.273,264.592 93.912,264.557 95.525 M205.350 111.317 L 205.350 123.457 196.823 123.457 C 190.892 123.457,188.254 123.389,188.157 123.233 C 188.074 123.097,187.742 123.060,187.322 123.139 C 186.855 123.227,186.626 123.191,186.626 123.031 C 186.626 122.890,186.450 122.837,186.201 122.902 C 185.939 122.971,185.734 122.899,185.663 122.715 C 185.592 122.530,185.400 122.463,185.161 122.539 C 184.947 122.607,184.774 122.563,184.774 122.442 C 184.774 122.321,184.652 122.222,184.504 122.222 C 184.108 122.222,183.059 121.059,183.220 120.799 C 183.296 120.676,183.260 120.576,183.140 120.576 C 183.020 120.576,182.922 120.391,182.922 120.165 C 182.922 119.938,182.819 119.753,182.694 119.753 C 182.569 119.753,182.520 119.614,182.585 119.444 C 182.650 119.275,182.603 119.136,182.480 119.136 C 182.351 119.136,182.295 118.881,182.348 118.524 C 182.397 118.187,182.349 117.882,182.240 117.845 C 181.926 117.741,181.987 104.929,182.302 104.734 C 182.453 104.641,182.499 104.403,182.415 104.140 C 182.325 103.856,182.396 103.583,182.617 103.362 C 182.821 103.158,182.919 102.821,182.862 102.520 C 182.597 101.138,185.351 99.462,187.706 99.571 C 188.457 99.606,188.889 99.544,188.889 99.402 C 188.889 99.243,191.307 99.177,197.119 99.177 L 205.350 99.177 205.350 111.317 M314.506 111.317 L 314.506 123.354 305.980 123.408 C 301.095 123.438,297.374 123.382,297.267 123.275 C 297.165 123.173,296.719 123.138,296.277 123.197 C 295.753 123.268,295.473 123.224,295.473 123.072 C 295.473 122.944,295.318 122.840,295.128 122.840 C 294.517 122.840,293.416 122.354,293.416 122.084 C 293.416 121.937,293.281 121.875,293.107 121.942 C 292.893 122.024,292.798 121.928,292.798 121.627 C 292.798 121.379,292.666 121.193,292.490 121.193 C 292.215 121.193,292.148 121.072,292.195 120.660 C 292.202 120.593,292.040 120.416,291.835 120.265 C 291.561 120.065,291.466 119.739,291.481 119.049 C 291.491 118.531,291.423 118.107,291.329 118.107 C 291.235 118.107,291.218 117.537,291.291 116.840 C 291.381 115.980,291.354 115.616,291.208 115.706 C 290.620 116.070,290.487 107.279,291.072 106.694 C 291.324 106.442,291.370 106.149,291.268 105.463 C 291.185 104.910,291.216 104.512,291.349 104.430 C 291.468 104.356,291.511 104.078,291.444 103.811 C 291.334 103.376,291.838 101.917,292.191 101.646 C 292.265 101.590,292.434 101.336,292.568 101.083 C 292.701 100.829,293.039 100.565,293.319 100.495 C 293.598 100.424,293.827 100.291,293.827 100.197 C 293.827 99.999,294.643 99.693,294.995 99.759 C 295.128 99.785,295.295 99.710,295.367 99.594 C 295.448 99.463,295.929 99.433,296.617 99.514 C 297.399 99.606,297.737 99.574,297.737 99.409 C 297.737 99.234,299.913 99.186,306.121 99.226 L 314.506 99.280 314.506 111.317 " stroke="none" fill="#fbfbfc" fill-rule="evenodd"></path><path id="path1" d="M185.237 85.533 C 185.435 85.585,185.759 85.585,185.957 85.533 C 186.155 85.481,185.993 85.439,185.597 85.439 C 185.201 85.439,185.039 85.481,185.237 85.533 M293.918 85.577 C 293.981 85.680,294.218 85.715,294.445 85.656 C 295.011 85.508,294.960 85.391,294.329 85.391 C 294.040 85.391,293.855 85.475,293.918 85.577 M139.506 85.802 C 139.506 85.916,139.645 86.008,139.815 86.008 C 139.985 86.008,140.123 85.916,140.123 85.802 C 140.123 85.689,139.985 85.597,139.815 85.597 C 139.645 85.597,139.506 85.689,139.506 85.802 M291.358 85.802 C 291.358 85.916,291.497 86.008,291.667 86.008 C 291.836 86.008,291.975 85.916,291.975 85.802 C 291.975 85.689,291.836 85.597,291.667 85.597 C 291.497 85.597,291.358 85.689,291.358 85.802 M331.375 111.317 C 331.375 125.520,331.400 131.330,331.430 124.228 C 331.460 117.127,331.460 105.507,331.430 98.405 C 331.400 91.304,331.375 97.114,331.375 111.317 M143.004 86.626 C 143.004 86.739,143.143 86.831,143.313 86.831 C 143.483 86.831,143.621 86.739,143.621 86.626 C 143.621 86.512,143.483 86.420,143.313 86.420 C 143.143 86.420,143.004 86.512,143.004 86.626 M281.842 88.619 C 281.644 88.671,281.481 88.799,281.481 88.904 C 281.481 89.195,281.886 89.131,282.231 88.786 C 282.544 88.473,282.489 88.450,281.842 88.619 M148.202 89.442 C 148.393 89.634,148.619 89.721,148.703 89.637 C 148.787 89.553,148.720 89.398,148.554 89.292 C 148.053 88.976,147.830 89.071,148.202 89.442 M169.049 91.987 C 168.832 92.206,168.717 92.448,168.794 92.525 C 168.932 92.663,169.528 92.019,169.541 91.718 C 169.550 91.505,169.501 91.532,169.049 91.987 M264.095 99.383 C 264.025 99.496,264.158 99.588,264.391 99.588 C 264.624 99.588,264.815 99.496,264.815 99.383 C 264.815 99.270,264.681 99.177,264.518 99.177 C 264.355 99.177,264.165 99.270,264.095 99.383 M233.539 100.412 C 233.539 100.751,233.632 101.029,233.745 101.029 C 233.858 101.029,233.951 100.751,233.951 100.412 C 233.951 100.072,233.858 99.794,233.745 99.794 C 233.632 99.794,233.539 100.072,233.539 100.412 M153.498 100.823 C 153.498 101.049,153.591 101.235,153.704 101.235 C 153.817 101.235,153.909 101.049,153.909 100.823 C 153.909 100.597,153.817 100.412,153.704 100.412 C 153.591 100.412,153.498 100.597,153.498 100.823 M251.977 101.149 C 251.784 101.652,251.826 101.702,252.160 101.367 C 252.510 101.017,252.555 100.823,252.285 100.823 C 252.184 100.823,252.045 100.970,251.977 101.149 M291.770 102.778 C 291.770 102.948,291.862 103.086,291.975 103.086 C 292.088 103.086,292.181 102.948,292.181 102.778 C 292.181 102.608,292.088 102.469,291.975 102.469 C 291.862 102.469,291.770 102.608,291.770 102.778 M153.704 120.885 C 153.704 131.516,153.774 137.037,153.909 137.037 C 154.045 137.037,154.115 131.516,154.115 120.885 C 154.115 110.254,154.045 104.733,153.909 104.733 C 153.774 104.733,153.704 110.254,153.704 120.885 M233.380 120.278 L 233.427 135.905 233.535 120.473 C 233.594 111.986,233.573 104.953,233.488 104.846 C 233.403 104.738,233.354 111.683,233.380 120.278 M273.868 106.379 C 273.868 106.891,273.950 107.176,274.074 107.099 C 274.187 107.029,274.280 106.705,274.280 106.379 C 274.280 106.052,274.187 105.728,274.074 105.658 C 273.950 105.582,273.868 105.866,273.868 106.379 M182.099 106.379 C 182.099 106.605,182.191 106.790,182.305 106.790 C 182.418 106.790,182.510 106.605,182.510 106.379 C 182.510 106.152,182.418 105.967,182.305 105.967 C 182.191 105.967,182.099 106.152,182.099 106.379 M290.947 111.008 C 290.947 113.134,291.023 114.403,291.152 114.403 C 291.281 114.403,291.358 113.134,291.358 111.008 C 291.358 108.882,291.281 107.613,291.152 107.613 C 291.023 107.613,290.947 108.882,290.947 111.008 M273.868 116.140 C 273.868 116.656,273.961 117.078,274.074 117.078 C 274.187 117.078,274.280 116.713,274.280 116.267 C 274.280 115.821,274.187 115.399,274.074 115.329 C 273.948 115.252,273.868 115.567,273.868 116.140 M182.099 116.152 C 182.099 116.435,182.191 116.667,182.305 116.667 C 182.418 116.667,182.510 116.435,182.510 116.152 C 182.510 115.869,182.418 115.638,182.305 115.638 C 182.191 115.638,182.099 115.869,182.099 116.152 M291.770 119.856 C 291.770 120.026,291.862 120.165,291.975 120.165 C 292.088 120.165,292.181 120.026,292.181 119.856 C 292.181 119.686,292.088 119.547,291.975 119.547 C 291.862 119.547,291.770 119.686,291.770 119.856 M165.226 120.988 C 165.226 121.214,165.319 121.399,165.432 121.399 C 165.545 121.399,165.638 121.214,165.638 120.988 C 165.638 120.761,165.545 120.576,165.432 120.576 C 165.319 120.576,165.226 120.761,165.226 120.988 M274.691 123.354 C 274.691 123.524,274.784 123.663,274.897 123.663 C 275.010 123.663,275.103 123.524,275.103 123.354 C 275.103 123.184,275.010 123.045,274.897 123.045 C 274.784 123.045,274.691 123.184,274.691 123.354 M278.395 130.976 C 278.395 131.194,279.411 132.180,279.522 132.070 C 279.583 132.008,279.406 131.712,279.127 131.411 C 278.640 130.885,278.395 130.740,278.395 130.976 M284.362 135.185 C 284.362 135.298,284.501 135.391,284.671 135.391 C 284.841 135.391,284.979 135.298,284.979 135.185 C 284.979 135.072,284.841 134.979,284.671 134.979 C 284.501 134.979,284.362 135.072,284.362 135.185 M180.658 136.626 C 180.658 136.739,180.797 136.831,180.967 136.831 C 181.137 136.831,181.276 136.739,181.276 136.626 C 181.276 136.512,181.137 136.420,180.967 136.420 C 180.797 136.420,180.658 136.512,180.658 136.626 M291.564 136.831 C 291.564 136.944,291.754 137.037,291.987 137.037 C 292.220 137.037,292.354 136.944,292.284 136.831 C 292.214 136.718,292.023 136.626,291.860 136.626 C 291.697 136.626,291.564 136.718,291.564 136.831 M186.677 137.179 C 186.875 137.231,187.199 137.231,187.397 137.179 C 187.595 137.127,187.433 137.085,187.037 137.085 C 186.641 137.085,186.479 137.127,186.677 137.179 M295.628 137.182 C 295.882 137.231,296.299 137.231,296.553 137.182 C 296.808 137.133,296.600 137.093,296.091 137.093 C 295.581 137.093,295.373 137.133,295.628 137.182 " stroke="none" fill="#aac9ce" fill-rule="evenodd"></path><path id="path2" d="M68.519 111.089 C 68.519 134.333,68.550 136.799,68.844 136.912 C 69.373 137.115,85.355 137.056,85.482 136.851 C 85.661 136.561,85.627 85.504,85.447 85.444 C 85.360 85.415,85.312 96.965,85.341 111.111 L 85.394 136.831 77.162 136.831 L 68.930 136.831 68.928 136.060 C 68.928 135.635,68.928 124.061,68.930 110.340 C 68.932 93.714,68.864 85.391,68.726 85.391 C 68.588 85.391,68.519 93.962,68.519 111.089 M136.317 85.597 C 136.387 85.710,136.693 85.801,136.998 85.799 C 137.431 85.797,137.484 85.753,137.243 85.597 C 136.836 85.334,136.154 85.334,136.317 85.597 M186.214 85.597 C 185.777 85.737,185.831 85.765,186.574 85.782 C 187.055 85.793,187.449 85.710,187.449 85.597 C 187.449 85.360,186.954 85.360,186.214 85.597 M250.309 85.597 C 250.146 85.859,250.828 85.859,251.235 85.597 C 251.476 85.441,251.423 85.397,250.990 85.394 C 250.685 85.392,250.379 85.484,250.309 85.597 M264.262 85.797 C 264.330 86.245,264.609 86.621,264.609 86.265 C 264.609 86.142,264.665 85.895,264.734 85.716 C 264.816 85.503,264.745 85.391,264.529 85.391 C 264.318 85.391,264.222 85.536,264.262 85.797 M294.959 85.597 C 294.646 85.731,294.769 85.776,295.473 85.785 C 295.983 85.791,296.538 85.706,296.708 85.597 C 297.106 85.339,295.558 85.339,294.959 85.597 M331.070 111.110 L 331.070 136.829 313.735 136.883 L 296.399 136.937 313.837 136.987 L 331.276 137.037 331.276 111.214 C 331.276 97.011,331.229 85.391,331.173 85.391 C 331.116 85.391,331.070 96.964,331.070 111.110 M138.786 85.802 C 138.856 85.916,139.052 86.008,139.222 86.008 C 139.392 86.008,139.473 85.916,139.403 85.802 C 139.333 85.689,139.137 85.597,138.967 85.597 C 138.798 85.597,138.716 85.689,138.786 85.802 M183.025 85.802 C 182.955 85.916,183.083 86.008,183.309 86.008 C 183.535 86.008,183.778 85.916,183.848 85.802 C 183.918 85.689,183.790 85.597,183.563 85.597 C 183.337 85.597,183.095 85.689,183.025 85.802 M291.872 85.940 C 291.511 86.229,291.507 86.254,291.838 86.139 C 292.045 86.067,292.300 86.008,292.404 86.008 C 292.508 86.008,292.593 85.916,292.593 85.802 C 292.593 85.511,292.349 85.557,291.872 85.940 M140.582 86.047 C 140.627 86.181,140.774 86.328,140.908 86.373 C 141.058 86.423,141.104 86.329,141.028 86.128 C 140.884 85.754,140.459 85.676,140.582 86.047 M180.702 86.119 C 180.483 86.367,180.489 86.420,180.736 86.420 C 181.190 86.420,181.687 86.193,181.687 85.986 C 181.687 85.695,180.994 85.788,180.702 86.119 M246.134 86.119 C 245.915 86.367,245.922 86.420,246.168 86.420 C 246.622 86.420,247.119 86.193,247.119 85.986 C 247.119 85.695,246.426 85.788,246.134 86.119 M289.918 85.993 C 289.918 86.098,289.756 86.226,289.558 86.278 C 289.272 86.353,289.288 86.377,289.635 86.396 C 289.876 86.409,290.188 86.281,290.329 86.111 C 290.539 85.858,290.525 85.802,290.252 85.802 C 290.068 85.802,289.918 85.888,289.918 85.993 M142.815 86.579 C 142.806 86.723,143.036 86.932,143.326 87.042 C 143.990 87.295,144.089 87.294,143.930 87.037 C 143.860 86.924,143.631 86.831,143.421 86.831 C 143.210 86.831,142.992 86.716,142.935 86.574 C 142.853 86.372,142.827 86.373,142.815 86.579 M178.196 86.775 C 177.926 87.079,177.934 87.100,178.264 86.973 C 178.468 86.895,178.673 86.831,178.721 86.831 C 178.768 86.831,178.807 86.739,178.807 86.626 C 178.807 86.323,178.540 86.388,178.196 86.775 M264.494 92.593 C 264.494 95.818,264.522 97.137,264.557 95.525 C 264.592 93.912,264.592 91.273,264.557 89.660 C 264.522 88.048,264.494 89.367,264.494 92.593 M146.091 88.016 C 146.091 88.102,146.276 88.288,146.502 88.430 C 146.840 88.641,146.914 88.635,146.914 88.398 C 146.914 88.240,146.767 88.054,146.588 87.985 C 146.165 87.823,146.091 87.827,146.091 88.016 M174.486 88.062 C 174.486 88.173,174.254 88.322,173.971 88.393 C 173.688 88.464,173.457 88.607,173.457 88.711 C 173.457 88.815,173.729 88.759,174.061 88.587 C 174.712 88.250,175.057 87.860,174.704 87.860 C 174.584 87.860,174.486 87.951,174.486 88.062 M239.794 88.635 C 239.670 88.718,239.455 89.000,239.317 89.261 C 239.180 89.523,238.960 89.701,238.830 89.658 C 238.529 89.558,237.137 90.925,236.954 91.501 C 236.878 91.741,236.680 91.989,236.515 92.053 C 236.349 92.116,236.214 92.302,236.214 92.466 C 236.214 92.630,236.098 92.811,235.957 92.868 C 235.803 92.930,235.845 92.978,236.060 92.988 C 236.258 92.997,236.420 92.912,236.420 92.798 C 236.420 92.685,236.423 92.550,236.428 92.498 C 236.435 92.411,237.092 91.652,237.860 90.843 C 238.506 90.163,240.009 88.889,240.166 88.889 C 240.256 88.889,240.329 88.796,240.329 88.683 C 240.329 88.442,240.113 88.422,239.794 88.635 M147.437 88.875 C 147.296 89.102,147.621 89.348,147.811 89.158 C 148.006 88.962,147.970 88.683,147.749 88.683 C 147.642 88.683,147.502 88.769,147.437 88.875 M280.768 89.834 L 280.419 90.367 281.053 89.898 C 281.767 89.370,281.807 89.300,281.402 89.300 C 281.246 89.300,280.960 89.540,280.768 89.834 M148.765 90.177 C 149.162 90.545,149.833 91.255,150.257 91.756 C 150.682 92.257,151.029 92.551,151.029 92.411 C 151.029 92.270,150.761 91.929,150.434 91.654 C 150.107 91.379,149.783 90.945,149.714 90.690 C 149.642 90.421,149.265 90.076,148.817 89.868 L 148.045 89.509 148.765 90.177 M279.462 90.680 C 279.200 90.963,279.038 91.246,279.102 91.311 C 279.238 91.446,280.247 90.549,280.247 90.293 C 280.247 90.003,279.958 90.145,279.462 90.680 M169.084 92.453 C 168.773 92.708,168.519 93.021,168.519 93.149 C 168.519 93.277,168.403 93.428,168.261 93.485 C 168.060 93.566,168.061 93.592,168.268 93.605 C 168.413 93.614,168.592 93.463,168.666 93.270 C 168.741 93.076,169.039 92.709,169.329 92.453 C 170.012 91.850,169.821 91.851,169.084 92.453 M151.735 94.134 C 152.262 95.394,152.456 95.655,152.463 95.113 C 152.466 94.859,152.384 94.650,152.280 94.650 C 152.176 94.650,152.029 94.372,151.955 94.033 C 151.880 93.693,151.733 93.416,151.627 93.416 C 151.521 93.416,151.570 93.739,151.735 94.134 M235.528 93.553 C 235.331 93.749,235.359 94.033,235.575 94.033 C 235.676 94.033,235.812 93.894,235.877 93.724 C 235.997 93.411,235.778 93.303,235.528 93.553 M276.595 94.341 C 276.216 94.771,276.281 94.901,276.749 94.650 C 276.975 94.529,277.160 94.341,277.160 94.231 C 277.160 93.948,276.895 94.000,276.595 94.341 M167.557 94.810 C 167.425 94.894,167.261 95.240,167.193 95.578 C 167.076 96.157,167.082 96.164,167.288 95.690 C 167.408 95.413,167.607 95.066,167.729 94.918 C 167.978 94.619,167.918 94.580,167.557 94.810 M234.774 95.953 C 234.774 96.142,234.681 96.296,234.568 96.296 C 234.455 96.296,234.362 96.389,234.362 96.502 C 234.362 96.615,234.448 96.708,234.554 96.708 C 234.786 96.708,235.067 95.904,234.895 95.732 C 234.828 95.665,234.774 95.765,234.774 95.953 M275.926 96.073 C 275.926 96.290,275.831 96.515,275.715 96.572 C 275.599 96.630,275.613 96.656,275.747 96.630 C 276.049 96.572,276.405 95.679,276.125 95.679 C 276.016 95.679,275.926 95.856,275.926 96.073 M152.700 96.071 C 152.544 96.169,152.480 96.353,152.558 96.479 C 152.786 96.849,153.063 96.742,153.030 96.296 C 153.013 96.070,152.995 95.886,152.991 95.888 C 152.987 95.890,152.856 95.972,152.700 96.071 M234.065 98.729 C 233.980 99.105,233.962 99.463,234.024 99.525 C 234.179 99.679,234.424 98.640,234.310 98.311 C 234.260 98.165,234.149 98.353,234.065 98.729 M153.086 99.256 C 153.086 99.425,153.179 99.621,153.292 99.691 C 153.405 99.761,153.498 99.680,153.498 99.510 C 153.498 99.340,153.405 99.144,153.292 99.074 C 153.179 99.004,153.086 99.086,153.086 99.256 M188.889 99.383 C 188.889 99.496,189.022 99.588,189.185 99.588 C 189.348 99.588,189.539 99.496,189.609 99.383 C 189.679 99.270,189.546 99.177,189.313 99.177 C 189.080 99.177,188.889 99.270,188.889 99.383 M256.687 99.383 C 256.617 99.496,256.745 99.588,256.972 99.588 C 257.198 99.588,257.440 99.496,257.510 99.383 C 257.580 99.270,257.452 99.177,257.226 99.177 C 257.000 99.177,256.757 99.270,256.687 99.383 M297.737 99.383 C 297.737 99.620,298.231 99.620,298.971 99.383 C 299.408 99.243,299.354 99.215,298.611 99.197 C 298.130 99.186,297.737 99.270,297.737 99.383 M253.982 99.587 C 253.486 99.787,253.151 100.206,253.486 100.206 C 253.606 100.206,253.704 100.126,253.704 100.029 C 253.704 99.932,254.097 99.758,254.578 99.642 C 255.154 99.504,255.277 99.428,254.938 99.420 C 254.655 99.414,254.225 99.489,253.982 99.587 M184.722 100.118 C 183.969 100.526,184.007 100.631,184.824 100.397 C 185.191 100.292,185.515 100.206,185.544 100.206 C 185.573 100.206,185.597 100.113,185.597 100.000 C 185.597 99.725,185.398 99.751,184.722 100.118 M314.455 100.309 C 314.429 100.648,314.394 105.903,314.377 111.986 L 314.346 123.045 305.720 123.045 C 300.023 123.045,297.138 123.115,297.222 123.251 C 297.425 123.579,314.389 123.529,314.515 123.200 C 314.569 123.058,314.588 117.711,314.558 111.317 C 314.528 104.923,314.481 99.969,314.455 100.309 M233.951 100.686 C 233.951 101.101,233.858 101.440,233.745 101.440 C 233.632 101.440,233.539 101.672,233.539 101.955 C 233.539 102.238,233.625 102.469,233.730 102.469 C 233.950 102.469,234.271 100.251,234.078 100.059 C 234.008 99.989,233.951 100.271,233.951 100.686 M134.393 100.401 C 134.481 100.666,134.764 100.714,134.789 100.468 C 134.798 100.386,134.693 100.282,134.558 100.237 C 134.422 100.191,134.348 100.265,134.393 100.401 M292.850 100.808 C 292.241 101.480,292.077 101.722,291.711 102.500 C 291.307 103.360,291.271 103.576,291.564 103.395 C 291.677 103.325,291.770 103.088,291.770 102.869 C 291.770 102.649,291.862 102.469,291.975 102.469 C 292.088 102.469,292.181 102.353,292.181 102.211 C 292.181 102.068,292.505 101.654,292.901 101.291 C 293.297 100.927,293.621 100.581,293.621 100.521 C 293.621 100.275,293.187 100.437,292.850 100.808 M153.323 100.823 C 153.283 101.311,153.528 102.058,153.728 102.058 C 153.828 102.058,153.909 101.919,153.909 101.749 C 153.909 101.579,153.823 101.440,153.718 101.440 C 153.613 101.440,153.486 101.232,153.437 100.977 C 153.388 100.723,153.337 100.653,153.323 100.823 M251.653 101.221 C 251.393 101.708,251.386 101.852,251.622 101.852 C 251.722 101.852,251.848 101.620,251.902 101.337 C 252.020 100.720,251.941 100.683,251.653 101.221 M183.129 101.645 C 182.799 102.108,182.770 102.230,183.012 102.137 C 183.189 102.069,183.333 101.938,183.333 101.845 C 183.333 101.752,183.479 101.530,183.657 101.352 C 183.835 101.174,183.887 101.029,183.774 101.029 C 183.660 101.029,183.370 101.306,183.129 101.645 M165.484 101.761 C 165.178 102.093,165.142 102.675,165.428 102.675 C 165.626 102.675,165.966 101.696,165.817 101.554 C 165.775 101.514,165.625 101.607,165.484 101.761 M251.094 102.418 C 251.023 102.616,250.928 102.847,250.882 102.932 C 250.836 103.017,250.897 103.086,251.017 103.086 C 251.137 103.086,251.235 102.909,251.235 102.692 C 251.235 102.475,251.350 102.251,251.492 102.194 C 251.693 102.113,251.692 102.087,251.485 102.074 C 251.340 102.065,251.164 102.220,251.094 102.418 M274.486 102.538 C 274.486 102.726,274.393 102.881,274.280 102.881 C 274.167 102.881,274.074 103.020,274.074 103.189 C 274.074 103.359,274.165 103.498,274.276 103.498 C 274.514 103.498,274.798 102.508,274.613 102.322 C 274.543 102.252,274.486 102.349,274.486 102.538 M250.527 104.242 C 250.452 104.539,250.442 104.832,250.504 104.894 C 250.566 104.956,250.617 104.853,250.617 104.664 C 250.617 104.475,250.710 104.321,250.823 104.321 C 250.936 104.321,251.029 104.182,251.029 104.012 C 251.029 103.501,250.672 103.665,250.527 104.242 M181.983 105.226 C 181.915 105.497,181.900 105.937,181.951 106.203 C 182.035 106.644,182.045 106.637,182.071 106.121 C 182.086 105.810,182.191 105.556,182.305 105.556 C 182.418 105.556,182.510 105.370,182.510 105.144 C 182.510 104.570,182.133 104.629,181.983 105.226 M165.175 105.057 C 165.090 105.143,165.021 105.401,165.021 105.631 C 165.021 105.934,165.083 105.987,165.246 105.824 C 165.369 105.701,165.439 105.442,165.400 105.250 C 165.361 105.058,165.260 104.971,165.175 105.057 M250.363 106.379 C 250.280 106.662,250.210 113.628,250.209 121.860 L 250.206 136.827 241.924 136.883 L 233.642 136.939 241.872 136.985 C 246.399 137.010,250.219 136.957,250.361 136.867 C 250.566 136.737,250.609 133.483,250.567 121.283 C 250.538 112.803,250.446 106.096,250.363 106.379 M290.866 106.910 C 290.678 107.398,290.744 115.060,290.939 115.535 C 291.105 115.939,291.111 115.939,291.270 115.547 C 291.373 115.294,291.343 115.119,291.189 115.067 C 290.876 114.963,290.839 107.407,291.152 107.407 C 291.265 107.407,291.358 107.222,291.358 106.996 C 291.358 106.505,291.042 106.450,290.866 106.910 M274.072 111.111 C 274.014 113.205,273.991 114.956,274.020 115.003 C 274.231 115.339,274.282 114.395,274.233 111.089 L 274.177 107.305 274.072 111.111 M136.626 122.393 L 136.626 136.556 137.088 136.797 C 137.612 137.070,153.941 137.254,153.775 136.986 C 153.722 136.901,149.981 136.831,145.461 136.831 L 137.243 136.831 137.243 122.856 C 137.243 109.363,137.209 108.230,136.809 108.230 C 136.703 108.230,136.626 114.220,136.626 122.393 M181.930 116.255 C 181.892 117.124,182.080 117.901,182.329 117.901 C 182.428 117.901,182.510 117.716,182.510 117.490 C 182.510 117.263,182.423 117.078,182.317 117.078 C 182.211 117.078,182.087 116.731,182.043 116.307 L 181.962 115.535 181.930 116.255 M165.021 117.169 C 165.021 117.332,165.113 117.523,165.226 117.593 C 165.340 117.663,165.432 117.529,165.432 117.296 C 165.432 117.063,165.340 116.872,165.226 116.872 C 165.113 116.872,165.021 117.006,165.021 117.169 M274.074 119.324 C 274.074 119.447,274.160 119.547,274.265 119.547 C 274.370 119.547,274.502 119.709,274.560 119.907 C 274.623 120.124,274.649 120.069,274.626 119.769 C 274.590 119.288,274.074 118.873,274.074 119.324 M291.460 119.573 C 291.540 119.842,291.758 120.181,291.945 120.328 C 292.131 120.474,292.254 120.638,292.217 120.693 C 292.180 120.748,292.196 120.906,292.252 121.044 C 292.308 121.183,292.362 121.085,292.371 120.827 C 292.380 120.569,292.248 120.304,292.078 120.239 C 291.908 120.174,291.770 119.951,291.770 119.743 C 291.770 119.536,291.667 119.302,291.542 119.225 C 291.386 119.129,291.360 119.239,291.460 119.573 M165.321 119.620 C 165.234 119.835,165.260 120.058,165.381 120.134 C 165.500 120.207,165.639 120.499,165.692 120.782 C 165.777 121.241,165.789 121.230,165.801 120.679 C 165.821 119.756,165.529 119.109,165.321 119.620 M183.128 120.925 C 183.128 121.176,184.223 122.222,184.486 122.222 C 184.626 122.222,184.781 122.338,184.831 122.479 C 184.882 122.621,184.993 122.672,185.079 122.592 C 185.164 122.513,185.080 122.293,184.891 122.105 C 184.703 121.916,184.491 121.819,184.420 121.890 C 184.245 122.065,183.539 121.400,183.539 121.059 C 183.539 120.906,183.447 120.782,183.333 120.782 C 183.220 120.782,183.128 120.846,183.128 120.925 M294.093 122.557 C 294.522 122.741,294.931 122.833,295.002 122.762 C 295.195 122.569,295.039 122.495,294.136 122.353 L 293.313 122.224 294.093 122.557 M274.691 122.751 C 274.691 122.816,274.830 123.008,275.000 123.178 C 275.335 123.513,275.377 123.463,275.184 122.959 C 275.066 122.653,274.691 122.495,274.691 122.751 M188.169 123.251 C 188.250 123.383,191.360 123.457,196.823 123.457 C 202.370 123.457,205.350 123.385,205.350 123.251 C 205.350 123.117,202.328 123.045,196.696 123.045 C 190.979 123.045,188.085 123.115,188.169 123.251 M166.049 124.691 C 166.049 124.805,166.130 124.897,166.229 124.897 C 166.328 124.897,166.479 125.198,166.565 125.566 C 166.656 125.957,166.756 126.099,166.805 125.910 C 166.915 125.487,166.532 124.486,166.260 124.486 C 166.144 124.486,166.049 124.578,166.049 124.691 M275.514 125.901 C 275.514 126.028,275.607 126.132,275.720 126.132 C 275.833 126.132,275.926 126.317,275.926 126.543 C 275.926 126.770,276.010 126.955,276.112 126.955 C 276.373 126.955,276.147 126.195,275.801 125.907 C 275.593 125.735,275.514 125.733,275.514 125.901 M167.224 127.572 C 167.284 127.798,167.420 127.984,167.528 127.984 C 167.635 127.984,167.668 128.158,167.600 128.371 C 167.483 128.741,168.016 129.172,168.274 128.914 C 168.333 128.855,168.273 128.807,168.141 128.807 C 168.009 128.807,167.923 128.737,167.950 128.652 C 168.026 128.415,167.461 127.160,167.278 127.160 C 167.189 127.160,167.165 127.346,167.224 127.572 M276.287 127.914 C 276.429 127.972,276.493 128.103,276.429 128.207 C 276.365 128.310,276.469 128.395,276.659 128.395 C 276.943 128.395,276.959 128.340,276.749 128.086 C 276.608 127.917,276.388 127.785,276.261 127.794 C 276.116 127.804,276.126 127.850,276.287 127.914 M276.749 128.799 C 276.749 128.909,276.934 129.097,277.160 129.218 C 277.387 129.339,277.572 129.620,277.572 129.843 C 277.572 130.065,277.665 130.247,277.778 130.247 C 278.088 130.247,278.030 130.032,277.521 129.284 C 277.063 128.611,276.749 128.414,276.749 128.799 M168.828 130.245 C 168.742 130.385,168.858 130.526,169.115 130.593 C 169.353 130.656,169.547 130.835,169.547 130.991 C 169.547 131.148,169.640 131.276,169.753 131.276 C 170.098 131.276,169.985 130.960,169.466 130.473 C 169.129 130.156,168.928 130.084,168.828 130.245 M278.813 131.019 C 278.817 131.103,279.071 131.351,279.379 131.568 L 279.938 131.963 279.439 131.414 C 278.915 130.836,278.802 130.765,278.813 131.019 M170.209 131.719 C 170.253 131.850,170.510 132.038,170.780 132.138 C 171.263 132.317,171.265 132.313,170.892 131.901 C 170.479 131.444,170.083 131.339,170.209 131.719 M171.730 133.007 C 171.798 133.187,171.945 133.333,172.056 133.333 C 172.326 133.333,172.157 132.866,171.849 132.763 C 171.699 132.713,171.653 132.807,171.730 133.007 M172.634 133.779 C 172.634 133.911,172.695 133.958,172.769 133.884 C 172.844 133.809,173.006 133.827,173.129 133.924 C 173.253 134.021,173.632 134.159,173.971 134.231 L 174.588 134.363 173.868 133.959 C 173.039 133.496,172.634 133.436,172.634 133.779 M281.893 133.706 C 281.893 133.798,282.217 134.001,282.613 134.156 C 283.009 134.312,283.333 134.514,283.333 134.606 C 283.333 134.698,283.426 134.774,283.539 134.774 C 283.978 134.774,283.709 134.418,282.945 133.989 C 282.076 133.500,281.893 133.451,281.893 133.706 M284.362 134.813 C 284.645 134.955,284.945 135.166,285.028 135.282 C 285.115 135.405,285.180 135.342,285.182 135.134 C 285.184 134.936,285.054 134.774,284.893 134.774 C 284.733 134.774,284.432 134.725,284.225 134.664 C 284.017 134.604,284.079 134.671,284.362 134.813 M176.440 135.391 C 176.370 135.504,176.509 135.597,176.749 135.597 C 176.989 135.597,177.128 135.504,177.058 135.391 C 176.988 135.278,176.849 135.185,176.749 135.185 C 176.649 135.185,176.510 135.278,176.440 135.391 M178.447 135.739 C 178.645 135.790,178.807 135.918,178.807 136.023 C 178.807 136.128,178.969 136.211,179.167 136.207 C 179.492 136.202,179.489 136.172,179.127 135.899 C 178.908 135.733,178.584 135.607,178.407 135.621 C 178.158 135.639,178.167 135.665,178.447 135.739 M183.951 136.831 C 183.951 136.944,184.182 137.037,184.465 137.037 C 184.748 137.037,184.979 136.944,184.979 136.831 C 184.979 136.718,184.748 136.626,184.465 136.626 C 184.182 136.626,183.951 136.718,183.951 136.831 M292.593 136.831 C 292.593 136.944,292.876 137.037,293.222 137.037 C 293.589 137.037,293.798 136.951,293.724 136.831 C 293.654 136.718,293.371 136.626,293.095 136.626 C 292.819 136.626,292.593 136.718,292.593 136.831 M98.354 136.986 C 98.354 137.070,102.243 137.140,106.996 137.140 C 111.749 137.140,115.638 137.070,115.638 136.986 C 115.638 136.901,111.749 136.831,106.996 136.831 C 102.243 136.831,98.354 136.901,98.354 136.986 M196.142 136.986 C 200.980 137.016,208.897 137.016,213.735 136.986 C 218.573 136.955,214.614 136.930,204.938 136.930 C 195.262 136.930,191.304 136.955,196.142 136.986 " stroke="none" fill="#cce1e7" fill-rule="evenodd"></path><path id="path3" d="M85.696 111.008 C 85.696 124.702,85.721 130.334,85.751 123.524 C 85.781 116.714,85.781 105.511,85.751 98.627 C 85.721 91.743,85.696 97.315,85.696 111.008 M171.742 89.438 C 171.492 89.688,171.600 89.907,171.914 89.786 C 172.083 89.721,172.222 89.585,172.222 89.484 C 172.222 89.268,171.939 89.241,171.742 89.438 M149.794 90.921 C 149.794 91.021,149.926 91.211,150.087 91.345 C 150.327 91.544,150.359 91.511,150.268 91.164 C 150.160 90.750,149.794 90.563,149.794 90.921 M169.904 91.152 C 169.710 91.379,169.605 91.564,169.671 91.564 C 169.737 91.564,170.026 91.379,170.314 91.152 C 170.625 90.908,170.720 90.741,170.547 90.741 C 170.387 90.741,170.098 90.926,169.904 91.152 M115.947 99.371 C 115.720 99.461,118.845 99.550,122.891 99.568 C 127.830 99.591,130.247 99.532,130.247 99.389 C 130.247 99.134,116.582 99.116,115.947 99.371 M189.602 99.395 C 189.508 99.547,191.831 99.598,197.305 99.565 C 201.617 99.539,205.144 99.441,205.144 99.347 C 205.144 99.084,189.764 99.132,189.602 99.395 M257.507 99.388 C 257.419 99.530,258.466 99.593,260.682 99.578 C 262.500 99.566,264.040 99.470,264.105 99.366 C 264.174 99.254,262.882 99.177,260.930 99.177 C 258.898 99.177,257.587 99.258,257.507 99.388 M298.971 99.390 C 298.680 99.487,301.643 99.552,305.813 99.541 C 309.859 99.529,313.169 99.443,313.169 99.348 C 313.169 99.125,299.646 99.165,298.971 99.390 M314.232 100.116 C 314.206 100.505,314.223 100.823,314.271 100.823 C 314.417 100.823,314.548 99.575,314.410 99.490 C 314.338 99.446,314.258 99.727,314.232 100.116 M314.292 109.774 C 314.292 114.640,314.319 116.601,314.352 114.132 C 314.385 111.663,314.384 107.682,314.352 105.284 C 314.319 102.887,314.292 104.907,314.292 109.774 M165.171 104.445 C 165.088 104.528,165.021 104.737,165.021 104.911 C 165.021 105.142,165.081 105.165,165.249 104.997 C 165.375 104.872,165.443 104.662,165.400 104.532 C 165.356 104.402,165.253 104.363,165.171 104.445 M274.005 107.133 C 273.930 107.209,273.887 108.852,273.910 110.785 L 273.952 114.300 274.065 110.700 C 274.189 106.701,274.193 106.945,274.005 107.133 M233.589 122.274 L 233.539 137.243 234.311 137.210 C 235.068 137.178,235.070 137.175,234.415 137.094 L 233.748 137.011 233.693 122.158 L 233.639 107.305 233.589 122.274 M136.979 136.937 C 137.358 137.203,138.426 137.240,144.277 137.191 L 151.132 137.134 144.199 137.086 C 139.853 137.055,137.220 136.960,137.140 136.831 C 137.070 136.718,136.905 136.626,136.773 136.626 C 136.642 136.626,136.734 136.766,136.979 136.937 M183.230 136.831 C 183.300 136.944,183.491 137.037,183.654 137.037 C 183.817 137.037,183.951 136.944,183.951 136.831 C 183.951 136.718,183.760 136.626,183.527 136.626 C 183.294 136.626,183.161 136.718,183.230 136.831 M73.714 137.191 C 75.270 137.226,77.816 137.226,79.372 137.191 C 80.928 137.156,79.655 137.127,76.543 137.127 C 73.431 137.127,72.158 137.156,73.714 137.191 M104.180 137.191 C 106.082 137.225,109.138 137.225,110.970 137.191 C 112.802 137.157,111.245 137.129,107.510 137.129 C 103.776 137.129,102.277 137.157,104.180 137.191 M192.142 137.191 C 193.875 137.225,196.653 137.225,198.315 137.191 C 199.977 137.156,198.560 137.128,195.165 137.128 C 191.770 137.128,190.410 137.157,192.142 137.191 M207.370 137.191 C 209.555 137.224,213.074 137.224,215.188 137.191 C 217.303 137.158,215.514 137.130,211.214 137.130 C 206.914 137.130,205.184 137.158,207.370 137.191 M235.959 137.183 C 236.215 137.232,236.586 137.230,236.782 137.178 C 236.979 137.127,236.770 137.087,236.317 137.089 C 235.864 137.091,235.703 137.133,235.959 137.183 M239.455 137.190 C 240.388 137.228,241.916 137.228,242.850 137.190 C 243.783 137.152,243.020 137.121,241.152 137.121 C 239.285 137.121,238.521 137.152,239.455 137.190 M304.990 137.191 C 309.488 137.222,316.849 137.222,321.348 137.191 C 325.846 137.160,322.166 137.135,313.169 137.135 C 304.172 137.135,300.491 137.160,304.990 137.191 " stroke="none" fill="#bcd4d4" fill-rule="evenodd"></path><path id="path4" d="M311.062 99.528 C 311.318 99.577,311.688 99.576,311.885 99.524 C 312.082 99.473,311.872 99.432,311.420 99.435 C 310.967 99.437,310.806 99.479,311.062 99.528 M136.420 105.041 C 136.420 105.211,136.512 105.350,136.626 105.350 C 136.739 105.350,136.831 105.211,136.831 105.041 C 136.831 104.871,136.739 104.733,136.626 104.733 C 136.512 104.733,136.420 104.871,136.420 105.041 M82.973 137.184 C 83.284 137.232,83.794 137.232,84.105 137.184 C 84.416 137.137,84.162 137.099,83.539 137.099 C 82.917 137.099,82.662 137.137,82.973 137.184 M151.598 137.186 C 151.968 137.232,152.524 137.231,152.833 137.184 C 153.142 137.137,152.840 137.100,152.160 137.101 C 151.481 137.102,151.229 137.140,151.598 137.186 M188.017 137.183 C 188.273 137.232,188.643 137.230,188.840 137.178 C 189.037 137.127,188.827 137.087,188.374 137.089 C 187.922 137.091,187.761 137.133,188.017 137.183 M201.804 137.186 C 202.174 137.232,202.729 137.231,203.039 137.184 C 203.348 137.137,203.045 137.100,202.366 137.101 C 201.687 137.102,201.434 137.140,201.804 137.186 M219.187 137.179 C 219.385 137.231,219.709 137.231,219.907 137.179 C 220.105 137.127,219.943 137.085,219.547 137.085 C 219.151 137.085,218.989 137.127,219.187 137.179 M221.144 137.183 C 221.400 137.232,221.771 137.230,221.967 137.178 C 222.164 137.127,221.955 137.087,221.502 137.089 C 221.049 137.091,220.888 137.133,221.144 137.183 M245.730 137.190 C 246.494 137.229,247.744 137.229,248.508 137.190 C 249.272 137.150,248.647 137.118,247.119 137.118 C 245.592 137.118,244.967 137.150,245.730 137.190 M329.786 137.183 C 330.042 137.232,330.413 137.230,330.609 137.178 C 330.806 137.127,330.597 137.087,330.144 137.089 C 329.691 137.091,329.530 137.133,329.786 137.183 " stroke="none" fill="#bdccd4" fill-rule="evenodd"></path></g></svg>