<?xml version="1.0" standalone="no"?>
<!DOCTYPE svg PUBLIC "-//W3C//DTD SVG 20010904//EN"
 "http://www.w3.org/TR/2001/REC-SVG-20010904/DTD/svg10.dtd">
<svg version="1.0" xmlns="http://www.w3.org/2000/svg"
 width="344.000000pt" height="344.000000pt" viewBox="0 0 344.000000 344.000000"
 preserveAspectRatio="xMidYMid meet">
<metadata>
Created by potrace 1.16, written by Peter Selinger 2001-2019
</metadata>
<g transform="translate(0.000000,344.000000) scale(0.100000,-0.100000)"
fill="#FFFFFF" stroke="none">
<path d="M2508 3157 c-35 -16 -867 -1214 -879 -1265 -11 -48 6 -136 37 -201
54 -110 218 -253 367 -321 131 -59 291 -80 336 -43 12 10 226 404 476 876 333
627 455 867 455 891 0 21 -8 40 -21 52 -20 18 -43 19 -383 21 -267 2 -368 -1
-388 -10z"/>
<path d="M1400 1786 c-102 -35 -184 -84 -256 -149 -130 -119 -209 -263 -299
-547 -172 -539 -226 -649 -388 -796 -57 -51 -238 -154 -272 -154 -20 0 -55
-49 -55 -76 0 -13 10 -34 21 -45 22 -22 25 -22 338 -16 439 8 708 38 971 108
249 66 421 160 561 306 170 177 246 365 293 726 l5 37 -45 0 c-175 0 -436 127
-594 289 -89 92 -143 179 -167 273 -12 47 -22 68 -33 68 -8 0 -44 -11 -80 -24z"/>
</g>
</svg>
