<?xml version="1.0" standalone="no"?>
<!DOCTYPE svg PUBLIC "-//W3C//DTD SVG 20010904//EN"
 "http://www.w3.org/TR/2001/REC-SVG-20010904/DTD/svg10.dtd">
<svg version="1.0" xmlns="http://www.w3.org/2000/svg"
 width="344.000000pt" height="344.000000pt" viewBox="0 0 344.000000 344.000000"
 preserveAspectRatio="xMidYMid meet">
<metadata>
Created by potrace 1.16, written by Peter Selinger 2001-2019
</metadata>
<g transform="translate(0.000000,344.000000) scale(0.100000,-0.100000)"
fill="#FFFFFF" stroke="none">
<path d="M1487 2992 c-125 -125 -227 -230 -227 -235 0 -4 207 -7 460 -7 253 0
460 3 460 8 0 8 -452 462 -460 462 -3 0 -108 -102 -233 -228z"/>
<path d="M1260 2240 l0 -290 -170 0 -170 0 0 115 0 115 -120 0 -120 0 0 -55 0
-55 -110 0 -110 0 0 55 0 55 -120 0 -120 0 0 -345 0 -345 115 -57 115 -58 0
-462 0 -463 464 0 464 0 4 217 c3 214 4 219 31 274 32 67 109 142 175 172 67
31 197 31 264 0 66 -30 143 -105 175 -172 27 -55 28 -60 31 -274 l4 -217 464
0 464 0 0 463 0 462 115 58 115 57 0 345 0 345 -120 0 -120 0 0 -55 0 -55
-110 0 -110 0 0 55 0 55 -120 0 -120 0 0 -115 0 -115 -170 0 -170 0 0 290 0
290 -460 0 -460 0 0 -290z m-291 -1115 c48 -24 61 -68 61 -199 l0 -116 -110 0
-110 0 0 131 0 131 34 34 c38 38 77 44 125 19z m1627 -19 l34 -34 0 -131 0
-131 -110 0 -110 0 0 116 c0 129 13 174 59 199 46 25 89 19 127 -19z"/>
</g>
</svg>
