<?xml version="1.0" standalone="no"?>
<!DOCTYPE svg PUBLIC "-//W3C//DTD SVG 20010904//EN"
 "http://www.w3.org/TR/2001/REC-SVG-20010904/DTD/svg10.dtd">
<svg version="1.0" xmlns="http://www.w3.org/2000/svg"
 width="844.000000pt" height="844.000000pt" viewBox="0 0 344.000000 344.000000"
 preserveAspectRatio="xMidYMid meet">
<metadata>
Created by potrace 1.16, written by Peter Selinger 2001-2019
</metadata>
<g transform="translate(0.000000,344.000000) scale(0.100000,-0.100000)"
fill="#FFFFFF" stroke="none">
<path d="M2985 3093 c-420 -36 -875 -187 -1239 -410 -193 -119 -450 -330 -547
-450 l-43 -53 -105 0 c-190 0 -297 -37 -387 -131 -92 -98 -169 -227 -237 -394
-46 -114 -94 -271 -86 -279 3 -3 128 13 279 34 151 22 278 40 283 40 4 0 7
-44 7 -98 l0 -97 173 -173 172 -172 98 0 c53 0 97 -4 97 -9 0 -7 -38 -276 -75
-523 -7 -47 -6 -47 117 -9 237 73 429 175 557 295 94 90 131 197 131 387 l0
105 53 43 c28 23 88 81 132 129 395 429 650 991 720 1589 8 70 15 140 15 155
0 30 -3 31 -115 21z m-704 -721 c168 -87 155 -325 -21 -400 -138 -58 -301 51
-302 202 -1 173 170 278 323 198z"/>
<path d="M755 1121 c-114 -65 -185 -247 -185 -472 l0 -79 79 0 c159 0 313 40
401 105 44 32 100 115 100 147 0 14 -40 58 -52 58 -3 0 -20 -14 -38 -30 -44
-41 -127 -64 -199 -56 -30 4 -56 8 -58 10 -2 1 -6 29 -9 62 -8 76 7 131 52
190 l35 46 -22 24 c-29 31 -43 30 -104 -5z"/>
</g>
</svg>
