<svg id="svg" xmlns="http://www.w3.org/2000/svg" xmlns:xlink="http://www.w3.org/1999/xlink" width="400" height="293.7269372693727" viewBox="0, 0, 400,293.7269372693727" version="1.1"><g id="svgg"><path id="path0" d="M204.843 54.310 C 204.288 54.537,202.905 55.285,201.770 55.972 C 200.635 56.660,199.111 57.507,198.384 57.855 C 197.656 58.203,196.532 58.809,195.885 59.200 C 195.239 59.592,193.519 60.525,192.065 61.273 C 190.610 62.021,188.824 63.018,188.097 63.488 C 187.370 63.958,186.312 64.544,185.746 64.791 C 185.180 65.038,184.519 65.375,184.276 65.541 C 184.034 65.706,183.305 66.086,182.656 66.385 C 182.007 66.684,181.296 67.146,181.077 67.410 C 180.857 67.675,180.514 67.891,180.314 67.891 C 180.114 67.891,179.463 68.222,178.867 68.626 C 178.272 69.030,177.602 69.361,177.379 69.361 C 177.156 69.361,176.591 69.683,176.123 70.076 C 175.656 70.470,174.928 70.879,174.506 70.985 C 174.084 71.090,173.510 71.430,173.231 71.738 C 172.952 72.047,172.578 72.301,172.401 72.302 C 172.224 72.303,171.683 72.520,171.198 72.784 C 170.713 73.048,169.721 73.580,168.993 73.966 C 168.266 74.351,167.076 75.058,166.348 75.536 C 165.621 76.014,164.827 76.493,164.585 76.600 C 162.868 77.360,162.243 77.672,161.205 78.285 C 159.754 79.143,158.048 80.088,155.171 81.627 C 153.953 82.278,152.447 83.157,151.823 83.580 C 151.200 84.004,150.527 84.350,150.329 84.350 C 150.131 84.350,149.654 84.595,149.268 84.895 C 148.883 85.195,148.071 85.602,147.465 85.799 C 146.859 85.997,146.363 86.270,146.363 86.406 C 146.363 86.644,145.295 87.279,143.130 88.330 C 142.564 88.605,141.903 88.949,141.661 89.095 C 141.418 89.241,140.663 89.626,139.983 89.950 C 139.302 90.273,138.660 90.678,138.554 90.848 C 138.449 91.019,137.815 91.410,137.146 91.718 C 136.477 92.026,135.731 92.408,135.489 92.568 C 135.246 92.728,134.585 93.061,134.019 93.307 C 133.453 93.554,132.395 94.142,131.668 94.614 C 130.516 95.362,128.240 96.598,123.880 98.847 C 123.233 99.180,122.635 99.551,122.551 99.671 C 122.467 99.791,121.806 100.161,121.082 100.492 C 120.357 100.824,119.500 101.259,119.177 101.460 C 117.210 102.683,115.579 103.593,112.711 105.067 C 110.933 105.982,109.205 106.985,108.872 107.296 C 108.538 107.607,108.068 107.862,107.827 107.862 C 107.585 107.862,106.940 108.193,106.392 108.597 C 105.845 109.001,105.158 109.331,104.866 109.331 C 104.574 109.331,104.098 109.569,103.808 109.858 C 103.518 110.148,102.758 110.652,102.118 110.978 C 99.660 112.231,95.649 114.414,95.311 114.683 C 95.116 114.838,94.521 115.194,93.988 115.474 C 91.079 117.003,88.229 118.573,87.583 119.003 C 87.179 119.271,85.818 120.016,84.558 120.657 C 83.299 121.298,81.646 122.181,80.885 122.619 C 80.123 123.057,78.971 123.695,78.325 124.038 C 77.678 124.381,76.620 124.965,75.974 125.335 C 75.327 125.705,73.963 126.485,72.943 127.069 C 71.923 127.652,70.534 128.401,69.857 128.732 C 69.180 129.064,68.097 129.661,67.450 130.060 C 66.804 130.458,65.718 131.053,65.038 131.382 C 64.358 131.710,63.728 132.097,63.638 132.243 C 63.548 132.388,62.980 132.665,62.377 132.858 C 61.773 133.052,61.014 133.445,60.691 133.733 C 60.367 134.021,59.640 134.475,59.074 134.741 C 58.508 135.008,57.649 135.458,57.164 135.741 C 56.679 136.024,55.489 136.687,54.519 137.213 C 53.549 137.740,52.226 138.492,51.580 138.885 C 50.933 139.278,49.941 139.802,49.375 140.049 C 48.810 140.297,48.148 140.624,47.906 140.776 C 47.485 141.041,42.655 143.773,41.734 144.268 C 41.492 144.398,40.896 144.720,40.411 144.983 C 39.927 145.247,39.067 145.695,38.501 145.980 C 37.935 146.264,37.099 146.797,36.642 147.165 C 36.185 147.532,35.566 147.832,35.267 147.832 C 34.967 147.832,34.520 148.035,34.272 148.283 C 34.025 148.530,33.453 148.895,33.002 149.094 C 31.967 149.550,29.710 151.142,29.695 151.427 C 29.689 151.545,30.180 151.917,30.786 152.255 C 31.392 152.592,32.417 153.184,33.064 153.571 C 33.711 153.958,35.496 154.904,37.032 155.673 C 38.567 156.442,40.551 157.553,41.440 158.141 C 42.329 158.730,43.387 159.314,43.791 159.439 C 44.195 159.564,44.857 159.886,45.261 160.156 C 45.665 160.425,46.326 160.804,46.730 160.997 C 47.134 161.190,48.126 161.740,48.935 162.220 C 50.323 163.043,51.615 163.719,52.608 164.142 C 58.580 166.686,58.479 166.404,58.483 180.459 L 58.486 191.189 57.706 192.031 C 57.276 192.494,56.357 193.124,55.664 193.431 C 54.084 194.130,52.668 195.528,51.991 197.058 C 50.738 199.892,51.040 208.484,52.501 211.573 C 53.365 213.398,53.302 215.426,52.333 217.043 C 52.041 217.530,51.711 218.325,51.600 218.810 C 51.489 219.295,51.161 220.220,50.872 220.867 C 50.582 221.514,49.982 223.035,49.539 224.247 C 49.096 225.459,48.481 226.980,48.173 227.627 C 47.607 228.814,47.241 229.781,45.960 233.478 C 45.572 234.595,45.138 235.653,44.995 235.829 C 44.458 236.489,44.089 238.445,44.424 238.849 C 44.824 239.332,77.861 239.426,78.756 238.947 C 79.278 238.668,79.277 238.623,78.737 237.562 C 78.429 236.960,78.178 236.151,78.178 235.766 C 78.178 235.380,77.905 234.682,77.572 234.214 C 77.239 233.746,76.891 232.866,76.798 232.258 C 76.706 231.651,76.378 230.875,76.070 230.534 C 75.762 230.194,75.428 229.400,75.327 228.771 C 75.227 228.142,74.965 227.347,74.744 227.005 C 74.523 226.664,74.030 225.474,73.648 224.360 C 73.266 223.247,72.659 221.609,72.298 220.720 C 71.400 218.505,69.941 214.530,69.760 213.805 C 69.667 213.432,69.839 213.003,70.221 212.657 C 70.556 212.354,70.830 211.959,70.830 211.780 C 70.830 211.600,71.128 210.926,71.492 210.282 C 72.452 208.582,72.487 201.952,71.543 200.588 C 71.207 200.103,70.493 199.045,69.955 198.237 C 69.418 197.428,68.827 196.635,68.643 196.473 C 66.151 194.283,65.862 192.808,65.847 182.191 C 65.831 171.693,66.143 170.970,69.562 173.572 C 70.076 173.963,70.608 174.284,70.742 174.284 C 70.877 174.284,71.464 174.607,72.047 175.003 C 72.629 175.399,73.448 175.809,73.866 175.914 C 74.285 176.019,74.775 176.283,74.956 176.502 C 75.138 176.720,75.771 177.054,76.364 177.245 C 76.958 177.435,77.641 177.754,77.884 177.953 C 78.126 178.152,79.184 178.755,80.235 179.293 C 81.286 179.831,82.410 180.489,82.733 180.755 C 83.057 181.021,83.949 181.471,84.717 181.753 C 85.485 182.036,86.113 182.378,86.113 182.514 C 86.113 182.649,86.494 182.844,86.959 182.946 C 87.424 183.048,88.243 183.455,88.779 183.851 C 89.315 184.246,89.917 184.570,90.115 184.570 C 90.314 184.570,90.850 184.883,91.307 185.265 C 91.764 185.647,92.449 186.057,92.830 186.176 C 93.210 186.295,93.989 186.710,94.561 187.098 C 95.132 187.486,95.830 187.803,96.111 187.803 C 96.392 187.803,96.774 187.987,96.961 188.212 C 97.148 188.437,97.726 188.792,98.246 189.001 C 98.766 189.209,99.507 189.620,99.893 189.914 C 100.889 190.673,102.767 190.635,103.016 189.850 C 103.546 188.180,114.159 179.179,118.771 176.488 C 119.602 176.003,120.499 175.405,120.764 175.159 C 121.344 174.622,123.857 173.102,124.982 172.609 C 125.426 172.414,125.790 172.137,125.790 171.993 C 125.790 171.849,126.303 171.578,126.931 171.390 C 127.558 171.202,128.235 170.850,128.436 170.608 C 128.637 170.367,128.950 170.168,129.132 170.168 C 129.315 170.167,130.059 169.771,130.786 169.287 C 131.514 168.804,132.314 168.408,132.566 168.407 C 132.817 168.406,133.471 168.075,134.019 167.671 C 134.567 167.267,135.294 166.936,135.636 166.936 C 135.977 166.936,136.695 166.612,137.231 166.217 C 137.767 165.821,138.620 165.410,139.125 165.303 C 139.631 165.197,140.456 164.859,140.960 164.553 C 141.464 164.247,142.065 163.997,142.294 163.997 C 142.524 163.997,143.236 163.729,143.876 163.401 C 144.516 163.073,145.686 162.612,146.474 162.377 C 147.263 162.142,148.056 161.826,148.238 161.677 C 148.419 161.527,149.427 161.182,150.478 160.911 C 151.528 160.640,152.520 160.309,152.682 160.176 C 152.843 160.042,154.034 159.650,155.327 159.304 C 156.620 158.958,158.868 158.354,160.323 157.963 C 161.778 157.572,163.564 157.105,164.291 156.924 C 165.018 156.743,166.605 156.349,167.818 156.048 C 169.030 155.748,171.411 155.289,173.108 155.030 C 174.805 154.770,176.591 154.434,177.076 154.284 C 177.561 154.133,179.875 153.815,182.219 153.577 C 184.563 153.339,187.142 153.009,187.950 152.844 C 193.104 151.792,219.068 151.861,225.422 152.943 C 226.796 153.177,229.563 153.522,231.570 153.708 C 233.577 153.895,235.693 154.226,236.272 154.443 C 236.851 154.660,238.537 154.982,240.017 155.159 C 241.497 155.336,243.269 155.679,243.955 155.921 C 244.641 156.163,245.943 156.443,246.848 156.544 C 247.753 156.645,248.957 156.916,249.522 157.147 C 250.088 157.378,251.543 157.819,252.755 158.126 C 257.252 159.267,259.381 159.875,259.854 160.153 C 260.121 160.310,261.162 160.653,262.169 160.913 C 263.175 161.174,264.279 161.565,264.622 161.782 C 264.965 161.999,265.709 162.269,266.275 162.383 C 266.841 162.498,267.700 162.827,268.185 163.115 C 268.670 163.404,269.530 163.737,270.096 163.855 C 270.661 163.973,271.456 164.305,271.862 164.591 C 272.267 164.877,273.188 165.271,273.909 165.465 C 274.629 165.658,275.538 166.069,275.929 166.377 C 276.321 166.684,276.862 166.936,277.132 166.936 C 277.402 166.936,278.071 167.267,278.619 167.671 C 279.166 168.075,279.823 168.406,280.077 168.406 C 280.331 168.406,281.000 168.718,281.563 169.099 C 282.126 169.480,282.917 169.893,283.321 170.017 C 283.725 170.140,284.217 170.370,284.414 170.527 C 285.080 171.059,288.031 172.777,288.578 172.951 C 288.877 173.045,289.358 173.384,289.647 173.703 C 289.936 174.022,290.310 174.284,290.478 174.284 C 290.646 174.284,292.084 175.176,293.675 176.267 C 295.265 177.359,296.795 178.384,297.076 178.545 C 297.357 178.707,297.848 179.076,298.169 179.365 C 298.489 179.654,299.677 180.623,300.808 181.518 C 301.940 182.413,303.302 183.499,303.834 183.931 C 305.274 185.099,309.478 189.293,309.986 190.068 C 310.538 190.911,311.109 190.916,312.417 190.092 C 312.983 189.735,313.909 189.210,314.475 188.923 C 315.040 188.637,315.768 188.238,316.091 188.036 C 318.313 186.645,319.427 186.040,319.763 186.040 C 319.976 186.040,320.584 185.709,321.114 185.305 C 321.643 184.901,322.232 184.570,322.421 184.570 C 322.611 184.570,323.159 184.240,323.639 183.835 C 324.119 183.431,324.683 183.101,324.891 183.101 C 325.099 183.101,325.585 182.857,325.971 182.560 C 326.356 182.262,327.126 181.864,327.681 181.675 C 328.236 181.485,328.904 181.137,329.164 180.901 C 329.634 180.476,330.919 179.757,334.313 178.021 C 335.283 177.525,336.408 176.892,336.814 176.613 C 337.220 176.335,339.138 175.285,341.076 174.279 C 343.014 173.274,344.798 172.277,345.041 172.065 C 345.284 171.853,345.813 171.537,346.217 171.363 C 346.620 171.190,347.744 170.592,348.714 170.036 C 349.684 169.480,351.008 168.771,351.657 168.461 C 352.306 168.152,353.017 167.682,353.236 167.417 C 353.456 167.153,353.853 166.936,354.119 166.936 C 354.385 166.936,355.079 166.612,355.662 166.216 C 356.244 165.821,357.063 165.411,357.481 165.306 C 357.900 165.201,358.397 164.928,358.587 164.700 C 358.776 164.471,359.476 164.017,360.142 163.690 C 361.998 162.780,363.072 162.229,363.556 161.940 C 365.138 160.996,370.906 157.825,371.042 157.825 C 371.133 157.825,372.195 157.226,373.401 156.494 C 374.607 155.761,376.490 154.691,377.584 154.116 C 380.633 152.512,381.925 151.703,381.925 151.397 C 381.925 150.975,379.709 149.302,379.150 149.302 C 378.880 149.302,378.211 148.971,377.663 148.567 C 377.116 148.163,376.547 147.832,376.400 147.832 C 376.252 147.832,375.739 147.502,375.259 147.098 C 374.778 146.693,374.032 146.279,373.600 146.176 C 373.168 146.074,372.616 145.820,372.373 145.613 C 372.131 145.405,371.007 144.748,369.875 144.152 C 368.744 143.557,367.611 142.886,367.358 142.663 C 367.105 142.439,366.444 142.103,365.888 141.916 C 365.333 141.730,364.680 141.409,364.438 141.203 C 364.195 140.997,363.435 140.604,362.748 140.331 C 362.061 140.057,361.499 139.729,361.499 139.602 C 361.499 139.475,360.276 138.750,358.780 137.991 C 357.285 137.233,355.400 136.224,354.592 135.751 C 353.784 135.277,352.702 134.696,352.188 134.459 C 351.673 134.222,351.176 133.903,351.081 133.751 C 350.987 133.599,350.416 133.313,349.812 133.115 C 349.208 132.918,348.384 132.504,347.979 132.196 C 346.634 131.171,345.019 130.198,344.660 130.197 C 344.465 130.197,343.843 129.909,343.277 129.558 C 342.345 128.979,341.283 128.389,338.722 127.028 C 338.237 126.770,337.665 126.387,337.452 126.175 C 337.239 125.964,336.710 125.709,336.276 125.609 C 335.557 125.444,334.424 124.807,332.369 123.413 C 331.946 123.126,331.153 122.686,330.605 122.435 C 329.649 121.996,327.665 120.921,323.586 118.630 C 322.535 118.040,321.146 117.312,320.500 117.013 C 319.853 116.713,318.799 116.112,318.158 115.676 C 317.517 115.241,316.194 114.483,315.219 113.991 C 314.244 113.500,312.785 112.719,311.976 112.256 C 311.168 111.793,310.110 111.216,309.625 110.973 C 309.140 110.731,308.347 110.263,307.862 109.934 C 307.377 109.605,306.794 109.334,306.567 109.333 C 306.340 109.332,305.720 109.001,305.191 108.597 C 304.661 108.193,304.096 107.862,303.936 107.862 C 303.776 107.862,303.272 107.549,302.815 107.167 C 302.358 106.785,301.653 106.371,301.249 106.247 C 300.845 106.123,300.184 105.801,299.780 105.531 C 299.375 105.262,298.714 104.883,298.310 104.690 C 297.906 104.497,296.914 103.952,296.106 103.480 C 295.298 103.007,293.549 102.073,292.219 101.405 C 290.890 100.736,289.721 100.058,289.622 99.897 C 289.523 99.737,288.230 99.005,286.749 98.270 C 285.268 97.536,283.461 96.555,282.733 96.090 C 282.006 95.626,280.948 95.044,280.382 94.797 C 279.816 94.551,279.155 94.212,278.913 94.046 C 278.670 93.879,278.009 93.534,277.443 93.279 C 276.877 93.023,276.192 92.617,275.920 92.376 C 275.649 92.134,274.987 91.693,274.451 91.396 C 273.508 90.873,273.135 90.686,271.565 89.950 C 271.161 89.761,270.169 89.223,269.361 88.754 C 268.553 88.286,267.428 87.660,266.863 87.363 C 266.297 87.067,265.371 86.532,264.805 86.176 C 264.240 85.819,263.617 85.527,263.422 85.526 C 263.071 85.525,261.518 84.595,260.103 83.538 C 259.699 83.237,258.905 82.811,258.339 82.593 C 257.774 82.374,257.112 82.044,256.870 81.859 C 256.627 81.674,255.569 81.081,254.519 80.543 C 253.468 80.004,252.410 79.400,252.168 79.199 C 251.925 78.998,250.591 78.296,249.203 77.639 C 247.815 76.982,246.510 76.239,246.302 75.988 C 246.094 75.738,245.759 75.533,245.558 75.533 C 245.358 75.533,244.853 75.265,244.438 74.939 C 244.022 74.612,243.117 74.145,242.426 73.901 C 241.736 73.658,241.099 73.347,241.011 73.212 C 240.862 72.982,239.259 72.053,237.507 71.182 C 237.084 70.972,236.539 70.671,236.297 70.514 C 236.054 70.357,235.261 69.948,234.533 69.606 C 233.806 69.264,233.163 68.860,233.105 68.707 C 233.046 68.555,232.451 68.173,231.782 67.859 C 231.113 67.546,230.235 67.105,229.831 66.881 C 229.427 66.657,228.766 66.321,228.361 66.134 C 227.321 65.653,225.789 64.789,225.353 64.437 C 225.149 64.272,223.395 63.314,221.455 62.309 C 219.515 61.303,217.730 60.314,217.487 60.112 C 217.245 59.910,215.459 58.920,213.519 57.913 C 211.580 56.906,209.762 55.876,209.479 55.623 C 208.256 54.529,205.924 53.869,204.843 54.310 M194.269 172.675 C 187.564 173.059,185.261 173.290,183.835 173.718 C 183.350 173.864,181.697 174.112,180.162 174.270 C 177.486 174.545,175.022 175.037,169.581 176.383 C 168.207 176.723,166.289 177.167,165.320 177.368 C 164.350 177.570,162.961 177.945,162.234 178.202 C 160.188 178.923,158.125 179.581,156.372 180.070 C 155.492 180.316,154.500 180.685,154.168 180.890 C 153.835 181.096,152.902 181.423,152.094 181.617 C 151.286 181.811,150.212 182.224,149.708 182.535 C 149.204 182.846,148.619 183.101,148.409 183.101 C 148.039 183.101,144.615 184.618,143.718 185.180 C 143.475 185.332,142.946 185.602,142.542 185.780 C 141.745 186.131,138.145 187.925,136.958 188.563 C 136.140 189.003,135.068 189.544,133.223 190.447 C 132.543 190.780,131.906 191.183,131.807 191.342 C 131.709 191.502,131.141 191.894,130.546 192.214 C 128.996 193.048,127.573 193.943,125.528 195.371 C 124.544 196.058,123.660 196.620,123.562 196.620 C 123.465 196.620,122.703 197.189,121.869 197.884 C 121.035 198.579,120.070 199.340,119.726 199.574 C 116.337 201.875,110.874 207.098,110.503 208.390 C 110.326 209.008,110.213 216.790,110.213 228.416 L 110.213 247.432 110.866 247.889 C 111.671 248.453,300.806 248.605,301.856 248.043 C 302.410 247.746,302.425 247.211,302.425 227.780 L 302.425 207.821 301.176 206.677 C 296.018 201.956,293.931 200.243,288.024 195.884 C 285.883 194.305,278.978 190.106,277.150 189.273 C 276.746 189.088,276.210 188.752,275.959 188.525 C 275.709 188.298,274.942 187.915,274.257 187.673 C 273.571 187.431,272.811 187.034,272.568 186.791 C 272.325 186.548,271.619 186.212,270.998 186.045 C 270.378 185.878,269.715 185.554,269.525 185.326 C 269.335 185.097,268.662 184.823,268.030 184.716 C 267.397 184.609,266.574 184.281,266.200 183.986 C 265.825 183.692,264.941 183.295,264.234 183.105 C 263.527 182.915,262.647 182.561,262.279 182.320 C 261.910 182.079,260.973 181.700,260.195 181.477 C 259.417 181.255,257.656 180.661,256.282 180.156 C 254.908 179.652,253.000 179.042,252.041 178.800 C 251.082 178.559,250.024 178.214,249.690 178.034 C 249.355 177.854,248.024 177.480,246.730 177.203 C 245.437 176.927,243.519 176.490,242.469 176.234 C 237.589 175.043,235.067 174.541,232.623 174.274 C 231.168 174.115,229.118 173.793,228.068 173.560 C 223.087 172.451,205.979 172.003,194.269 172.675 " stroke="none" fill="#fafafa" fill-rule="evenodd"></path></g></svg>