<?xml version="1.0" standalone="no"?>
<!DOCTYPE svg PUBLIC "-//W3C//DTD SVG 20010904//EN"
 "http://www.w3.org/TR/2001/REC-SVG-20010904/DTD/svg10.dtd">
<svg version="1.0" xmlns="http://www.w3.org/2000/svg"
 width="1375.000000pt" height="249.000000pt" viewBox="0 0 1375.000000 249.000000"
 preserveAspectRatio="xMidYMid meet">

<g transform="translate(0.000000,249.000000) scale(0.100000,-0.100000)"
fill="#000000" stroke="none">
<path d="M0 1245 l0 -1245 6875 0 6875 0 0 1245 0 1245 -6875 0 -6875 0 0
-1245z m2630 860 c0 -149 -2 -175 -15 -175 -13 0 -15 26 -15 175 0 149 2 175
15 175 13 0 15 -26 15 -175z m490 0 c0 -144 -2 -175 -14 -175 -8 0 -16 5 -18
10 -2 7 -16 5 -36 -6 -29 -14 -38 -14 -70 -2 -45 17 -77 72 -67 117 15 71 88
111 140 77 13 -9 27 -16 30 -16 3 0 5 38 5 85 0 69 3 85 15 85 13 0 15 -26 15
-175z m5028 -3 c2 -167 2 -172 -18 -172 -19 0 -20 6 -20 176 0 162 1 175 18
172 15 -3 17 -21 20 -176z m252 3 c0 -149 -2 -175 -15 -175 -8 0 -15 7 -15 17
0 14 -2 14 -20 -2 -34 -31 -87 -25 -121 13 -78 87 5 217 107 169 l34 -17 0 85
c0 69 3 85 15 85 13 0 15 -26 15 -175z m3020 89 l0 -85 22 15 c31 22 64 20 88
-4 17 -17 20 -33 20 -105 0 -69 -3 -85 -15 -85 -12 0 -15 15 -15 73 0 84 -7
100 -46 100 -40 0 -54 -27 -54 -105 0 -54 -3 -68 -15 -68 -13 0 -15 26 -15
175 0 149 2 175 15 175 12 0 15 -16 15 -86z m568 -2 l3 -83 22 16 c31 21 54
19 82 -10 22 -22 25 -32 25 -105 0 -73 -2 -80 -20 -80 -17 0 -19 8 -22 83 -3
82 -3 82 -31 85 -46 6 -57 -12 -57 -94 0 -67 -2 -74 -20 -74 -19 0 -20 7 -20
176 0 162 1 175 18 172 14 -3 17 -16 20 -86z m1042 -87 c0 -149 -2 -175 -15
-175 -8 0 -15 7 -15 17 0 14 -2 14 -20 -2 -46 -42 -131 -13 -149 50 -27 98 65
181 140 126 l29 -22 0 91 c0 73 3 90 15 90 13 0 15 -26 15 -175z m600 0 c0
-149 -2 -175 -15 -175 -8 0 -15 7 -15 17 0 14 -2 14 -20 -2 -26 -24 -79 -24
-113 -2 -48 31 -54 121 -11 168 25 27 79 35 109 15 13 -9 27 -16 30 -16 3 0 5
38 5 85 0 69 3 85 15 85 13 0 15 -26 15 -175z m-7173 123 c29 -14 47 -59 38
-97 -4 -17 -35 -61 -72 -101 l-65 -70 71 0 c56 0 71 -3 71 -15 0 -12 -19 -15
-112 -15 l-113 0 76 78 c116 117 133 154 87 186 -43 30 -90 11 -100 -39 -5
-28 -38 -33 -38 -5 0 78 78 117 157 78z m276 -19 c38 -46 18 -106 -62 -184
-28 -27 -51 -53 -51 -57 0 -4 29 -8 65 -8 51 0 65 -3 65 -15 0 -12 -19 -15
-107 -15 l-107 0 30 32 c16 18 55 61 87 95 61 65 73 106 41 137 -33 34 -104 4
-104 -44 0 -14 -7 -20 -21 -20 -19 0 -21 4 -15 32 8 41 41 76 75 80 39 5 84
-9 104 -33z m-5888 6 c31 -30 32 -68 4 -96 -17 -17 -19 -23 -8 -30 8 -5 17 -9
21 -9 11 0 26 -56 21 -83 -9 -44 -37 -61 -114 -65 l-69 -4 0 156 0 156 60 0
c51 0 65 -4 85 -25z m911 14 c3 -6 0 -18 -9 -26 -18 -18 -37 -9 -37 18 0 21
34 27 46 8z m604 -3 c0 -10 -13 -16 -37 -18 l-38 -3 -3 -137 c-2 -130 -4 -138
-22 -138 -19 0 -20 7 -20 140 l0 140 -40 0 c-29 0 -40 4 -40 15 0 12 18 15
100 15 80 0 100 -3 100 -14z m1474 -7 c14 -11 26 -26 26 -34 0 -23 -22 -22
-46 2 -42 42 -103 21 -90 -31 4 -16 21 -30 55 -45 55 -23 91 -62 91 -98 0 -59
-69 -104 -126 -83 -35 13 -74 48 -74 66 0 26 19 23 48 -6 50 -49 117 -31 110
29 -2 20 -14 32 -55 51 -71 35 -93 57 -93 93 0 70 93 104 154 56z m606 2 c0
-24 -25 -34 -40 -16 -15 18 -5 35 21 35 12 0 19 -7 19 -19z m610 -136 c0 -131
-2 -155 -15 -155 -13 0 -15 24 -15 155 0 131 2 155 15 155 13 0 15 -24 15
-155z m6620 136 c0 -24 -25 -34 -40 -16 -15 18 -5 35 21 35 12 0 19 -7 19 -19z
m1468 -3 c-2 -13 -10 -23 -18 -23 -8 0 -16 10 -18 23 -3 17 2 22 18 22 16 0
21 -5 18 -22z m-598 -53 c0 -24 5 -35 15 -35 8 0 15 -7 15 -15 0 -8 -7 -15
-15 -15 -12 0 -15 -16 -15 -85 0 -78 -2 -85 -20 -85 -18 0 -20 7 -20 85 0 69
-3 85 -15 85 -8 0 -15 7 -15 15 0 8 7 15 15 15 10 0 15 11 15 35 0 28 4 35 20
35 16 0 20 -7 20 -35z m-11453 -45 c21 -13 36 -32 44 -58 31 -106 -97 -184
-175 -106 -47 48 -38 131 17 164 41 25 73 25 114 0z m202 11 c19 -12 3 -34
-20 -28 -35 9 -49 -19 -49 -99 0 -59 -3 -74 -15 -74 -12 0 -15 18 -15 101 0
94 1 101 19 96 10 -2 25 -1 32 4 18 11 30 11 48 0z m181 -1 c26 -14 40 -63 40
-136 0 -57 -2 -64 -20 -64 -18 0 -20 7 -20 73 0 83 -8 100 -45 100 -40 0 -49
-17 -53 -98 -3 -56 -8 -75 -18 -75 -11 0 -14 21 -14 100 0 82 3 100 15 100 8
0 15 -5 15 -11 0 -5 10 -3 22 5 26 18 51 20 78 6z m495 -15 c22 -22 25 -32 25
-105 0 -64 -3 -80 -15 -80 -12 0 -15 13 -15 59 0 83 -12 111 -48 111 -43 0
-52 -16 -52 -97 0 -66 -2 -73 -20 -73 -19 0 -20 7 -20 100 0 93 1 100 20 100
11 0 20 -5 20 -11 0 -5 10 -3 22 5 32 22 55 20 83 -9z m551 -6 c53 -50 36
-147 -30 -174 -94 -39 -178 54 -135 149 26 56 118 70 165 25z m342 -4 c12 -14
22 -39 22 -56 l0 -29 -80 0 c-44 0 -80 -3 -80 -8 0 -4 7 -18 16 -30 18 -27 69
-30 95 -6 10 9 26 14 35 10 16 -6 15 -8 -1 -26 -24 -27 -74 -41 -109 -32 -88
24 -96 166 -11 203 34 15 88 2 113 -26z m496 -6 c24 -28 28 -38 23 -75 -5 -52
-20 -72 -65 -91 -89 -37 -173 59 -131 151 29 62 123 70 173 15z m742 10 c54
-51 36 -147 -33 -175 -33 -14 -40 -14 -70 0 l-33 16 0 -60 c0 -53 -2 -60 -20
-60 -19 0 -20 7 -20 150 0 143 1 150 20 150 11 0 20 -5 20 -11 0 -5 10 -3 23
6 28 21 82 13 113 -16z m221 5 c8 -11 13 -49 13 -101 0 -67 -3 -83 -15 -83 -8
0 -15 4 -15 9 0 6 -15 4 -34 -4 -37 -15 -59 -12 -88 13 -19 16 -24 58 -10 80
13 19 68 32 102 22 26 -7 30 -6 30 10 0 44 -42 58 -102 35 -27 -11 -23 24 5
35 32 14 99 4 114 -16z m323 16 c26 -14 40 -63 40 -136 0 -57 -2 -64 -20 -64
-18 0 -20 7 -20 73 0 83 -8 100 -45 100 -40 0 -49 -17 -53 -98 -3 -56 -8 -75
-18 -75 -11 0 -14 21 -14 100 0 82 3 100 15 100 8 0 15 -5 15 -11 0 -5 10 -3
22 5 26 18 51 20 78 6z m757 -16 c8 -11 13 -49 13 -101 0 -67 -3 -83 -15 -83
-8 0 -15 4 -15 9 0 6 -15 4 -34 -4 -37 -15 -59 -12 -88 13 -19 16 -24 58 -10
80 13 19 68 32 102 22 26 -7 30 -6 30 10 0 44 -42 58 -102 35 -27 -11 -23 24
5 35 32 14 99 4 114 -16z m213 6 c11 -11 20 -16 20 -12 0 10 45 32 65 32 8 0
24 -9 35 -20 17 -17 20 -33 20 -105 0 -69 -3 -85 -15 -85 -12 0 -15 14 -15 69
0 87 -5 101 -39 101 -42 0 -51 -17 -51 -97 0 -58 -3 -73 -15 -73 -12 0 -15 14
-15 70 0 57 -4 74 -21 91 -18 18 -23 19 -42 6 -19 -12 -22 -25 -25 -91 -3 -68
-5 -76 -22 -76 -19 0 -20 7 -20 101 l0 102 30 -6 c16 -4 32 -2 35 3 10 17 54
11 75 -10z m463 9 c34 -18 37 -28 37 -116 0 -76 -2 -83 -20 -83 -11 0 -20 4
-20 9 0 5 -14 2 -31 -6 -28 -14 -34 -14 -65 1 -30 14 -34 20 -34 56 0 37 3 42
34 55 20 9 48 12 65 9 28 -6 31 -4 31 20 0 31 -32 43 -74 26 -28 -10 -46 -6
-46 10 0 10 47 28 78 29 13 1 33 -4 45 -10z m1197 -4 c29 -15 57 -75 45 -95
-3 -5 -40 -10 -81 -10 -57 0 -74 -3 -74 -14 0 -42 66 -60 109 -30 16 12 26 13
33 6 17 -17 -8 -40 -53 -52 -91 -25 -155 59 -119 154 10 28 53 55 88 56 13 0
36 -7 52 -15z m213 4 c34 -18 37 -28 37 -116 0 -65 -3 -83 -14 -83 -8 0 -16 5
-18 10 -2 7 -16 5 -36 -6 -61 -30 -115 14 -98 80 7 30 52 47 102 39 35 -6 36
-5 29 18 -10 33 -25 41 -60 33 -50 -10 -58 -10 -62 3 -9 25 83 41 120 22z
m204 3 c18 -12 1 -30 -32 -34 l-30 -3 -3 -82 c-3 -75 -5 -83 -22 -83 -19 0
-20 7 -20 101 l0 101 25 -4 c14 -3 28 -1 31 3 6 11 35 11 51 1z m312 -3 c37
-13 61 -53 61 -102 0 -71 -76 -121 -142 -94 -45 19 -60 39 -65 90 -4 33 0 48
17 70 36 45 73 55 129 36z m777 -20 c54 -51 36 -147 -33 -175 -33 -14 -40 -14
-70 0 l-33 16 0 -60 c0 -53 -2 -60 -20 -60 -19 0 -20 7 -20 150 0 143 1 150
20 150 11 0 20 -5 20 -11 0 -5 10 -3 23 6 28 21 82 13 113 -16z m189 11 c0 -9
-12 -16 -30 -18 -40 -5 -45 -15 -45 -99 0 -58 -3 -73 -15 -73 -12 0 -15 18
-15 101 l0 101 24 -6 c14 -3 28 -1 31 5 10 15 50 7 50 -11z m169 10 c30 -11
66 -65 66 -98 0 -64 -66 -118 -130 -106 -94 19 -109 168 -20 203 33 13 53 13
84 1z m244 -6 c12 -8 22 -10 22 -5 0 6 9 11 20 11 19 0 20 -7 20 -105 0 -155
-22 -195 -108 -195 -43 0 -86 27 -95 60 -7 28 16 26 47 -5 14 -14 37 -25 51
-25 32 0 65 33 65 65 0 25 -1 25 -29 10 -62 -32 -130 10 -138 87 -4 34 0 49
17 71 37 47 88 59 128 31z m229 8 c16 -10 0 -36 -18 -30 -8 3 -22 1 -31 -4
-15 -7 -18 -23 -18 -88 0 -73 -2 -80 -20 -80 -19 0 -20 7 -20 101 l0 101 24
-4 c14 -3 31 -1 38 3 16 11 29 11 45 1z m166 -3 c34 -18 37 -28 37 -116 0 -65
-3 -83 -14 -83 -8 0 -16 5 -18 10 -2 7 -15 5 -36 -5 -54 -27 -102 2 -102 61 0
30 5 37 34 49 20 9 48 12 71 8 36 -6 37 -5 30 18 -10 33 -25 41 -60 33 -50
-10 -58 -10 -62 3 -9 25 83 41 120 22z m225 -5 c20 -14 24 -14 44 0 31 22 64
20 88 -4 17 -17 20 -33 20 -105 0 -69 -3 -85 -15 -85 -12 0 -15 14 -15 70 0
57 -4 74 -21 91 -18 18 -23 19 -42 6 -19 -12 -22 -25 -25 -91 -3 -68 -5 -76
-22 -76 -18 0 -20 7 -20 80 0 87 -12 106 -57 89 -21 -8 -23 -15 -23 -89 0 -73
-2 -80 -20 -80 -19 0 -20 7 -20 101 l0 101 24 -4 c14 -3 31 -1 38 3 20 13 41
11 66 -7z m349 1 c19 -13 24 -13 50 2 37 21 76 12 91 -22 18 -38 16 -175 -2
-175 -10 0 -15 20 -18 76 -3 60 -7 79 -23 90 -16 12 -22 12 -39 0 -18 -11 -21
-26 -24 -90 -3 -68 -5 -76 -22 -76 -18 0 -20 7 -20 80 0 84 -11 103 -52 92
-26 -7 -38 -41 -38 -113 0 -46 -3 -59 -15 -59 -12 0 -15 18 -15 100 0 82 3
100 15 100 8 0 15 -5 15 -11 0 -5 10 -3 22 5 28 20 48 20 75 1z m352 0 c16 -8
34 -28 40 -46 20 -58 18 -59 -69 -59 -84 0 -95 -7 -63 -42 20 -22 61 -23 92
-2 16 12 26 13 33 6 28 -28 -67 -71 -115 -53 -80 31 -90 156 -16 197 32 18 64
17 98 -1z m206 -5 c0 -9 -12 -16 -30 -18 -40 -5 -45 -15 -45 -99 0 -58 -3 -73
-15 -73 -12 0 -15 18 -15 101 l0 101 24 -6 c14 -3 28 -1 31 5 10 15 50 7 50
-11z m325 -45 c13 -36 27 -65 30 -65 3 0 15 26 27 58 15 43 25 58 42 60 l21 3
-21 -53 c-12 -29 -30 -77 -42 -106 -11 -29 -23 -49 -27 -45 -4 4 -17 34 -30
66 -12 31 -25 57 -29 57 -4 0 -18 -29 -31 -65 -13 -36 -27 -61 -31 -57 -6 7
-79 188 -79 197 0 3 8 5 18 5 13 0 23 -15 36 -52 11 -29 22 -57 26 -61 7 -8
50 90 50 113 0 28 18 3 40 -55z m635 55 c25 -10 43 -35 31 -47 -3 -3 -11 -1
-18 5 -34 27 -99 14 -117 -24 -32 -72 51 -135 117 -88 21 14 22 14 22 -6 0
-32 -61 -55 -106 -40 -89 30 -102 154 -20 194 37 18 55 20 91 6z m574 -15 c24
-24 -5 -38 -36 -18 -12 8 -30 13 -38 9 -28 -10 -15 -36 30 -58 25 -12 48 -30
51 -41 17 -55 -32 -96 -92 -77 -39 13 -62 45 -40 53 8 3 20 -1 26 -9 14 -16
66 -19 74 -5 11 17 -6 40 -37 50 -66 24 -88 75 -44 106 26 19 82 14 106 -10z
m929 -10 c12 -14 22 -39 22 -56 l0 -29 -80 0 c-44 0 -80 -3 -80 -8 0 -4 7 -18
16 -30 18 -27 69 -30 95 -6 10 9 26 14 35 10 14 -5 14 -9 3 -23 -26 -30 -77
-45 -115 -33 -45 15 -64 45 -64 100 0 49 19 86 54 101 35 14 89 2 114 -26z
m-11618 -75 c0 -93 -1 -100 -20 -100 -19 0 -20 7 -20 100 0 93 1 100 20 100
19 0 20 -7 20 -100z m2680 0 c0 -82 -3 -100 -15 -100 -12 0 -15 18 -15 100 0
82 3 100 15 100 12 0 15 -18 15 -100z m2550 40 c12 -33 26 -62 30 -65 4 -2 18
24 31 58 19 46 30 63 46 65 20 3 15 -11 -45 -147 -50 -112 -72 -151 -84 -151
-23 0 -23 2 8 70 l26 58 -36 81 c-20 45 -36 84 -36 86 0 3 8 5 19 5 14 0 25
-16 41 -60z m4680 -40 c0 -82 -3 -100 -15 -100 -12 0 -15 18 -15 100 0 82 3
100 15 100 12 0 15 -18 15 -100z m980 34 c0 -77 12 -104 45 -104 42 0 55 24
55 101 0 55 3 69 15 69 12 0 15 -18 15 -100 0 -82 -3 -100 -15 -100 -8 0 -15
4 -15 9 0 5 -13 3 -29 -5 -34 -17 -74 -6 -90 25 -6 11 -11 54 -11 95 0 61 3
76 15 76 12 0 15 -14 15 -66z m500 -34 c0 -93 -1 -100 -20 -100 -19 0 -20 7
-20 100 0 93 1 100 20 100 19 0 20 -7 20 -100z m-9670 -70 c0 -4 -9 -30 -21
-58 -14 -32 -26 -49 -34 -46 -10 4 -9 18 7 64 14 42 23 57 34 53 8 -3 14 -9
14 -13z m1337 -2 c-32 -81 -41 -98 -53 -98 -18 0 -18 6 2 63 12 35 21 47 36
47 12 0 18 -5 15 -12z m1439 -436 c-16 -146 -89 -301 -190 -410 -36 -39 -45
-56 -51 -99 -8 -64 -36 -94 -120 -134 -70 -34 -99 -37 -91 -11 3 9 8 43 12 75
l6 57 -28 0 c-40 0 -114 73 -114 113 l0 29 -57 -6 c-32 -4 -66 -9 -75 -12 -28
-8 -22 25 18 105 41 82 61 98 130 107 39 5 58 15 94 49 90 85 195 141 325 175
39 11 87 19 109 19 l39 1 -7 -58z m1044 -131 c0 -170 -7 -206 -34 -169 -10 14
-14 14 -31 2 -41 -30 -114 -6 -135 46 -18 43 -6 100 25 128 31 26 96 30 119 6
15 -14 16 -8 16 70 0 79 2 86 20 86 19 0 20 -7 20 -169z m388 -3 c-3 -155 -5
-173 -20 -176 -11 -2 -18 3 -18 13 0 15 -2 15 -22 1 -95 -67 -201 82 -119 165
34 34 93 40 123 12 17 -15 18 -13 18 70 0 81 1 87 20 87 20 0 20 -5 18 -172z
m1792 -3 c0 -149 -2 -175 -15 -175 -8 0 -15 7 -15 16 0 14 -2 14 -22 0 -62
-44 -148 5 -148 84 0 44 13 77 39 97 23 18 91 16 113 -4 17 -15 18 -13 18 70
0 71 3 87 15 87 13 0 15 -26 15 -175z m340 95 c0 -73 9 -97 25 -70 10 16 72
12 89 -6 22 -22 28 -50 24 -124 -2 -52 -6 -65 -20 -68 -16 -3 -18 6 -18 76 0
86 -10 106 -52 100 -32 -4 -48 -43 -48 -115 0 -49 -3 -63 -15 -63 -13 0 -15
26 -15 175 0 149 2 175 15 175 12 0 15 -16 15 -80z m700 -2 c0 -64 3 -79 12
-70 17 17 74 15 92 -4 22 -22 28 -50 24 -124 -2 -50 -7 -65 -18 -65 -12 0 -16
16 -18 75 -3 81 -12 100 -47 100 -35 0 -44 -19 -47 -100 -2 -62 -6 -75 -20
-78 -17 -3 -18 10 -18 172 0 169 1 176 20 176 18 0 20 -7 20 -82z m-6992 29
c4 -22 -27 -35 -38 -16 -10 15 7 42 24 36 6 -2 12 -11 14 -20z m965 11 c6 -19
-3 -38 -18 -38 -18 0 -28 17 -21 35 7 18 33 20 39 3z m3305 -11 c4 -20 -25
-34 -40 -19 -15 15 -1 44 19 40 10 -2 19 -11 21 -21z m2957 -3 c0 -10 -8 -20
-17 -22 -18 -3 -26 27 -11 42 12 11 28 0 28 -20z m2123 3 c4 -21 -27 -35 -38
-17 -12 19 0 42 19 38 9 -2 17 -11 19 -21z m-3158 -52 c0 -24 5 -35 15 -35 8
0 15 -7 15 -15 0 -8 -7 -15 -15 -15 -12 0 -15 -17 -15 -90 0 -73 -3 -90 -15
-90 -12 0 -15 16 -15 86 0 77 -2 86 -20 91 -11 3 -20 12 -20 19 0 8 9 14 20
14 16 0 20 7 20 35 0 24 5 35 15 35 10 0 15 -11 15 -35z m560 0 c0 -24 5 -35
15 -35 8 0 15 -7 15 -15 0 -8 -7 -15 -15 -15 -11 0 -15 -19 -17 -87 -3 -74 -6
-88 -20 -91 -16 -3 -18 6 -18 87 0 74 -3 91 -15 91 -8 0 -15 7 -15 15 0 8 7
15 15 15 10 0 15 11 15 35 0 28 4 35 20 35 16 0 20 -7 20 -35z m900 0 c0 -28
4 -35 20 -35 11 0 20 -7 20 -15 0 -8 -9 -15 -20 -15 -19 0 -20 -7 -20 -90 0
-73 -3 -90 -15 -90 -12 0 -15 16 -15 86 0 77 -2 86 -20 91 -11 3 -20 12 -20
19 0 8 9 14 20 14 16 0 20 7 20 35 0 24 5 35 15 35 10 0 15 -11 15 -35z
m-10340 -55 c17 -17 20 -33 20 -100 0 -66 -3 -82 -17 -87 -9 -4 -18 -2 -21 5
-2 8 -11 8 -28 1 -43 -16 -71 -10 -94 18 -15 19 -19 35 -15 52 10 39 34 52 88
48 47 -4 48 -3 45 22 -2 21 -9 27 -35 29 -18 2 -41 -1 -52 -7 -14 -8 -20 -7
-25 4 -14 37 100 49 134 15z m228 -3 c12 -13 25 -37 28 -55 l7 -32 -82 0 c-74
0 -81 -2 -81 -19 0 -22 35 -51 61 -51 9 0 27 9 41 19 17 14 29 17 39 10 25
-16 -34 -59 -82 -59 -67 0 -109 59 -95 135 14 70 116 103 164 52z m112 11 c0
-9 3 -9 12 0 11 11 68 18 68 8 0 -21 -14 -33 -32 -28 -34 8 -48 -23 -48 -105
0 -58 -3 -73 -15 -73 -12 0 -15 18 -15 105 0 87 3 105 15 105 8 0 15 -5 15
-12z m266 -3 c54 -37 55 -125 3 -169 -35 -30 -76 -33 -119 -11 -37 19 -50 43
-50 95 0 59 41 100 102 100 24 0 53 -7 64 -15z m205 -4 c22 -18 22 -20 6 -26
-9 -4 -24 -2 -32 5 -18 15 -60 9 -60 -8 0 -7 23 -25 50 -40 38 -21 51 -33 53
-54 7 -61 -72 -89 -125 -44 -25 22 -26 25 -10 31 11 5 25 1 36 -9 22 -20 45
-21 60 -2 10 12 8 19 -8 35 -12 12 -28 21 -36 21 -23 0 -55 37 -55 65 0 45 77
62 121 26z m99 2 c0 -15 1 -15 18 0 30 28 89 22 123 -12 63 -63 22 -181 -63
-181 -18 0 -44 7 -56 16 l-22 15 0 -60 c0 -48 -3 -61 -15 -61 -13 0 -15 23
-15 150 0 127 2 150 15 150 8 0 15 -7 15 -17z m360 -3 c17 -17 20 -33 20 -100
0 -66 -3 -82 -17 -87 -9 -4 -18 -2 -21 5 -2 8 -11 8 -28 1 -43 -16 -71 -10
-94 18 -15 19 -19 35 -15 52 10 39 34 52 88 48 47 -4 48 -3 45 22 -3 22 -8 26
-41 29 -21 2 -44 -2 -52 -8 -10 -8 -15 -8 -21 1 -23 37 100 55 136 19z m214
14 c9 -3 16 -15 16 -25 0 -16 -4 -17 -26 -9 -38 15 -69 12 -87 -7 -59 -66 5
-158 83 -120 28 14 30 14 30 -3 0 -59 -124 -50 -156 11 -39 76 5 159 84 159
22 0 47 -3 56 -6z m211 0 c19 -8 45 -55 45 -84 0 -18 -6 -20 -80 -20 -80 0
-92 -6 -72 -36 23 -35 77 -39 114 -7 12 11 18 12 24 2 12 -20 -42 -59 -81 -59
-42 0 -91 39 -100 80 -8 38 11 96 38 115 22 15 82 20 112 9z m380 -19 c16 -15
25 -36 25 -55 l0 -30 -75 0 c-68 0 -75 -2 -75 -19 0 -22 35 -51 61 -51 9 0 27
8 40 19 24 18 49 18 49 0 0 -17 -64 -49 -98 -49 -50 0 -92 46 -92 100 0 74 31
109 98 110 32 0 49 -6 67 -25z m115 15 c0 -7 6 -7 19 0 34 18 78 12 95 -12 22
-32 23 -188 1 -188 -12 0 -15 14 -15 64 0 84 -12 116 -44 116 -43 0 -56 -24
-56 -106 0 -67 -2 -75 -17 -72 -16 3 -18 17 -21 106 -3 97 -2 102 18 102 11 0
20 -5 20 -10z m331 0 c13 -7 19 -7 19 0 0 5 9 10 21 10 20 0 21 -4 17 -125 -3
-119 -4 -126 -29 -151 -16 -15 -41 -28 -65 -31 -33 -4 -45 -1 -72 22 -31 26
-44 65 -22 65 6 0 21 -11 33 -24 32 -35 59 -40 90 -15 19 14 27 30 27 50 0 29
-1 30 -22 15 -37 -26 -76 -20 -114 18 -24 24 -34 43 -34 65 0 38 23 86 47 100
23 14 79 14 104 1z m167 -92 c-3 -89 -5 -103 -20 -106 -16 -3 -18 7 -18 102 0
100 1 106 20 106 20 0 21 -5 18 -102z m105 90 c4 -10 7 -10 18 0 18 17 74 15
93 -3 20 -20 28 -66 24 -135 -2 -43 -7 -56 -20 -58 -16 -3 -18 6 -18 76 0 86
-10 106 -52 100 -32 -4 -48 -43 -48 -115 0 -49 -3 -63 -15 -63 -12 0 -15 18
-15 105 0 84 3 105 14 105 8 0 16 -6 19 -12z m352 -13 c16 -15 25 -36 25 -55
l0 -30 -80 0 c-87 0 -95 -6 -55 -45 29 -30 54 -32 86 -6 24 18 49 18 49 0 0
-17 -64 -49 -98 -49 -50 0 -92 46 -92 100 0 74 31 109 98 110 32 0 49 -6 67
-25z m230 0 c16 -15 25 -36 25 -55 l0 -30 -80 0 c-87 0 -95 -6 -55 -45 29 -30
54 -32 86 -6 24 18 49 18 49 0 0 -17 -64 -49 -98 -49 -50 0 -92 46 -92 100 0
74 31 109 98 110 32 0 49 -6 67 -25z m115 13 c0 -9 3 -9 12 0 13 13 68 17 68
4 0 -15 -22 -30 -36 -25 -31 12 -44 -17 -44 -99 0 -70 -2 -79 -17 -76 -16 3
-18 17 -21 106 -3 97 -2 102 18 102 11 0 20 -5 20 -12z m160 -94 c0 -95 -2
-105 -17 -102 -16 3 -18 17 -21 106 -3 97 -2 102 18 102 19 0 20 -6 20 -106z
m110 94 c0 -9 3 -9 12 0 21 21 85 15 102 -10 22 -32 23 -188 1 -188 -12 0 -15
14 -15 63 0 72 -16 111 -48 115 -42 6 -52 -14 -52 -100 0 -70 -2 -79 -17 -76
-16 3 -18 17 -21 106 -3 97 -2 102 18 102 11 0 20 -5 20 -12z m332 -5 c17 -15
18 -15 18 0 0 11 8 17 21 17 20 0 21 -4 18 -124 -4 -115 -6 -126 -28 -150 -47
-50 -137 -42 -166 15 -19 35 -19 39 -1 39 8 0 28 -14 45 -31 24 -23 36 -29 53
-24 37 12 58 36 58 67 0 28 -1 29 -22 14 -28 -20 -61 -20 -97 -1 -58 29 -67
128 -16 173 31 27 90 30 117 5z m1860 0 c15 -13 18 -32 18 -105 0 -72 -3 -88
-15 -88 -8 0 -15 7 -15 16 0 14 -2 14 -22 0 -51 -36 -118 -5 -118 54 0 42 37
64 95 58 38 -5 45 -3 45 12 0 30 -26 43 -75 37 -35 -5 -45 -3 -45 7 0 19 16
24 69 25 28 1 51 -5 63 -16z m118 5 c0 -9 3 -9 12 0 21 21 85 15 102 -10 22
-32 23 -188 1 -188 -12 0 -15 14 -15 63 0 34 -3 72 -6 85 -8 27 -44 38 -73 22
-19 -9 -21 -20 -21 -91 0 -71 -2 -80 -17 -77 -16 3 -18 17 -21 106 -3 97 -2
102 18 102 11 0 20 -5 20 -12z m880 -93 c0 -87 -3 -105 -15 -105 -12 0 -15 18
-15 105 0 87 3 105 15 105 12 0 15 -18 15 -105z m189 89 c21 -15 22 -18 7 -26
-11 -6 -22 -6 -31 2 -17 14 -57 10 -62 -7 -3 -7 18 -23 45 -37 66 -33 80 -68
42 -106 -27 -27 -73 -25 -107 4 -25 22 -26 25 -10 31 11 5 25 1 37 -10 25 -22
55 -16 55 12 0 17 -12 29 -45 45 -35 18 -46 29 -48 51 -2 16 2 35 9 43 16 19
79 18 108 -2z m205 10 c9 -3 16 -15 16 -25 0 -16 -4 -17 -26 -9 -43 17 -71 12
-94 -17 -26 -33 -21 -79 11 -105 26 -22 45 -22 82 -4 25 14 27 13 27 -4 0 -36
-67 -53 -113 -29 -38 19 -57 51 -57 97 0 60 41 102 98 102 22 0 47 -3 56 -6z
m237 -23 c23 -23 29 -38 29 -71 0 -52 -13 -76 -50 -95 -59 -31 -115 -13 -146
47 -54 103 84 202 167 119z m99 -8 c7 -21 20 -54 28 -73 l14 -35 28 70 c21 53
33 71 49 73 24 4 25 7 -37 -131 l-39 -88 -47 104 c-25 58 -46 107 -46 111 0 3
8 6 18 6 12 0 23 -13 32 -37z m318 14 c12 -13 25 -37 28 -55 l7 -32 -82 0
c-74 0 -81 -2 -81 -19 0 -22 35 -51 61 -51 9 0 27 9 41 19 17 14 29 17 39 10
25 -16 -34 -59 -82 -59 -67 0 -109 59 -95 135 14 70 116 103 164 52z m112 11
c0 -9 3 -9 12 0 11 11 68 18 68 8 0 -21 -14 -33 -32 -28 -34 8 -48 -23 -48
-105 0 -58 -3 -73 -15 -73 -12 0 -15 18 -15 105 0 87 3 105 15 105 8 0 15 -5
15 -12z m265 -13 c16 -15 25 -36 25 -55 l0 -30 -80 0 c-87 0 -95 -6 -55 -45
29 -30 54 -32 86 -6 24 18 49 18 49 0 0 -17 -64 -49 -98 -49 -50 0 -92 46 -92
100 0 74 31 109 98 110 32 0 49 -6 67 -25z m945 5 c17 -17 20 -33 20 -105 0
-67 -3 -85 -14 -85 -8 0 -18 5 -21 10 -4 7 -12 7 -25 0 -35 -19 -77 -12 -99
16 -26 34 -26 45 1 79 19 25 26 27 70 23 48 -5 49 -5 46 21 -2 21 -9 27 -35
29 -18 2 -41 -1 -52 -7 -14 -8 -20 -7 -25 4 -14 37 100 49 134 15z m598 -82
c-3 -89 -5 -103 -20 -106 -16 -3 -18 7 -18 102 0 100 1 106 20 106 20 0 21 -5
18 -102z m186 83 c21 -23 6 -37 -23 -21 -11 5 -29 10 -41 10 -32 0 -21 -32 17
-51 50 -25 63 -39 63 -70 0 -55 -74 -78 -124 -38 -40 31 -18 49 29 23 33 -17
36 -17 52 -2 13 14 14 20 4 32 -7 8 -23 18 -34 22 -31 9 -67 44 -67 65 0 47
89 69 124 30z m421 9 c7 -12 -15 -24 -45 -24 -24 -1 -25 -3 -30 -86 -4 -67 -8
-85 -20 -85 -12 0 -16 19 -18 101 l-3 101 56 1 c30 0 57 -3 60 -8z m75 -64 c0
-100 32 -134 80 -86 16 16 20 33 20 90 0 56 3 70 15 70 12 0 15 -18 15 -105 0
-87 -3 -105 -15 -105 -8 0 -15 7 -15 16 0 14 -2 14 -22 0 -31 -22 -64 -20 -88
4 -17 17 -20 33 -20 105 0 69 3 85 15 85 12 0 15 -15 15 -74z m335 68 c19 -8
45 -55 45 -84 0 -18 -6 -20 -80 -20 -88 0 -100 -10 -59 -51 24 -24 75 -20 97
8 10 14 14 14 25 4 20 -20 -35 -61 -82 -61 -95 0 -136 140 -57 195 21 15 82
20 111 9z m265 -4 c0 -7 6 -7 19 0 28 15 83 12 107 -5 12 -8 27 -28 34 -44 37
-91 -62 -188 -138 -135 l-22 15 0 -60 c0 -54 -2 -61 -20 -61 -19 0 -20 7 -20
150 0 143 1 150 20 150 11 0 20 -5 20 -10z m352 -7 c15 -13 18 -32 18 -105 0
-69 -3 -88 -14 -88 -8 0 -16 5 -18 11 -3 9 -9 9 -25 0 -54 -28 -113 3 -113 59
0 42 37 64 95 58 38 -5 45 -3 45 12 0 30 -26 43 -75 37 -47 -7 -67 5 -38 22
29 17 104 13 125 -6z m194 3 c26 -20 6 -43 -24 -27 -11 6 -30 11 -42 11 -34 0
-20 -32 22 -52 21 -10 45 -29 54 -44 16 -24 16 -27 -3 -52 -24 -33 -74 -40
-109 -17 -24 15 -33 45 -14 45 6 0 22 -7 35 -16 29 -19 68 -10 63 14 -2 9 -22
27 -46 40 -55 31 -69 55 -47 88 12 18 24 24 53 24 21 0 47 -6 58 -14z m180 0
c26 -20 6 -43 -24 -27 -11 6 -30 11 -42 11 -34 0 -20 -32 22 -52 21 -10 45
-29 54 -44 16 -24 16 -27 -3 -52 -24 -33 -74 -40 -109 -17 -24 15 -33 45 -14
45 6 0 22 -7 35 -16 29 -19 68 -10 63 14 -2 9 -22 27 -46 40 -55 31 -69 55
-47 88 12 18 24 24 53 24 21 0 47 -6 58 -14z m104 -91 c0 -87 -3 -105 -15
-105 -12 0 -15 18 -15 105 0 87 3 105 15 105 12 0 15 -18 15 -105z m241 76
c50 -51 36 -137 -28 -170 -79 -41 -175 43 -148 130 23 71 122 94 176 40z m119
17 c0 -9 3 -9 12 0 21 21 85 15 102 -10 22 -32 23 -188 1 -188 -12 0 -15 14
-15 63 0 72 -16 111 -48 115 -42 6 -52 -14 -52 -100 0 -70 -2 -79 -17 -76 -16
3 -18 17 -21 106 -3 97 -2 102 18 102 11 0 20 -5 20 -12z m-7575 -370 c-17
-55 -17 -65 0 -72 10 -3 30 0 46 8 39 20 49 1 16 -31 -18 -19 -39 -27 -76 -31
l-51 -5 0 36 c0 20 5 48 10 64 18 46 69 75 55 31z m2175 -363 c0 -149 -2 -175
-15 -175 -8 0 -15 7 -15 17 0 15 -1 15 -18 0 -30 -27 -94 -22 -126 9 -21 21
-26 36 -26 74 0 85 68 132 139 96 l31 -17 0 86 c0 69 3 85 15 85 13 0 15 -26
15 -175z m750 0 c0 -168 -1 -175 -20 -175 -19 0 -20 7 -20 175 0 168 1 175 20
175 19 0 20 -7 20 -175z m1900 0 c0 -149 -2 -175 -15 -175 -13 0 -15 26 -15
175 0 149 2 175 15 175 13 0 15 -26 15 -175z m-730 115 c0 -13 -7 -20 -19 -20
-22 0 -35 15 -26 30 12 19 45 11 45 -10z m1640 0 c0 -13 -7 -20 -19 -20 -22 0
-35 15 -26 30 12 19 45 11 45 -10z m-4200 -46 c0 -27 5 -37 20 -41 11 -3 20
-12 20 -19 0 -8 -9 -14 -20 -14 -18 0 -20 -7 -20 -85 0 -69 -3 -85 -15 -85
-12 0 -15 16 -15 85 0 69 -3 85 -15 85 -8 0 -15 7 -15 15 0 8 7 15 15 15 11 0
15 11 15 40 0 29 4 40 15 40 11 0 15 -11 15 -36z m5740 0 c0 -27 5 -37 20 -41
11 -3 20 -12 20 -19 0 -8 -9 -14 -20 -14 -18 0 -20 -7 -20 -85 0 -69 -3 -85
-15 -85 -12 0 -15 16 -15 85 0 69 -3 85 -15 85 -8 0 -15 6 -15 14 0 8 7 16 15
20 9 3 15 19 15 41 0 24 4 35 15 35 11 0 15 -11 15 -36z m-7539 5 c10 -19 7
-25 -17 -45 -43 -35 -198 -110 -287 -138 -90 -29 -238 -59 -387 -78 -174 -22
-831 -16 -1190 10 -1144 84 -1283 92 -1645 92 -820 0 -1331 -129 -1676 -423
l-67 -56 -18 21 c-19 20 -18 21 39 73 203 185 511 317 897 384 459 81 1001 80
2095 -4 502 -39 655 -47 980 -52 359 -6 527 2 710 33 201 34 361 89 478 164
34 22 65 40 69 40 4 0 12 -10 19 -21z m1109 -169 c3 0 16 27 28 60 17 44 29
60 43 60 18 0 18 -2 -2 -52 -12 -29 -30 -77 -42 -106 -11 -29 -22 -51 -24 -48
-2 2 -17 34 -33 72 l-28 68 -15 -35 c-7 -19 -19 -51 -26 -71 -7 -21 -14 -38
-16 -38 -3 0 -85 196 -85 204 0 3 8 6 19 6 13 0 24 -16 41 -62 l23 -63 13 30
c7 17 21 48 30 70 l16 40 26 -67 c15 -38 29 -68 32 -68z m258 114 c20 -14 22
-23 22 -105 0 -72 -3 -89 -15 -89 -8 0 -15 5 -15 10 0 7 -6 7 -19 0 -30 -15
-82 -12 -103 7 -18 16 -24 58 -10 80 13 20 63 34 98 27 30 -5 34 -4 34 15 0
37 -48 49 -102 26 -13 -5 -18 -2 -18 9 0 34 89 48 128 20z m193 -4 c34 -28 8
-44 -32 -21 -21 12 -31 13 -40 4 -16 -16 -5 -30 42 -54 52 -26 68 -59 45 -94
-13 -20 -24 -25 -60 -25 -49 0 -89 31 -68 52 9 9 16 7 31 -6 23 -21 65 -18 69
6 2 12 -12 25 -47 43 -48 24 -56 36 -51 75 5 41 72 53 111 20z m475 -11 c45
-42 40 -130 -10 -164 -11 -8 -40 -15 -64 -15 -109 0 -143 143 -47 199 29 17
93 6 121 -20z m599 21 c28 -11 60 -72 51 -96 -4 -10 -26 -14 -81 -14 -79 0
-90 -7 -58 -42 20 -22 61 -23 92 -2 33 24 50 3 20 -25 -17 -15 -36 -21 -70
-21 -40 0 -51 4 -73 31 -43 51 -30 134 25 165 29 16 59 17 94 4z m436 -19 c19
-20 29 -40 29 -60 l0 -31 -80 0 c-44 0 -80 -3 -80 -8 0 -4 7 -18 16 -30 18
-26 59 -29 92 -6 13 9 30 13 40 9 15 -6 13 -10 -11 -31 -20 -17 -40 -24 -70
-24 -53 0 -82 20 -97 65 -35 107 84 192 161 116z m335 8 c28 -23 46 -70 40
-104 -16 -83 -117 -115 -177 -56 -23 23 -29 38 -29 71 0 51 12 75 48 95 30 17
94 14 118 -6z m243 7 c58 -30 69 -119 22 -167 -34 -34 -93 -40 -123 -12 -17
15 -18 13 -18 -50 0 -53 -3 -67 -15 -67 -13 0 -15 23 -15 150 0 127 2 150 15
150 8 0 15 -5 15 -11 0 -5 10 -3 22 5 28 20 61 20 97 2z m252 -15 c19 -20 29
-40 29 -60 l0 -31 -80 0 c-44 0 -80 -3 -80 -8 0 -4 7 -18 16 -30 18 -27 69
-30 95 -6 11 10 25 14 36 9 16 -6 15 -9 -10 -31 -20 -17 -40 -24 -68 -24 -53
0 -78 14 -95 56 -45 108 77 205 157 125z m645 8 c11 -9 11 -15 3 -25 -9 -11
-15 -11 -34 2 -13 9 -32 14 -42 12 -30 -6 -20 -31 22 -54 54 -30 65 -41 65
-66 0 -34 -29 -58 -70 -58 -47 0 -92 32 -73 51 10 10 16 9 31 -4 10 -9 31 -17
45 -17 22 0 27 5 27 24 0 18 -8 27 -32 35 -67 24 -89 75 -45 106 24 18 78 15
103 -6z m429 -4 c22 -22 25 -32 25 -105 0 -73 -2 -80 -20 -80 -11 0 -20 5 -20
10 0 7 -6 7 -19 0 -11 -5 -36 -10 -55 -10 -27 0 -40 6 -52 26 -35 53 15 110
89 99 32 -4 37 -2 37 14 0 30 -25 44 -67 36 -47 -9 -47 -9 -51 4 -5 14 34 30
76 30 22 1 41 -7 57 -24z m448 13 c33 -17 46 -39 47 -75 l0 -33 -80 0 c-71 0
-79 -2 -73 -17 14 -43 71 -57 104 -27 11 10 25 14 36 9 16 -6 15 -9 -10 -31
-28 -24 -84 -32 -122 -18 -41 16 -60 119 -29 162 27 39 85 53 127 30z m247
-10 c17 -18 20 -35 20 -105 0 -67 -3 -83 -15 -83 -12 0 -15 14 -15 70 0 57 -4
74 -20 90 -24 24 -29 24 -58 4 -19 -13 -22 -24 -22 -90 0 -67 -2 -74 -20 -74
-19 0 -20 7 -20 100 0 93 1 100 20 100 11 0 20 -5 20 -12 0 -8 6 -6 17 5 24
24 68 21 93 -5z m505 2 c0 -10 -10 -15 -27 -15 -15 -1 -31 -4 -35 -9 -4 -4
-10 -43 -12 -87 -2 -59 -7 -79 -17 -79 -11 0 -14 21 -14 101 l0 101 24 -6 c14
-3 28 -1 31 5 10 15 50 7 50 -11z m201 -14 c38 -38 44 -77 19 -126 -19 -37
-43 -50 -95 -50 -57 0 -100 42 -100 97 1 70 42 112 109 113 25 0 42 -9 67 -34z
m225 15 c21 -17 24 -29 28 -105 3 -82 2 -86 -18 -86 -20 0 -21 5 -21 80 0 68
-3 81 -19 90 -27 14 -67 -3 -74 -32 -4 -13 -7 -49 -7 -80 0 -45 -3 -58 -15
-58 -12 0 -15 18 -15 100 0 82 3 100 15 100 8 0 15 -5 15 -11 0 -5 10 -3 22 5
30 21 61 20 89 -3z m225 4 c19 -12 24 -12 40 0 25 19 54 19 82 -1 20 -14 22
-23 22 -105 0 -72 -3 -89 -15 -89 -12 0 -15 16 -15 80 0 68 -3 81 -19 90 -46
24 -71 -12 -71 -104 0 -52 -3 -66 -15 -66 -12 0 -15 14 -15 63 0 105 -19 133
-66 102 -22 -14 -24 -23 -24 -90 0 -68 -2 -75 -20 -75 -19 0 -20 7 -20 100 0
93 1 100 20 100 11 0 20 -5 20 -11 0 -6 7 -3 16 5 19 20 53 20 80 1z m365 -14
c19 -20 29 -40 29 -60 l0 -31 -80 0 c-84 0 -94 -6 -60 -40 24 -24 67 -26 91
-4 11 10 25 14 36 9 16 -6 15 -9 -10 -31 -39 -34 -108 -34 -142 1 -20 19 -25
34 -25 75 0 44 5 56 29 81 41 40 91 40 132 0z m228 3 c17 -22 21 -41 21 -105
0 -72 -2 -79 -20 -79 -18 0 -20 7 -20 80 0 70 -2 81 -21 90 -16 9 -26 8 -45
-5 -22 -14 -24 -22 -24 -90 0 -68 -2 -75 -20 -75 -19 0 -20 7 -20 100 0 93 1
100 20 100 11 0 20 -5 20 -12 0 -8 6 -6 17 5 26 26 68 21 92 -9z m302 6 c34
-28 8 -44 -32 -21 -21 12 -31 13 -40 4 -16 -16 -5 -30 42 -54 52 -26 68 -59
45 -94 -13 -20 -24 -25 -60 -25 -49 0 -89 31 -68 52 9 9 16 7 31 -6 23 -21 65
-18 69 6 2 12 -12 25 -47 43 -46 23 -51 28 -51 60 0 55 64 75 111 35z m-4959
-51 c14 -33 28 -60 33 -60 5 0 19 27 33 60 18 45 29 61 43 61 22 0 23 5 -42
-139 l-33 -75 -29 65 c-69 152 -68 149 -48 149 14 0 26 -17 43 -61z m1388 -4
c13 -36 27 -65 30 -65 3 0 17 29 30 65 17 47 29 65 42 65 10 0 18 -3 18 -6 0
-14 -84 -194 -90 -194 -6 0 -90 180 -90 194 0 3 8 6 18 6 13 0 25 -18 42 -65z
m200 -35 c0 -82 -3 -100 -15 -100 -12 0 -15 18 -15 100 0 82 3 100 15 100 12
0 15 -18 15 -100z m290 34 c0 -77 12 -104 45 -104 42 0 55 24 55 101 0 55 3
69 15 69 12 0 15 -18 15 -100 0 -82 -3 -100 -15 -100 -8 0 -15 7 -15 16 0 14
-1 14 -16 0 -24 -24 -80 -20 -98 6 -22 31 -23 178 -1 178 12 0 15 -14 15 -66z
m1150 1 c13 -36 27 -65 31 -65 4 0 17 27 29 61 21 56 42 80 57 65 3 -3 -15
-51 -39 -107 -25 -55 -48 -97 -51 -92 -8 13 -87 193 -87 198 0 3 8 5 18 5 13
0 25 -18 42 -65z m200 -35 c0 -82 -3 -100 -15 -100 -12 0 -15 18 -15 100 0 82
3 100 15 100 12 0 15 -18 15 -100z"/>
<path d="M2966 2078 c-22 -31 -20 -74 4 -98 53 -53 136 6 109 77 -13 34 -26
43 -66 43 -22 0 -37 -7 -47 -22z"/>
<path d="M8272 2095 c-64 -27 -45 -126 26 -133 57 -6 93 64 57 115 -19 27 -46
33 -83 18z"/>
<path d="M12876 2078 c-22 -31 -20 -74 4 -98 53 -53 136 6 109 77 -13 34 -26
43 -66 43 -22 0 -37 -7 -47 -22z"/>
<path d="M13476 2078 c-37 -53 -3 -122 56 -116 61 6 86 79 42 122 -24 24 -80
20 -98 -6z"/>
<path d="M732 2163 c3 -43 6 -48 29 -51 38 -4 74 28 66 60 -7 26 -30 38 -75
38 -21 0 -23 -4 -20 -47z"/>
<path d="M730 2019 l0 -62 47 6 c102 11 96 117 -7 117 l-40 0 0 -61z"/>
<path d="M976 2078 c-36 -51 -5 -118 54 -118 59 0 90 67 54 118 -21 31 -87 31
-108 0z"/>
<path d="M2419 2098 c-25 -8 -49 -44 -49 -72 0 -7 9 -25 21 -40 41 -52 119
-21 119 47 0 51 -43 82 -91 65z"/>
<path d="M2755 2098 c-21 -12 -35 -28 -35 -40 0 -5 27 -8 60 -8 66 0 79 15 38
44 -26 19 -36 19 -63 4z"/>
<path d="M3249 2098 c-72 -24 -51 -138 26 -138 41 0 65 27 65 72 0 52 -42 83
-91 66z"/>
<path d="M4010 2102 c-50 -16 -69 -92 -32 -125 44 -40 112 -5 112 56 0 45 -42
81 -80 69z"/>
<path d="M4206 2014 c-22 -21 -20 -31 8 -49 27 -18 50 -11 76 21 12 14 12 18
-5 30 -25 19 -60 18 -79 -2z"/>
<path d="M5286 2014 c-22 -21 -20 -31 8 -49 27 -18 50 -11 76 21 12 14 12 18
-5 30 -25 19 -60 18 -79 -2z"/>
<path d="M5988 2019 c-24 -14 -23 -46 2 -59 41 -22 107 37 68 61 -18 12 -49
11 -70 -2z"/>
<path d="M7182 2094 c-41 -29 -28 -44 38 -44 64 0 72 8 40 40 -24 24 -48 25
-78 4z"/>
<path d="M7396 2017 c-39 -29 12 -80 55 -56 10 5 23 18 29 29 8 15 6 21 -9 30
-27 14 -54 13 -75 -3z"/>
<path d="M7940 2102 c-32 -10 -50 -36 -50 -72 0 -45 24 -70 68 -70 31 0 72 37
72 66 0 45 -51 88 -90 76z"/>
<path d="M8690 2102 c-50 -16 -69 -92 -32 -125 44 -40 112 -5 112 56 0 45 -42
81 -80 69z"/>
<path d="M9063 2095 c-65 -28 -47 -126 25 -133 82 -8 101 113 21 140 -8 3 -29
0 -46 -7z"/>
<path d="M9320 2102 c-50 -16 -69 -92 -32 -125 44 -40 112 -5 112 56 0 45 -42
81 -80 69z"/>
<path d="M9688 2019 c-27 -15 -22 -48 8 -60 20 -7 32 -6 50 6 56 36 0 88 -58
54z"/>
<path d="M10612 2094 c-41 -29 -28 -44 38 -44 64 0 72 8 40 40 -24 24 -48 25
-78 4z"/>
<path d="M13268 2099 c-10 -5 -22 -19 -28 -29 -10 -19 -7 -20 50 -20 66 0 79
15 38 44 -26 18 -36 19 -60 5z"/>
<path d="M5972 1384 c-26 -18 -30 -65 -6 -88 23 -24 70 -20 88 6 22 31 20 51
-7 76 -28 26 -45 27 -75 6z"/>
<path d="M7142 1374 c-33 -23 -31 -86 4 -113 15 -12 32 -21 39 -21 7 0 24 9
39 21 19 15 26 30 26 55 0 62 -58 94 -108 58z"/>
<path d="M7529 1371 c-17 -14 -23 -28 -22 -56 1 -42 16 -61 55 -70 21 -5 33
-1 52 19 32 31 34 74 6 104 -25 27 -60 28 -91 3z"/>
<path d="M9321 1364 c-12 -15 -21 -38 -21 -51 0 -29 42 -73 70 -73 28 0 70 44
70 73 0 37 -36 77 -70 77 -19 0 -36 -9 -49 -26z"/>
<path d="M713 1294 c-16 -43 49 -71 81 -35 28 30 14 51 -34 51 -28 0 -43 -5
-47 -16z"/>
<path d="M946 1374 c-27 -27 -18 -34 44 -34 63 0 71 7 42 33 -23 21 -66 22
-86 1z"/>
<path d="M1321 1364 c-28 -35 -26 -69 4 -99 30 -30 54 -31 89 -4 19 15 26 30
26 55 0 69 -78 101 -119 48z"/>
<path d="M1761 1364 c-28 -36 -26 -70 5 -100 19 -20 31 -24 52 -20 60 15 80
79 37 121 -32 33 -68 32 -94 -1z"/>
<path d="M1983 1294 c-16 -43 49 -71 81 -35 28 30 14 51 -34 51 -28 0 -43 -5
-47 -16z"/>
<path d="M2426 1368 l-17 -23 57 -3 c31 -2 59 0 62 3 14 14 -17 40 -51 43 -27
2 -39 -2 -51 -20z"/>
<path d="M2798 1379 c-10 -5 -18 -17 -18 -24 0 -12 14 -15 61 -15 l61 0 -14
23 c-17 24 -63 33 -90 16z"/>
<path d="M3260 1370 c-30 -30 -27 -83 6 -109 15 -12 32 -21 39 -21 7 0 24 9
39 21 50 39 23 129 -39 129 -14 0 -34 -9 -45 -20z"/>
<path d="M3862 1378 c-27 -27 -13 -38 49 -38 l61 0 -14 23 c-18 25 -76 35 -96
15z"/>
<path d="M4092 1378 c-26 -26 -13 -38 43 -38 38 0 55 4 55 13 0 22 -22 37 -55
37 -17 0 -36 -5 -43 -12z"/>
<path d="M4832 1374 c-26 -18 -31 -84 -7 -108 44 -44 108 -18 113 47 5 63 -54
98 -106 61z"/>
<path d="M6671 1296 c-18 -22 3 -56 34 -56 28 0 68 35 62 53 -6 18 -81 21 -96
3z"/>
<path d="M8290 1370 c-30 -30 -27 -83 6 -109 35 -27 59 -26 89 4 30 30 32 64
4 99 -25 32 -70 35 -99 6z"/>
<path d="M8716 1374 c-27 -27 -18 -34 44 -34 63 0 71 7 42 33 -23 21 -66 22
-86 1z"/>
<path d="M9092 1378 c-26 -26 -13 -38 43 -38 38 0 55 4 55 13 0 22 -22 37 -55
37 -17 0 -36 -5 -43 -12z"/>
<path d="M10033 1294 c-8 -23 9 -48 36 -52 27 -4 61 24 61 50 0 15 -8 18 -45
18 -33 0 -47 -5 -52 -16z"/>
<path d="M11667 1372 c-10 -10 -17 -22 -17 -25 0 -4 27 -7 60 -7 62 0 71 7 44
34 -21 22 -67 20 -87 -2z"/>
<path d="M12050 1370 c-30 -30 -27 -83 6 -109 15 -12 32 -21 39 -21 7 0 24 9
39 21 50 39 23 129 -39 129 -14 0 -34 -9 -45 -20z"/>
<path d="M12271 1296 c-18 -22 3 -56 34 -56 28 0 68 35 62 53 -6 18 -81 21
-96 3z"/>
<path d="M12980 1370 c-30 -30 -27 -83 7 -110 45 -35 97 -13 109 47 13 63 -71
108 -116 63z"/>
<path d="M7693 670 c-46 -19 -57 -83 -20 -118 32 -30 71 -28 97 5 46 59 -9
140 -77 113z"/>
<path d="M6646 584 c-23 -22 -4 -54 33 -54 27 0 61 26 61 47 0 26 -71 31 -94
7z"/>
<path d="M7310 667 c-14 -7 -28 -26 -34 -45 -12 -43 17 -86 62 -90 67 -7 100
85 46 127 -31 24 -40 25 -74 8z"/>
<path d="M7932 664 c-41 -29 -28 -44 38 -44 64 0 72 8 40 40 -24 24 -48 25
-78 4z"/>
<path d="M8340 660 c-32 -32 -24 -40 40 -40 66 0 79 15 38 44 -30 21 -54 20
-78 -4z"/>
<path d="M8693 670 c-45 -18 -55 -72 -22 -114 41 -52 119 -21 119 47 0 51 -50
86 -97 67z"/>
<path d="M8953 670 c-46 -19 -57 -83 -20 -118 42 -39 94 -23 111 35 7 23 -17
83 -33 83 -5 0 -15 2 -23 4 -7 3 -23 1 -35 -4z"/>
<path d="M9170 660 c-29 -29 -17 -40 46 -40 59 0 69 13 36 43 -25 23 -58 21
-82 -3z"/>
<path d="M10250 585 c-21 -25 -8 -50 28 -53 37 -4 62 12 62 38 0 31 -67 42
-90 15z"/>
<path d="M10722 664 c-40 -28 -28 -44 33 -44 48 0 55 2 55 20 0 19 -27 40 -52
40 -8 0 -24 -7 -36 -16z"/>
<path d="M11654 668 c-65 -31 -43 -138 28 -138 65 0 94 88 42 129 -30 23 -39
24 -70 9z"/>
<path d="M12468 666 c-10 -7 -18 -21 -18 -30 0 -13 11 -16 55 -16 59 0 70 13
39 44 -19 19 -53 20 -76 2z"/>
</g>
</svg>
