<svg id="svg" xmlns="http://www.w3.org/2000/svg" xmlns:xlink="http://www.w3.org/1999/xlink" width="400" height="318.36734693877554" viewBox="0, 0, 400,318.36734693877554" version="1.1"><g id="svgg"><path id="path0" d="M173.150 42.685 C 171.958 42.828,170.637 43.171,170.216 43.447 C 169.794 43.723,169.050 43.950,168.562 43.951 C 168.074 43.952,167.245 44.183,166.720 44.464 C 166.194 44.744,164.660 45.552,163.311 46.258 C 160.879 47.530,155.096 52.637,155.096 53.512 C 155.096 53.719,154.737 54.315,154.299 54.835 C 153.861 55.356,153.503 56.036,153.503 56.346 C 153.503 56.657,153.154 57.568,152.727 58.371 C 151.887 59.951,151.282 64.609,151.270 69.586 C 151.267 70.987,151.128 72.349,150.962 72.611 C 150.698 73.029,146.467 73.110,117.130 73.255 C 85.786 73.409,83.505 73.457,82.166 73.994 C 81.377 74.310,80.088 74.774,79.299 75.026 C 77.353 75.646,74.051 77.283,73.566 77.868 C 73.348 78.130,72.976 78.344,72.738 78.344 C 72.152 78.344,67.947 82.342,66.913 83.880 C 63.138 89.503,62.980 90.329,62.835 105.188 L 62.717 117.223 64.454 117.991 C 65.410 118.414,67.415 118.973,68.911 119.234 C 70.406 119.495,71.898 119.853,72.227 120.028 C 72.555 120.204,74.224 120.573,75.934 120.848 C 77.644 121.124,79.321 121.497,79.660 121.679 C 80.000 121.860,81.669 122.276,83.371 122.602 C 85.073 122.928,86.823 123.333,87.261 123.500 C 87.699 123.668,89.119 123.983,90.417 124.201 C 91.714 124.419,93.230 124.786,93.784 125.018 C 94.339 125.250,95.785 125.603,96.998 125.803 C 98.211 126.002,100.028 126.441,101.036 126.777 C 102.044 127.113,103.303 127.389,103.833 127.389 C 104.363 127.389,105.617 127.660,106.618 127.992 C 107.620 128.324,109.514 128.762,110.828 128.966 C 112.142 129.169,114.005 129.607,114.968 129.939 C 115.932 130.271,117.775 130.697,119.066 130.885 C 120.356 131.073,121.677 131.369,122.001 131.543 C 122.325 131.716,123.829 132.074,125.343 132.338 C 126.858 132.602,128.384 132.972,128.735 133.160 C 129.086 133.348,130.678 133.711,132.274 133.968 C 133.869 134.225,135.325 134.560,135.508 134.712 C 135.692 134.865,136.842 135.151,138.064 135.350 C 139.287 135.548,141.218 135.985,142.357 136.321 C 143.495 136.657,145.412 137.084,146.617 137.269 C 147.821 137.453,149.319 137.819,149.945 138.080 C 150.570 138.342,152.236 138.759,153.646 139.007 C 155.056 139.255,156.994 139.680,157.952 139.952 C 158.909 140.224,160.011 140.446,160.400 140.446 C 160.789 140.446,162.227 140.787,163.595 141.204 C 164.963 141.622,167.148 142.127,168.449 142.328 C 169.751 142.529,170.989 142.837,171.201 143.012 C 171.412 143.188,172.906 143.545,174.521 143.806 C 176.135 144.067,177.732 144.429,178.071 144.610 C 178.409 144.791,179.982 145.149,181.567 145.405 C 183.152 145.662,184.863 146.085,185.369 146.347 C 185.875 146.609,187.189 146.914,188.288 147.024 C 189.387 147.134,190.932 147.473,191.720 147.778 C 192.508 148.082,193.941 148.434,194.904 148.560 C 195.868 148.687,197.728 149.080,199.037 149.434 C 201.690 150.152,209.056 150.148,210.393 149.428 C 210.767 149.226,212.128 148.898,213.418 148.698 C 214.709 148.498,216.409 148.085,217.197 147.780 C 217.986 147.474,219.525 147.135,220.619 147.025 C 221.713 146.915,223.137 146.604,223.784 146.334 C 224.431 146.063,226.188 145.629,227.687 145.369 C 229.187 145.109,230.888 144.741,231.467 144.551 C 232.047 144.361,233.695 143.945,235.130 143.627 C 238.735 142.827,241.850 142.098,244.108 141.525 C 245.159 141.258,247.094 140.837,248.408 140.588 C 249.721 140.339,251.369 139.931,252.070 139.681 C 252.771 139.431,254.061 139.134,254.936 139.022 C 255.812 138.909,257.818 138.476,259.395 138.059 C 263.435 136.992,269.009 135.715,270.701 135.470 C 271.489 135.355,272.529 135.063,273.011 134.819 C 273.493 134.576,274.904 134.250,276.146 134.094 C 277.387 133.938,279.357 133.515,280.523 133.154 C 281.689 132.793,283.682 132.280,284.952 132.013 C 286.222 131.747,288.300 131.312,289.570 131.046 C 290.840 130.781,292.811 130.284,293.949 129.942 C 295.088 129.600,297.237 129.125,298.726 128.887 C 300.215 128.649,301.731 128.295,302.095 128.099 C 302.458 127.904,303.533 127.642,304.483 127.518 C 305.433 127.394,306.951 127.039,307.856 126.730 C 308.761 126.420,310.337 126.063,311.359 125.936 C 312.381 125.809,314.005 125.430,314.968 125.094 C 315.932 124.758,317.989 124.274,319.540 124.018 C 321.091 123.762,322.615 123.417,322.926 123.250 C 323.238 123.084,324.530 122.786,325.798 122.590 C 327.066 122.393,328.887 121.962,329.845 121.633 C 330.803 121.303,332.326 120.946,333.230 120.840 C 334.133 120.733,335.732 120.377,336.783 120.047 C 337.834 119.717,339.577 119.310,340.656 119.141 C 343.034 118.769,345.602 117.929,345.929 117.415 C 346.565 116.415,346.203 91.904,345.534 90.593 C 345.179 89.899,344.745 88.800,344.570 88.151 C 344.394 87.502,344.069 86.786,343.848 86.559 C 343.626 86.332,343.255 85.684,343.024 85.119 C 342.525 83.898,338.210 79.375,336.624 78.410 C 336.011 78.037,334.945 77.423,334.256 77.045 C 333.566 76.668,332.823 76.181,332.605 75.963 C 332.387 75.744,331.612 75.471,330.884 75.354 C 330.155 75.238,329.004 74.859,328.324 74.512 C 326.124 73.390,322.147 73.260,289.928 73.254 C 265.316 73.250,258.608 73.164,258.355 72.850 C 258.178 72.631,257.970 70.231,257.892 67.516 C 257.792 64.018,257.606 62.245,257.255 61.433 C 256.983 60.802,256.654 59.661,256.525 58.898 C 256.397 58.136,255.982 57.004,255.604 56.383 C 255.226 55.763,254.778 55.025,254.608 54.745 C 252.925 51.968,249.348 48.254,247.126 46.975 C 243.518 44.898,242.232 44.274,241.163 44.083 C 240.506 43.965,239.323 43.564,238.535 43.192 C 237.007 42.471,178.703 42.019,173.150 42.685 M234.449 58.376 C 236.253 59.076,237.673 60.212,239.172 62.157 C 240.073 63.326,240.547 70.541,239.843 72.373 L 239.506 73.248 204.865 73.244 C 183.635 73.241,170.038 73.122,169.745 72.937 C 169.376 72.705,169.243 71.793,169.160 68.940 C 168.971 62.451,170.314 59.918,174.732 58.428 L 176.911 57.694 204.777 57.685 L 232.643 57.676 234.449 58.376 M63.455 150.544 L 62.739 150.681 62.739 198.051 C 62.739 245.206,62.742 245.432,63.412 248.108 C 64.166 251.119,65.337 253.851,66.453 255.200 C 66.862 255.695,67.197 256.288,67.197 256.517 C 67.197 257.134,72.882 262.433,74.082 262.934 C 74.651 263.172,75.199 263.501,75.301 263.666 C 75.403 263.831,76.022 264.140,76.676 264.352 C 77.331 264.564,78.247 265.005,78.712 265.331 C 79.177 265.657,80.968 266.245,82.693 266.637 L 85.828 267.351 203.503 267.440 C 281.114 267.499,321.829 267.421,323.089 267.210 C 328.479 266.309,331.839 265.106,334.872 262.990 C 335.698 262.414,336.699 261.728,337.095 261.465 C 337.492 261.202,338.588 260.141,339.529 259.107 C 340.471 258.073,341.636 256.814,342.118 256.309 C 342.600 255.805,342.994 255.201,342.994 254.968 C 342.994 254.735,343.266 254.198,343.600 253.774 C 343.933 253.350,344.375 252.376,344.581 251.610 C 344.788 250.844,345.195 249.852,345.488 249.406 C 346.319 248.137,346.474 150.730,345.645 150.412 C 345.347 150.298,344.234 150.455,343.172 150.761 C 342.111 151.067,340.096 151.579,338.694 151.898 C 334.236 152.913,331.754 153.554,329.261 154.335 C 327.926 154.753,326.393 155.096,325.854 155.096 C 325.315 155.096,323.756 155.445,322.389 155.871 C 321.023 156.298,319.188 156.795,318.312 156.975 C 317.436 157.156,315.717 157.587,314.490 157.933 C 313.264 158.279,311.872 158.570,311.397 158.580 C 310.922 158.590,309.808 158.885,308.922 159.234 C 308.035 159.583,306.274 160.029,305.009 160.224 C 303.743 160.420,302.349 160.761,301.911 160.982 C 301.473 161.203,300.122 161.554,298.909 161.762 C 297.696 161.970,296.219 162.343,295.626 162.590 C 295.034 162.838,293.805 163.127,292.895 163.234 C 291.986 163.341,290.202 163.774,288.930 164.198 C 287.659 164.622,286.281 164.968,285.869 164.968 C 285.457 164.968,284.061 165.304,282.767 165.714 C 281.473 166.124,279.651 166.560,278.718 166.683 C 277.785 166.807,276.347 167.173,275.521 167.499 C 274.696 167.824,273.166 168.194,272.122 168.321 C 271.078 168.448,269.857 168.738,269.410 168.965 C 268.962 169.193,267.457 169.596,266.066 169.861 C 264.674 170.126,263.033 170.551,262.420 170.805 C 261.807 171.059,260.374 171.371,259.236 171.499 C 258.097 171.626,256.762 171.937,256.268 172.190 C 255.774 172.444,254.269 172.859,252.924 173.113 C 251.578 173.367,249.976 173.771,249.363 174.011 C 248.750 174.250,247.460 174.550,246.497 174.677 C 245.533 174.804,243.753 175.251,242.540 175.671 C 241.327 176.090,239.925 176.433,239.425 176.433 C 238.924 176.433,237.650 176.725,236.592 177.081 C 235.534 177.437,233.540 177.943,232.161 178.205 C 230.781 178.466,229.179 178.873,228.600 179.108 C 228.021 179.343,226.765 179.635,225.809 179.756 C 224.853 179.877,223.420 180.239,222.624 180.560 C 221.829 180.882,220.104 181.320,218.790 181.534 C 217.476 181.748,216.156 182.051,215.857 182.208 C 215.558 182.364,214.132 182.716,212.690 182.990 C 211.247 183.264,209.629 183.717,209.094 183.997 C 207.696 184.730,201.617 184.695,199.799 183.944 C 198.559 183.432,196.786 182.994,189.968 181.516 C 188.392 181.175,186.600 180.689,185.987 180.437 C 185.374 180.186,183.869 179.807,182.643 179.597 C 181.417 179.386,180.056 179.033,179.618 178.812 C 179.179 178.590,177.962 178.302,176.913 178.171 C 175.864 178.040,174.039 177.595,172.859 177.183 C 171.678 176.771,170.298 176.433,169.792 176.433 C 169.285 176.433,167.774 176.075,166.432 175.637 C 165.091 175.199,163.742 174.841,163.435 174.841 C 163.129 174.841,162.094 174.616,161.136 174.342 C 160.179 174.068,158.177 173.576,156.688 173.249 C 155.199 172.922,153.374 172.431,152.633 172.158 C 151.891 171.886,150.458 171.570,149.448 171.456 C 148.438 171.342,147.245 171.065,146.798 170.840 C 146.351 170.615,144.804 170.206,143.361 169.933 C 141.919 169.659,140.462 169.288,140.125 169.107 C 139.788 168.927,138.276 168.564,136.766 168.300 C 135.255 168.037,133.625 167.617,133.142 167.368 C 132.660 167.118,131.490 166.822,130.543 166.709 C 129.596 166.596,128.013 166.236,127.026 165.908 C 126.038 165.580,124.390 165.174,123.363 165.005 C 122.337 164.836,120.985 164.481,120.358 164.215 C 119.732 163.950,118.227 163.569,117.014 163.369 C 115.801 163.170,113.984 162.731,112.976 162.395 C 111.969 162.059,110.782 161.783,110.339 161.783 C 109.896 161.783,108.714 161.507,107.711 161.169 C 106.709 160.832,104.886 160.384,103.661 160.174 C 102.436 159.964,101.072 159.608,100.630 159.384 C 100.188 159.159,98.468 158.730,96.808 158.429 C 95.148 158.128,93.632 157.757,93.440 157.605 C 93.248 157.452,91.882 157.116,90.405 156.859 C 88.928 156.601,87.289 156.176,86.763 155.913 C 86.236 155.651,84.951 155.339,83.906 155.220 C 82.861 155.102,81.353 154.752,80.555 154.442 C 79.756 154.132,78.395 153.775,77.529 153.647 C 76.664 153.520,75.103 153.146,74.061 152.816 C 73.019 152.486,71.163 152.060,69.937 151.870 C 68.710 151.679,67.413 151.340,67.054 151.116 C 66.288 150.638,64.474 150.349,63.455 150.544 " stroke="none" fill="#fafafa" fill-rule="evenodd"></path><path id="path1" d="M0.000 159.236 L 0.000 318.471 200.000 318.471 L 400.000 318.471 400.000 159.236 L 400.000 0.000 200.000 0.000 L 0.000 0.000 0.000 159.236 M238.535 43.192 C 239.323 43.564,240.506 43.965,241.163 44.083 C 242.232 44.274,243.518 44.898,247.126 46.975 C 249.348 48.254,252.925 51.968,254.608 54.745 C 254.778 55.025,255.226 55.763,255.604 56.383 C 255.982 57.004,256.397 58.136,256.525 58.898 C 256.654 59.661,256.983 60.802,257.255 61.433 C 257.606 62.245,257.792 64.018,257.892 67.516 C 257.970 70.231,258.178 72.631,258.355 72.850 C 258.608 73.164,265.316 73.250,289.928 73.254 C 322.147 73.260,326.124 73.390,328.324 74.512 C 329.004 74.859,330.155 75.238,330.884 75.354 C 331.612 75.471,332.387 75.744,332.605 75.963 C 332.823 76.181,333.566 76.668,334.256 77.045 C 334.945 77.423,336.011 78.037,336.624 78.410 C 338.210 79.375,342.525 83.898,343.024 85.119 C 343.255 85.684,343.626 86.332,343.848 86.559 C 344.069 86.786,344.394 87.502,344.570 88.151 C 344.745 88.800,345.179 89.899,345.534 90.593 C 346.203 91.904,346.565 116.415,345.929 117.415 C 345.602 117.929,343.034 118.769,340.656 119.141 C 339.577 119.310,337.834 119.717,336.783 120.047 C 335.732 120.377,334.133 120.733,333.230 120.840 C 332.326 120.946,330.803 121.303,329.845 121.633 C 328.887 121.962,327.066 122.393,325.798 122.590 C 324.530 122.786,323.238 123.084,322.926 123.250 C 322.615 123.417,321.091 123.762,319.540 124.018 C 317.989 124.274,315.932 124.758,314.968 125.094 C 314.005 125.430,312.381 125.809,311.359 125.936 C 310.337 126.063,308.761 126.420,307.856 126.730 C 306.951 127.039,305.433 127.394,304.483 127.518 C 303.533 127.642,302.458 127.904,302.095 128.099 C 301.731 128.295,300.215 128.649,298.726 128.887 C 297.237 129.125,295.088 129.600,293.949 129.942 C 292.811 130.284,290.840 130.781,289.570 131.046 C 288.300 131.312,286.222 131.747,284.952 132.013 C 283.682 132.280,281.689 132.793,280.523 133.154 C 279.357 133.515,277.387 133.938,276.146 134.094 C 274.904 134.250,273.493 134.576,273.011 134.819 C 272.529 135.063,271.489 135.355,270.701 135.470 C 269.009 135.715,263.435 136.992,259.395 138.059 C 257.818 138.476,255.812 138.909,254.936 139.022 C 254.061 139.134,252.771 139.431,252.070 139.681 C 251.369 139.931,249.721 140.339,248.408 140.588 C 247.094 140.837,245.159 141.258,244.108 141.525 C 241.850 142.098,238.735 142.827,235.130 143.627 C 233.695 143.945,232.047 144.361,231.467 144.551 C 230.888 144.741,229.187 145.109,227.687 145.369 C 226.188 145.629,224.431 146.063,223.784 146.334 C 223.137 146.604,221.713 146.915,220.619 147.025 C 219.525 147.135,217.986 147.474,217.197 147.780 C 216.409 148.085,214.709 148.498,213.418 148.698 C 212.128 148.898,210.767 149.226,210.393 149.428 C 209.056 150.148,201.690 150.152,199.037 149.434 C 197.728 149.080,195.868 148.687,194.904 148.560 C 193.941 148.434,192.508 148.082,191.720 147.778 C 190.932 147.473,189.387 147.134,188.288 147.024 C 187.189 146.914,185.875 146.609,185.369 146.347 C 184.863 146.085,183.152 145.662,181.567 145.405 C 179.982 145.149,178.409 144.791,178.071 144.610 C 177.732 144.429,176.135 144.067,174.521 143.806 C 172.906 143.545,171.412 143.188,171.201 143.012 C 170.989 142.837,169.751 142.529,168.449 142.328 C 167.148 142.127,164.963 141.622,163.595 141.204 C 162.227 140.787,160.789 140.446,160.400 140.446 C 160.011 140.446,158.909 140.224,157.952 139.952 C 156.994 139.680,155.056 139.255,153.646 139.007 C 152.236 138.759,150.570 138.342,149.945 138.080 C 149.319 137.819,147.821 137.453,146.617 137.269 C 145.412 137.084,143.495 136.657,142.357 136.321 C 141.218 135.985,139.287 135.548,138.064 135.350 C 136.842 135.151,135.692 134.865,135.508 134.712 C 135.325 134.560,133.869 134.225,132.274 133.968 C 130.678 133.711,129.086 133.348,128.735 133.160 C 128.384 132.972,126.858 132.602,125.343 132.338 C 123.829 132.074,122.325 131.716,122.001 131.543 C 121.677 131.369,120.356 131.073,119.066 130.885 C 117.775 130.697,115.932 130.271,114.968 129.939 C 114.005 129.607,112.142 129.169,110.828 128.966 C 109.514 128.762,107.620 128.324,106.618 127.992 C 105.617 127.660,104.363 127.389,103.833 127.389 C 103.303 127.389,102.044 127.113,101.036 126.777 C 100.028 126.441,98.211 126.002,96.998 125.803 C 95.785 125.603,94.339 125.250,93.784 125.018 C 93.230 124.786,91.714 124.419,90.417 124.201 C 89.119 123.983,87.699 123.668,87.261 123.500 C 86.823 123.333,85.073 122.928,83.371 122.602 C 81.669 122.276,80.000 121.860,79.660 121.679 C 79.321 121.497,77.644 121.124,75.934 120.848 C 74.224 120.573,72.555 120.204,72.227 120.028 C 71.898 119.853,70.406 119.495,68.911 119.234 C 67.415 118.973,65.410 118.414,64.454 117.991 L 62.717 117.223 62.835 105.188 C 62.980 90.329,63.138 89.503,66.913 83.880 C 67.947 82.342,72.152 78.344,72.738 78.344 C 72.976 78.344,73.348 78.130,73.566 77.868 C 74.051 77.283,77.353 75.646,79.299 75.026 C 80.088 74.774,81.377 74.310,82.166 73.994 C 83.505 73.457,85.786 73.409,117.130 73.255 C 146.467 73.110,150.698 73.029,150.962 72.611 C 151.128 72.349,151.267 70.987,151.270 69.586 C 151.282 64.609,151.887 59.951,152.727 58.371 C 153.154 57.568,153.503 56.657,153.503 56.346 C 153.503 56.036,153.861 55.356,154.299 54.835 C 154.737 54.315,155.096 53.719,155.096 53.512 C 155.096 52.637,160.879 47.530,163.311 46.258 C 164.660 45.552,166.194 44.744,166.720 44.464 C 167.245 44.183,168.074 43.952,168.562 43.951 C 169.050 43.950,169.794 43.723,170.216 43.447 C 172.235 42.124,235.769 41.887,238.535 43.192 M174.732 58.428 C 170.314 59.918,168.971 62.451,169.160 68.940 C 169.243 71.793,169.376 72.705,169.745 72.937 C 170.038 73.122,183.635 73.241,204.865 73.244 L 239.506 73.248 239.843 72.373 C 240.547 70.541,240.073 63.326,239.172 62.157 C 237.673 60.212,236.253 59.076,234.449 58.376 L 232.643 57.676 204.777 57.685 L 176.911 57.694 174.732 58.428 M67.054 151.116 C 67.413 151.340,68.710 151.679,69.937 151.870 C 71.163 152.060,73.019 152.486,74.061 152.816 C 75.103 153.146,76.664 153.520,77.529 153.647 C 78.395 153.775,79.756 154.132,80.555 154.442 C 81.353 154.752,82.861 155.102,83.906 155.220 C 84.951 155.339,86.236 155.651,86.763 155.913 C 87.289 156.176,88.928 156.601,90.405 156.859 C 91.882 157.116,93.248 157.452,93.440 157.605 C 93.632 157.757,95.148 158.128,96.808 158.429 C 98.468 158.730,100.188 159.159,100.630 159.384 C 101.072 159.608,102.436 159.964,103.661 160.174 C 104.886 160.384,106.709 160.832,107.711 161.169 C 108.714 161.507,109.896 161.783,110.339 161.783 C 110.782 161.783,111.969 162.059,112.976 162.395 C 113.984 162.731,115.801 163.170,117.014 163.369 C 118.227 163.569,119.732 163.950,120.358 164.215 C 120.985 164.481,122.337 164.836,123.363 165.005 C 124.390 165.174,126.038 165.580,127.026 165.908 C 128.013 166.236,129.596 166.596,130.543 166.709 C 131.490 166.822,132.660 167.118,133.142 167.368 C 133.625 167.617,135.255 168.037,136.766 168.300 C 138.276 168.564,139.788 168.927,140.125 169.107 C 140.462 169.288,141.919 169.659,143.361 169.933 C 144.804 170.206,146.351 170.615,146.798 170.840 C 147.245 171.065,148.438 171.342,149.448 171.456 C 150.458 171.570,151.891 171.886,152.633 172.158 C 153.374 172.431,155.199 172.922,156.688 173.249 C 158.177 173.576,160.179 174.068,161.136 174.342 C 162.094 174.616,163.129 174.841,163.435 174.841 C 163.742 174.841,165.091 175.199,166.432 175.637 C 167.774 176.075,169.285 176.433,169.792 176.433 C 170.298 176.433,171.678 176.771,172.859 177.183 C 174.039 177.595,175.864 178.040,176.913 178.171 C 177.962 178.302,179.179 178.590,179.618 178.812 C 180.056 179.033,181.417 179.386,182.643 179.597 C 183.869 179.807,185.374 180.186,185.987 180.437 C 186.600 180.689,188.392 181.175,189.968 181.516 C 196.786 182.994,198.559 183.432,199.799 183.944 C 201.617 184.695,207.696 184.730,209.094 183.997 C 209.629 183.717,211.247 183.264,212.690 182.990 C 214.132 182.716,215.558 182.364,215.857 182.208 C 216.156 182.051,217.476 181.748,218.790 181.534 C 220.104 181.320,221.829 180.882,222.624 180.560 C 223.420 180.239,224.853 179.877,225.809 179.756 C 226.765 179.635,228.021 179.343,228.600 179.108 C 229.179 178.873,230.781 178.466,232.161 178.205 C 233.540 177.943,235.534 177.437,236.592 177.081 C 237.650 176.725,238.924 176.433,239.425 176.433 C 239.925 176.433,241.327 176.090,242.540 175.671 C 243.753 175.251,245.533 174.804,246.497 174.677 C 247.460 174.550,248.750 174.250,249.363 174.011 C 249.976 173.771,251.578 173.367,252.924 173.113 C 254.269 172.859,255.774 172.444,256.268 172.190 C 256.762 171.937,258.097 171.626,259.236 171.499 C 260.374 171.371,261.807 171.059,262.420 170.805 C 263.033 170.551,264.674 170.126,266.066 169.861 C 267.457 169.596,268.962 169.193,269.410 168.965 C 269.857 168.738,271.078 168.448,272.122 168.321 C 273.166 168.194,274.696 167.824,275.521 167.499 C 276.347 167.173,277.785 166.807,278.718 166.683 C 279.651 166.560,281.473 166.124,282.767 165.714 C 284.061 165.304,285.457 164.968,285.869 164.968 C 286.281 164.968,287.659 164.622,288.930 164.198 C 290.202 163.774,291.986 163.341,292.895 163.234 C 293.805 163.127,295.034 162.838,295.626 162.590 C 296.219 162.343,297.696 161.970,298.909 161.762 C 300.122 161.554,301.473 161.203,301.911 160.982 C 302.349 160.761,303.743 160.420,305.009 160.224 C 306.274 160.029,308.035 159.583,308.922 159.234 C 309.808 158.885,310.922 158.590,311.397 158.580 C 311.872 158.570,313.264 158.279,314.490 157.933 C 315.717 157.587,317.436 157.156,318.312 156.975 C 319.188 156.795,321.023 156.298,322.389 155.871 C 323.756 155.445,325.315 155.096,325.854 155.096 C 326.393 155.096,327.926 154.753,329.261 154.335 C 331.754 153.554,334.236 152.913,338.694 151.898 C 340.096 151.579,342.111 151.067,343.172 150.761 C 344.234 150.455,345.347 150.298,345.645 150.412 C 346.474 150.730,346.319 248.137,345.488 249.406 C 345.195 249.852,344.788 250.844,344.581 251.610 C 344.375 252.376,343.933 253.350,343.600 253.774 C 343.266 254.198,342.994 254.735,342.994 254.968 C 342.994 255.201,342.600 255.805,342.118 256.309 C 341.636 256.814,340.471 258.073,339.529 259.107 C 338.588 260.141,337.492 261.202,337.095 261.465 C 336.699 261.728,335.698 262.414,334.872 262.990 C 331.839 265.106,328.479 266.309,323.089 267.210 C 321.829 267.421,281.114 267.499,203.503 267.440 L 85.828 267.351 82.693 266.637 C 80.968 266.245,79.177 265.657,78.712 265.331 C 78.247 265.005,77.331 264.564,76.676 264.352 C 76.022 264.140,75.403 263.831,75.301 263.666 C 75.199 263.501,74.651 263.172,74.082 262.934 C 72.882 262.433,67.197 257.134,67.197 256.517 C 67.197 256.288,66.862 255.695,66.453 255.200 C 65.337 253.851,64.166 251.119,63.412 248.108 C 62.742 245.432,62.739 245.206,62.739 198.051 L 62.739 150.681 63.455 150.544 C 64.474 150.349,66.288 150.638,67.054 151.116 " stroke="none" fill="#040404" fill-rule="evenodd"></path></g></svg>